<?xml version="1.0" encoding="utf-8"?>
<!-- Generator: Adobe Illustrator 16.0.0, SVG Export Plug-In . SVG Version: 6.00 Build 0)  -->
<!DOCTYPE svg PUBLIC "-//W3C//DTD SVG 1.1//EN" "http://www.w3.org/Graphics/SVG/1.1/DTD/svg11.dtd">
<svg version="1.1" id="Layer_1" xmlns="http://www.w3.org/2000/svg" xmlns:xlink="http://www.w3.org/1999/xlink" x="0px" y="0px"
	 width="403.211px" height="403.205px" viewBox="278.395 22.395 403.211 403.205"
	 enable-background="new 278.395 22.395 403.211 403.205" xml:space="preserve">
<g>
	<g>
		<path fill="#626B78" d="M665.328,425.6c-4.161,0-8.328-1.59-11.504-4.767L283.162,50.176c-6.357-6.348-6.357-16.661,0-23.009
			c6.357-6.357,16.657-6.357,23.014,0l370.662,370.657c6.357,6.348,6.357,16.661,0,23.009
			C673.657,424.014,669.49,425.6,665.328,425.6z"/>
	</g>
	<g>
		<path fill="#626B78" d="M294.671,425.6c-4.162,0-8.328-1.59-11.505-4.767c-6.357-6.348-6.357-16.661,0-23.009L653.824,27.162
			c6.357-6.357,16.656-6.357,23.014,0c6.357,6.348,6.357,16.661,0,23.009L306.176,420.833C303,424.014,298.833,425.6,294.671,425.6z
			"/>
	</g>
</g>
</svg>
