<?xml version="1.0" encoding="utf-8"?>
<!-- Generator: Adobe Illustrator 16.0.0, SVG Export Plug-In . SVG Version: 6.00 Build 0)  -->
<!DOCTYPE svg PUBLIC "-//W3C//DTD SVG 1.1//EN" "http://www.w3.org/Graphics/SVG/1.1/DTD/svg11.dtd">
<svg version="1.1" id="Layer_1" xmlns="http://www.w3.org/2000/svg" xmlns:xlink="http://www.w3.org/1999/xlink" x="0px" y="0px"
	 width="173px" height="71px" viewBox="0 0 173 71" enable-background="new 0 0 173 71" xml:space="preserve">
<title>Page 1</title>
<desc>Created with Sketch.</desc>
<g id="Page-1_1_">
	<g id="Desktop" transform="translate(-1107.000000, -396.000000)">
		<g id="first-page" transform="translate(-272.000000, 13.000000)">
			<g id="clouds" transform="translate(0.000000, 181.000000)">
				<path id="Page-1" fill="#DDFEFD" d="M1493.954,218.462c0.646-1.453,1.013-3.057,1.013-4.749c0-6.469-5.248-11.713-11.724-11.713
					h-43.091c-6.475,0-11.724,5.244-11.724,11.713c0,1.692,0.366,3.296,1.013,4.749h-35.233c-8.399,0-15.208,6.803-15.208,15.194
					c0,8.394,6.809,15.196,15.208,15.196h62.482c-0.646,1.453-1.013,3.057-1.013,4.749c0,6.469,5.249,11.713,11.724,11.713h43.091
					c6.476,0,11.724-5.244,11.724-11.713c0-1.692-0.366-3.296-1.013-4.749h15.588c8.399,0,15.209-6.803,15.209-15.194
					c0-8.394-6.81-15.196-15.209-15.196H1493.954z"/>
			</g>
		</g>
	</g>
</g>
</svg>
