<?xml version="1.0" encoding="UTF-8" standalone="no"?>
<svg width="173px" height="71px" viewBox="0 0 173 71" version="1.1" xmlns="http://www.w3.org/2000/svg" xmlns:xlink="http://www.w3.org/1999/xlink">
    <!-- Generator: Sketch 39.1 (31720) - http://www.bohemiancoding.com/sketch -->
    <title>Page 1</title>
    <desc>Created with Sketch.</desc>
    <defs></defs>
    <g id="Page-1" stroke="none" stroke-width="1" fill="none" fill-rule="evenodd">
        <g id="Desktop" transform="translate(-1107.000000, -396.000000)" fill="#DDFEFD">
            <g id="first-page" transform="translate(-272.000000, 13.000000)">
                <g id="clouds" transform="translate(0.000000, 181.000000)">
                    <path d="M1507.90838,220.46 C1508.63322,218.83126 1509.04396,217.03212 1509.04396,215.135 C1509.04396,207.88093 1503.15787,202 1495.89744,202 L1447.57509,202 C1440.31466,202 1434.42857,207.88093 1434.42857,215.135 C1434.42857,217.03212 1434.83931,218.83126 1435.56415,220.46 L1396.05423,220.46 C1386.63564,220.46 1379,228.08895 1379,237.49929 C1379,246.91105 1386.63564,254.54 1396.05423,254.54 L1466.12092,254.54 C1465.39609,256.16874 1464.98535,257.96788 1464.98535,259.865 C1464.98535,267.11907 1470.87144,273 1478.13187,273 L1526.45421,273 C1533.71464,273 1539.60073,267.11907 1539.60073,259.865 C1539.60073,257.96788 1539.18999,256.16874 1538.46516,254.54 L1555.94577,254.54 C1565.36436,254.54 1573,246.91105 1573,237.50071 C1573,228.08895 1565.36436,220.46 1555.94577,220.46 L1507.90838,220.46 Z" id="Page-1"></path>
                </g>
            </g>
        </g>
    </g>
</svg>