<?xml version="1.0" encoding="utf-8"?>
<!-- Generator: Adobe Illustrator 16.0.0, SVG Export Plug-In . SVG Version: 6.00 Build 0)  -->
<!DOCTYPE svg PUBLIC "-//W3C//DTD SVG 1.1//EN" "http://www.w3.org/Graphics/SVG/1.1/DTD/svg11.dtd">
<svg version="1.1" xmlns="http://www.w3.org/2000/svg" xmlns:xlink="http://www.w3.org/1999/xlink" x="0px" y="0px"
	 width="1359.98px" height="1087px" viewBox="-101.953 1247.751 1359.98 1087"
	 enable-background="new -101.953 1247.751 1359.98 1087" xml:space="preserve">
<g id="duck">
	<g id="Layer_2_2_">
		
			<circle fill="#DDFEFD" stroke="#6F0F11" stroke-width="9.5588" stroke-linecap="round" stroke-linejoin="round" stroke-miterlimit="10" cx="600.214" cy="1787.913" r="467.513"/>
	</g>
	<g id="duck_1_">
		<path fill="#FFE653" d="M978.806,1738.296c0-66.768-54.057-120.895-120.74-120.895c-28.973,0-55.553,10.221-76.359,27.248
			c-21.051,13.491-47.377,19.732-74.678,15.665c-50.643-7.546-87.787-48.017-90.682-94.849
			c6.541-101.322-65.615-192.431-167.853-207.662c-104.221-15.525-201.526,53.482-222.371,155.5
			c0.251-1.23-7.989,30.829-10.667,48.809c-32.302,216.834,117.293,418.798,334.131,451.1
			c175.871,26.199,341.951-67.265,415.66-219.219C973.906,1777.323,978.806,1758.385,978.806,1738.296z M774.357,1651.179
			c-0.004,0.008-0.008,0.012-0.016,0.016C774.349,1651.19,774.353,1651.187,774.357,1651.179z M772.121,1653.396
			c-0.092,0.092-0.182,0.186-0.273,0.277C771.939,1653.581,772.029,1653.488,772.121,1653.396z M769.923,1655.685
			c-0.119,0.125-0.236,0.252-0.354,0.381C769.687,1655.938,769.804,1655.812,769.923,1655.685z M767.753,1658.065
			c-0.113,0.128-0.229,0.26-0.342,0.391C767.525,1658.325,767.64,1658.194,767.753,1658.065z M765.591,1660.573
			c-0.082,0.099-0.168,0.197-0.248,0.295C765.423,1660.771,765.509,1660.674,765.591,1660.573z M757.626,1671.187
			c-0.09,0.137-0.182,0.278-0.273,0.42C757.445,1671.467,757.537,1671.325,757.626,1671.187z M755.917,1673.829
			c-0.131,0.204-0.258,0.408-0.385,0.613C755.66,1674.237,755.787,1674.033,755.917,1673.829z M754.259,1676.532
			c-0.137,0.232-0.275,0.465-0.41,0.7C753.984,1676.998,754.123,1676.765,754.259,1676.532z M752.654,1679.318
			c-0.131,0.231-0.26,0.464-0.391,0.696C752.394,1679.782,752.523,1679.55,752.654,1679.318z M751.074,1682.233
			c-0.1,0.199-0.205,0.389-0.307,0.584C750.869,1682.622,750.974,1682.431,751.074,1682.233z M749.433,1685.482
			c-0.031,0.054-0.059,0.112-0.084,0.167C749.375,1685.595,749.402,1685.54,749.433,1685.482z M746.681,1691.562
			c-0.084,0.207-0.168,0.415-0.252,0.626C746.513,1691.979,746.595,1691.769,746.681,1691.562z M745.501,1694.495
			c-0.119,0.301-0.23,0.604-0.344,0.907C745.271,1695.099,745.382,1694.796,745.501,1694.495z M744.392,1697.476
			c-0.125,0.342-0.244,0.683-0.363,1.026C744.148,1698.158,744.267,1697.815,744.392,1697.476z M743.351,1700.507
			c-0.119,0.357-0.234,0.713-0.346,1.07C743.117,1701.22,743.232,1700.864,743.351,1700.507z M742.378,1703.609
			c-0.104,0.351-0.209,0.702-0.312,1.055C742.169,1704.312,742.275,1703.96,742.378,1703.609z M741.464,1706.835
			c-0.082,0.31-0.172,0.619-0.252,0.93C741.292,1707.454,741.382,1707.146,741.464,1706.835z M740.541,1710.488
			c-0.031,0.135-0.066,0.269-0.094,0.405C740.474,1710.756,740.509,1710.622,740.541,1710.488z M739.75,1714.083
			c-0.047,0.234-0.09,0.473-0.135,0.707C739.662,1714.556,739.703,1714.318,739.75,1714.083z M739.154,1717.258
			c-0.064,0.372-0.125,0.744-0.184,1.117C739.029,1718.003,739.089,1717.63,739.154,1717.258z M738.636,1720.464
			c-0.061,0.42-0.117,0.84-0.176,1.263C738.519,1721.304,738.576,1720.885,738.636,1720.464z M738.203,1723.711
			c-0.055,0.438-0.104,0.878-0.15,1.32C738.099,1724.591,738.15,1724.149,738.203,1723.711z M737.855,1727.002
			c-0.041,0.441-0.082,0.884-0.117,1.323C737.773,1727.884,737.814,1727.442,737.855,1727.002z M737.591,1730.361
			c-0.027,0.423-0.055,0.849-0.08,1.274C737.537,1731.21,737.564,1730.784,737.591,1730.361z M737.416,1733.878
			c-0.014,0.357-0.029,0.717-0.041,1.074C737.386,1734.593,737.402,1734.235,737.416,1733.878z"/>
		<path fill="#F9DA55" d="M857.134,1617.401c-28.973,0-55.555,10.221-76.359,27.248c-21.051,13.491-47.379,19.732-74.678,15.665
			c-50.643-7.546-87.787-48.017-90.682-94.849c6.285-97.434-60.195-185.408-156.224-205.563
			c59.821,57.464,78.116,148.079,42.168,225.309c-14.295,44.69,3.548,99.96,50.099,121.28
			c201.32,92.204,165.912,302.787,26.746,309.995c164.697,12.209,316.545-79.086,386.109-222.493
			c8.658-16.672,13.559-35.611,13.559-55.699C977.875,1671.527,923.816,1617.401,857.134,1617.401z"/>
		<path fill="none" stroke="#6F0F11" stroke-width="10.2498" stroke-miterlimit="10" d="M977.875,1738.296
			c0-66.768-54.059-120.895-120.738-120.895c-28.975,0-55.555,10.221-76.361,27.248c-21.051,13.491-47.375,19.732-74.678,15.665
			c-50.643-7.546-87.787-48.017-90.68-94.849c6.535-101.322-65.617-192.431-167.854-207.662
			c-104.222-15.526-201.525,53.481-222.372,155.5c0.252-1.231-7.989,30.828-10.667,48.808
			c-32.301,216.835,117.293,418.799,334.129,451.101c175.873,26.199,341.955-67.265,415.662-219.219
			C972.976,1777.323,977.875,1758.385,977.875,1738.296z M773.425,1651.179c-0.006,0.008-0.01,0.012-0.016,0.016
			C773.416,1651.19,773.421,1651.187,773.425,1651.179z M771.189,1653.396c-0.092,0.092-0.182,0.186-0.273,0.277
			C771.007,1653.581,771.097,1653.488,771.189,1653.396z M768.992,1655.685c-0.119,0.125-0.236,0.252-0.354,0.381
			C768.753,1655.938,768.873,1655.812,768.992,1655.685z M766.822,1658.065c-0.111,0.128-0.23,0.26-0.342,0.391
			C766.591,1658.325,766.71,1658.194,766.822,1658.065z M764.66,1660.573c-0.082,0.099-0.168,0.197-0.248,0.295
			C764.492,1660.771,764.578,1660.674,764.66,1660.573z M756.695,1671.187c-0.092,0.137-0.184,0.278-0.271,0.42
			C756.511,1671.467,756.603,1671.325,756.695,1671.187z M754.984,1673.829c-0.129,0.204-0.254,0.408-0.381,0.613
			C754.728,1674.237,754.855,1674.033,754.984,1673.829z M753.33,1676.532c-0.137,0.232-0.277,0.465-0.412,0.7
			C753.052,1676.998,753.191,1676.765,753.33,1676.532z M751.722,1679.318c-0.129,0.231-0.26,0.464-0.391,0.696
			C751.462,1679.782,751.591,1679.55,751.722,1679.318z M750.142,1682.233c-0.102,0.199-0.205,0.389-0.307,0.584
			C749.937,1682.622,750.041,1682.431,750.142,1682.233z M748.501,1685.482c-0.031,0.054-0.057,0.112-0.086,0.167
			C748.443,1685.595,748.47,1685.54,748.501,1685.482z M745.751,1691.562c-0.086,0.207-0.168,0.415-0.254,0.626
			C745.583,1691.979,745.662,1691.769,745.751,1691.562z"/>
		<path fill="#FCBB00" d="M207.96,1659.218c-72.681,0-132.61-32.73-132.61-73.104c0-40.375,59.934-73.106,132.612-73.106
			C281.572,1513.007,281.572,1659.218,207.96,1659.218z"/>
		<path fill="#FFD85A" d="M391.57,1443.774c35.893,0,64.989,29.098,64.989,64.991s-29.097,64.991-64.989,64.991
			c-35.896,0-64.992-29.098-64.992-64.991S355.673,1443.774,391.57,1443.774z"/>
		<g id="wing_1_">
			<path fill="#F7C657" d="M805.646,1580.017c16.262,49.009-19.188,104.842-79.166,124.744
				c-59.977,19.904-121.775-3.658-138.039-52.666C574.531,1577.976,773.507,1506.043,805.646,1580.017z"/>
			<path fill="#F9B946" d="M805.816,1580.817c-9.033-20.789-31.242-30.054-58.201-30.986c10.414,5.031,18.506,12.652,23.135,23.305
				c16.26,49.008-19.189,104.842-79.166,124.742c-17.352,5.758-34.852,7.873-51.363,6.79c25.168,9.898,56.031,10.981,86.43,0.894
				C786.628,1685.661,822.076,1629.827,805.816,1580.817z"/>
			
				<path fill="none" stroke="#6F0F11" stroke-width="10.2498" stroke-linecap="round" stroke-linejoin="round" stroke-miterlimit="10" d="
				M806.619,1580.649c16.26,49.008-19.189,104.842-79.166,124.746c-59.979,19.9-121.777-3.66-138.039-52.672
				C575.501,1578.608,774.476,1506.675,806.619,1580.649z"/>
		</g>
		<path fill="#F4AF03" d="M233.625,1518.392c13.809,43.195-2.983,104.133-50.403,104.133c-44.596,0-83.928-12.07-107.944-30.59
			c7.428,36.48,63.405,64.836,131.765,64.836C270.184,1656.771,279.044,1548.72,233.625,1518.392z"/>
		
			<path fill="none" stroke="#6F0F11" stroke-width="10.2498" stroke-linecap="round" stroke-linejoin="round" stroke-miterlimit="10" d="
			M205.631,1656.771c-73.612,0-132.612-32.73-132.612-73.105c0-40.376,59-73.105,132.612-73.105
			C279.243,1510.56,279.243,1656.771,205.631,1656.771z"/>
		<g id="eyes_1_">
			<g>
				<g>
					<path fill="#FFFFFF" d="M441.625,1507.056c-3.051,30.477-30.739,52.646-61.837,49.532
						c-31.103-3.116-53.831-30.341-50.777-60.816c3.055-30.477,30.732-52.647,61.838-49.531
						C421.944,1449.354,444.678,1476.581,441.625,1507.056z"/>
				</g>
				<path fill="none" stroke="#580703" stroke-width="10.2498" stroke-miterlimit="10" d="M441.625,1507.056
					c-3.051,30.477-30.739,52.646-61.837,49.532c-31.103-3.116-53.831-30.341-50.777-60.816
					c3.055-30.477,30.732-52.647,61.838-49.531C421.944,1449.354,444.678,1476.581,441.625,1507.056z"/>
				<path fill="#E5D8D8" d="M413.804,1460.047c8.21,9.905,12.607,22.897,11.244,36.628c-2.717,27.414-27.367,47.355-55.056,44.553
					c-8.595-0.869-16.465-3.834-23.155-8.319c8.178,9.876,20.145,16.682,33.967,18.083c27.687,2.801,52.34-17.144,55.061-44.557
					C437.743,1487.527,428.685,1470.015,413.804,1460.047z"/>
			</g>
			
				<path fill="none" stroke="#FFFFFF" stroke-width="10.2498" stroke-linecap="round" stroke-linejoin="round" stroke-miterlimit="10" d="
				M159.788,1541.554c3.767-1.007,10.989-2.934,22.175-4.43"/>
			
				<path fill="none" stroke="#FFFFFF" stroke-width="10.2498" stroke-linecap="round" stroke-linejoin="round" stroke-miterlimit="10" d="
				M133.281,1549.646c2.449-0.958,4.919-1.865,7.405-2.714"/>
		</g>
	</g>
</g>
<g id="light_1_">
</g>
</svg>
