<?xml version="1.0" encoding="utf-8"?>
<!-- Generator: Adobe Illustrator 16.0.0, SVG Export Plug-In . SVG Version: 6.00 Build 0)  -->
<!DOCTYPE svg PUBLIC "-//W3C//DTD SVG 1.1//EN" "http://www.w3.org/Graphics/SVG/1.1/DTD/svg11.dtd">
<svg version="1.1" id="duck" xmlns="http://www.w3.org/2000/svg" xmlns:xlink="http://www.w3.org/1999/xlink" x="0px" y="0px"
	 width="982.084px" height="721.427px" viewBox="0 0 982.084 721.427" enable-background="new 0 0 982.084 721.427"
	 xml:space="preserve">
<path fill="#FFE653" d="M977.584,416.18c0-71.655-58.014-129.744-129.576-129.744c-31.092,0-59.621,10.968-81.949,29.245
	c-22.592,14.479-50.846,21.176-80.143,16.811c-54.352-8.097-94.215-51.531-97.318-101.791
	C595.614,121.963,518.179,24.185,408.457,7.84C296.608-8.822,192.183,65.237,169.81,174.721c0.27-1.32-8.572,33.085-11.447,52.381
	C123.697,459.807,284.24,676.554,516.946,711.22c188.746,28.116,366.984-72.192,446.087-235.265
	C972.326,458.064,977.584,437.738,977.584,416.18z M758.17,322.688c-0.004,0.005-0.01,0.01-0.016,0.015
	C758.16,322.699,758.166,322.693,758.17,322.688z M755.77,325.066c-0.098,0.099-0.193,0.199-0.291,0.297
	C755.576,325.265,755.672,325.165,755.77,325.066z M753.412,327.523c-0.127,0.135-0.254,0.271-0.381,0.408
	C753.158,327.795,753.285,327.659,753.412,327.523z M751.086,330.077c-0.123,0.14-0.248,0.279-0.371,0.419
	C750.838,330.356,750.963,330.217,751.086,330.077z M748.762,332.77c-0.088,0.106-0.178,0.21-0.266,0.316
	C748.584,332.98,748.674,332.876,748.762,332.77z M740.217,344.159c-0.1,0.149-0.197,0.301-0.295,0.451
	C740.02,344.46,740.117,344.309,740.217,344.159z M738.379,346.996c-0.139,0.218-0.273,0.438-0.41,0.658
	C738.105,347.434,738.24,347.214,738.379,346.996z M736.604,349.896c-0.148,0.249-0.297,0.499-0.443,0.75
	C736.307,350.396,736.455,350.146,736.604,349.896z M734.879,352.886c-0.139,0.249-0.279,0.497-0.418,0.748
	C734.6,353.383,734.74,353.135,734.879,352.886z M733.184,356.017c-0.109,0.209-0.221,0.417-0.33,0.626
	C732.963,356.433,733.074,356.226,733.184,356.017z M731.422,359.5c-0.031,0.061-0.061,0.121-0.092,0.182
	C731.361,359.621,731.391,359.562,731.422,359.5z M728.471,366.023c-0.092,0.224-0.182,0.449-0.273,0.674
	C728.289,366.473,728.377,366.247,728.471,366.023z M727.203,369.173c-0.127,0.323-0.246,0.648-0.369,0.973
	C726.957,369.821,727.076,369.496,727.203,369.173z M726.012,372.371c-0.133,0.366-0.26,0.733-0.389,1.102
	C725.752,373.104,725.879,372.737,726.012,372.371z M724.895,375.626c-0.125,0.382-0.25,0.765-0.371,1.148
	C724.645,376.391,724.77,376.008,724.895,375.626z M723.852,378.955c-0.111,0.377-0.227,0.753-0.336,1.131
	C723.625,379.708,723.74,379.332,723.852,378.955z M722.871,382.416c-0.09,0.334-0.184,0.665-0.27,1
	C722.688,383.081,722.781,382.75,722.871,382.416z M721.881,386.336c-0.035,0.146-0.072,0.289-0.105,0.435
	C721.809,386.625,721.846,386.481,721.881,386.336z M721.031,390.194c-0.051,0.253-0.096,0.508-0.145,0.762
	C720.936,390.702,720.98,390.447,721.031,390.194z M720.389,393.602c-0.068,0.399-0.131,0.801-0.197,1.2
	C720.258,394.402,720.32,394.001,720.389,393.602z M719.836,397.043c-0.066,0.451-0.127,0.903-0.189,1.355
	C719.709,397.946,719.77,397.494,719.836,397.043z M719.371,400.527c-0.057,0.471-0.109,0.943-0.162,1.416
	C719.262,401.471,719.314,400.998,719.371,400.527z M718.998,404.059c-0.045,0.474-0.088,0.947-0.127,1.422
	C718.91,405.006,718.953,404.532,718.998,404.059z M718.715,407.666c-0.029,0.454-0.062,0.908-0.086,1.364
	C718.652,408.574,718.686,408.12,718.715,407.666z M718.525,411.438c-0.014,0.386-0.033,0.771-0.045,1.157
	C718.492,412.208,718.512,411.823,718.525,411.438z"/>
<path fill="#F9DA55" d="M847.008,286.436c-31.092,0-59.621,10.968-81.949,29.245c-22.592,14.479-50.846,21.176-80.143,16.811
	c-54.352-8.097-94.215-51.531-97.318-101.791c6.746-104.565-64.605-198.98-167.66-220.609
	c64.202,61.669,83.831,158.917,45.254,241.799c-15.339,47.962,3.807,107.277,53.768,130.158
	c216.056,98.949,178.056,324.949,28.703,332.686c176.755,13.102,339.714-84.875,414.371-238.779
	c9.293-17.891,14.551-38.217,14.551-59.775C976.584,344.524,918.57,286.436,847.008,286.436z"/>
<path fill="none" stroke="#6F0F11" stroke-width="11" stroke-miterlimit="10" d="M976.584,416.18
	c0-71.655-58.014-129.744-129.576-129.744c-31.092,0-59.621,10.968-81.949,29.245c-22.592,14.479-50.846,21.176-80.143,16.811
	c-54.352-8.097-94.215-51.531-97.318-101.791C594.614,121.963,517.179,24.185,407.458,7.84
	C295.608-8.822,191.183,65.237,168.81,174.721c0.27-1.32-8.572,33.085-11.447,52.381C122.697,459.807,283.24,676.554,515.946,711.22
	c188.746,28.116,366.984-72.192,446.087-235.265C971.326,458.064,976.584,437.738,976.584,416.18z M757.17,322.688
	c-0.004,0.005-0.01,0.01-0.016,0.015C757.16,322.699,757.166,322.693,757.17,322.688z M754.77,325.066
	c-0.098,0.099-0.193,0.199-0.291,0.297C754.576,325.265,754.672,325.165,754.77,325.066z M752.412,327.523
	c-0.127,0.135-0.254,0.271-0.381,0.408C752.158,327.795,752.285,327.659,752.412,327.523z M750.086,330.077
	c-0.123,0.14-0.248,0.279-0.371,0.419C749.838,330.356,749.963,330.217,750.086,330.077z M747.762,332.77
	c-0.088,0.106-0.178,0.21-0.266,0.316C747.584,332.98,747.674,332.876,747.762,332.77z M739.217,344.159
	c-0.1,0.149-0.197,0.301-0.295,0.451C739.02,344.46,739.117,344.309,739.217,344.159z M737.379,346.996
	c-0.139,0.218-0.273,0.438-0.41,0.658C737.105,347.434,737.24,347.214,737.379,346.996z M735.604,349.896
	c-0.148,0.249-0.297,0.499-0.443,0.75C735.307,350.396,735.455,350.146,735.604,349.896z M733.879,352.886
	c-0.139,0.249-0.279,0.497-0.418,0.748C733.6,353.383,733.74,353.135,733.879,352.886z M732.184,356.017
	c-0.109,0.209-0.221,0.417-0.33,0.626C731.963,356.433,732.074,356.226,732.184,356.017z M730.422,359.5
	c-0.031,0.061-0.061,0.121-0.092,0.182C730.361,359.621,730.391,359.562,730.422,359.5z M727.471,366.023
	c-0.092,0.224-0.182,0.449-0.273,0.674C727.289,366.473,727.377,366.247,727.471,366.023z"/>
<path fill="#FCBB00" d="M150.318,331.314C72.318,331.314,8,296.188,8,252.858s64.319-78.456,142.319-78.456
	C229.318,174.402,229.318,331.314,150.318,331.314z"/>
<circle fill="#FFD85A" cx="347.364" cy="169.849" r="69.747"/>
<g id="wing">
	<path fill="#F7C657" d="M791.752,246.316c17.451,52.595-20.594,112.516-84.961,133.874
		c-64.369,21.361-130.688-3.926-148.141-56.522C543.72,244.125,757.26,166.928,791.752,246.316z"/>
	<path fill="#F9B946" d="M791.932,247.176c-9.693-22.311-33.529-32.254-62.459-33.254c11.174,5.398,19.859,13.578,24.826,25.01
		c17.451,52.595-20.592,112.515-84.961,133.874c-18.621,6.179-37.402,8.447-55.119,7.287c27.01,10.622,60.129,11.784,92.754,0.958
		C771.34,359.691,809.383,299.772,791.932,247.176z"/>
	<path fill="none" stroke="#6F0F11" stroke-width="11" stroke-linecap="round" stroke-linejoin="round" stroke-miterlimit="10" d="
		M792.793,246.996c17.451,52.595-20.594,112.515-84.961,133.875c-64.369,21.36-130.689-3.927-148.142-56.524
		C544.761,244.804,758.299,167.607,792.793,246.996z"/>
</g>
<path fill="#F4AF03" d="M177.86,180.181c14.821,46.357-3.201,111.754-54.09,111.754c-47.863,0-90.071-12.954-115.846-32.829
	c7.971,39.151,68.046,69.583,141.41,69.583C217.095,328.689,226.604,212.728,177.86,180.181z"/>
<path fill="none" stroke="#6F0F11" stroke-width="11" stroke-linecap="round" stroke-linejoin="round" stroke-miterlimit="10" d="
	M147.818,328.689c-79,0-142.318-35.126-142.318-78.457s63.318-78.456,142.318-78.456S226.818,328.689,147.818,328.689z"/>
<g id="eyes">
	<g>
		<g>
			<path fill="#FFFFFF" d="M401.086,168.015c-3.275,32.706-32.992,56.5-66.365,53.157c-33.379-3.345-57.77-32.562-54.494-65.268
				c3.278-32.707,32.982-56.502,66.365-53.157C379.961,106.09,404.362,135.309,401.086,168.015z"/>
		</g>
		<path fill="none" stroke="#580703" stroke-width="11" stroke-miterlimit="10" d="M401.086,168.015
			c-3.275,32.706-32.992,56.5-66.365,53.157c-33.379-3.345-57.77-32.562-54.494-65.268c3.278-32.707,32.982-56.502,66.365-53.157
			C379.961,106.09,404.362,135.309,401.086,168.015z"/>
		<path fill="#E5D8D8" d="M371.227,117.565c8.811,10.631,13.53,24.575,12.066,39.31c-2.913,29.42-29.37,50.821-59.084,47.813
			c-9.223-0.933-17.668-4.115-24.851-8.928c8.778,10.599,21.62,17.902,36.454,19.406c29.714,3.006,56.171-18.398,59.091-47.818
			C396.917,147.057,387.198,128.263,371.227,117.565z"/>
	</g>
	<path fill="none" stroke="#FFFFFF" stroke-width="11" stroke-linecap="round" stroke-linejoin="round" stroke-miterlimit="10" d="
		M98.619,205.037c4.041-1.08,11.793-3.148,23.798-4.755"/>
	<path fill="none" stroke="#FFFFFF" stroke-width="11" stroke-linecap="round" stroke-linejoin="round" stroke-miterlimit="10" d="
		M70.173,213.723c2.627-1.03,5.277-2.001,7.947-2.913"/>
</g>
</svg>
