<?xml version="1.0" encoding="utf-8"?>
<!-- Generator: Adobe Illustrator 16.0.0, SVG Export Plug-In . SVG Version: 6.00 Build 0)  -->
<!DOCTYPE svg PUBLIC "-//W3C//DTD SVG 1.1//EN" "http://www.w3.org/Graphics/SVG/1.1/DTD/svg11.dtd">
<svg version="1.1" id="Layer_1" xmlns="http://www.w3.org/2000/svg" xmlns:xlink="http://www.w3.org/1999/xlink" x="0px" y="0px"
	 width="1190px" height="1087px" viewBox="-16.962 0 1190 1087" enable-background="new -16.962 0 1190 1087" xml:space="preserve">
<g id="Layer_2">
	
		<circle fill="#DDFEFD" stroke="#6F0F11" stroke-width="11" stroke-linecap="round" stroke-linejoin="round" stroke-miterlimit="10" cx="609.681" cy="538" r="538"/>
</g>
<g id="duck">
	<path fill="#FFE653" d="M1045.353,480.9c0-76.834-62.207-139.122-138.943-139.122c-33.34,0-63.93,11.761-87.871,31.357
		c-24.225,15.524-54.521,22.706-85.938,18.026c-58.279-8.684-101.023-55.257-104.354-109.149
		c7.525-116.599-75.508-221.444-193.161-238.971C315.153,25.176,203.18,104.588,179.19,221.987
		c0.29-1.416-9.192,35.477-12.274,56.167C129.744,527.68,301.892,760.093,551.42,797.266
		c202.388,30.149,393.509-77.407,478.332-252.271C1039.716,525.812,1045.353,504.018,1045.353,480.9z M810.08,380.649
		c-0.004,0.008-0.01,0.013-0.018,0.018C810.07,380.663,810.076,380.657,810.08,380.649z M807.505,383.2
		c-0.105,0.104-0.207,0.213-0.312,0.317C807.298,383.413,807.4,383.306,807.505,383.2z M804.978,385.835
		c-0.137,0.144-0.273,0.29-0.408,0.438C804.705,386.126,804.841,385.98,804.978,385.835z M802.482,388.573
		c-0.131,0.148-0.264,0.299-0.395,0.449C802.218,388.872,802.351,388.723,802.482,388.573z M799.992,391.46
		c-0.094,0.114-0.191,0.226-0.285,0.339C799.8,391.686,799.898,391.575,799.992,391.46z M790.828,403.674
		c-0.105,0.157-0.211,0.32-0.314,0.482C790.617,403.995,790.722,403.833,790.828,403.674z M788.859,406.714
		c-0.15,0.234-0.295,0.47-0.441,0.706C788.564,407.184,788.708,406.949,788.859,406.714z M786.953,409.825
		c-0.156,0.267-0.316,0.534-0.473,0.805C786.636,410.361,786.794,410.093,786.953,409.825z M785.105,413.031
		c-0.15,0.266-0.301,0.533-0.449,0.801C784.804,413.564,784.955,413.296,785.105,413.031z M783.287,416.387
		c-0.115,0.228-0.236,0.447-0.354,0.672C783.05,416.833,783.171,416.613,783.287,416.387z M781.398,420.124
		c-0.035,0.062-0.066,0.13-0.098,0.193C781.332,420.253,781.363,420.19,781.398,420.124z M778.232,427.119
		c-0.098,0.239-0.193,0.479-0.291,0.722C778.039,427.6,778.132,427.358,778.232,427.119z M776.875,430.496
		c-0.137,0.347-0.266,0.693-0.396,1.044C776.609,431.189,776.738,430.842,776.875,430.496z M775.597,433.926
		c-0.145,0.393-0.279,0.785-0.418,1.182C775.318,434.711,775.453,434.317,775.597,433.926z M774.4,437.415
		c-0.137,0.41-0.27,0.82-0.398,1.231C774.13,438.235,774.263,437.825,774.4,437.415z M773.281,440.984
		c-0.119,0.403-0.242,0.808-0.359,1.214C773.039,441.792,773.162,441.389,773.281,440.984z M772.228,444.696
		c-0.096,0.356-0.197,0.712-0.289,1.07C772.031,445.408,772.132,445.054,772.228,444.696z M771.166,448.9
		c-0.035,0.155-0.076,0.309-0.109,0.466C771.089,449.208,771.128,449.055,771.166,448.9z M770.255,453.036
		c-0.055,0.271-0.104,0.544-0.154,0.815C770.154,453.58,770.201,453.308,770.255,453.036z M769.568,456.69
		c-0.074,0.428-0.143,0.856-0.211,1.285C769.425,457.548,769.494,457.118,769.568,456.69z M768.974,460.38
		c-0.07,0.483-0.137,0.967-0.203,1.453C768.837,461.347,768.904,460.864,768.974,460.38z M768.474,464.116
		c-0.061,0.505-0.117,1.011-0.172,1.52C768.357,465.128,768.416,464.621,768.474,464.116z M768.076,467.904
		c-0.049,0.508-0.096,1.015-0.137,1.522C767.98,468.918,768.027,468.41,768.076,467.904z M767.771,471.77
		c-0.031,0.486-0.064,0.978-0.092,1.466C767.707,472.746,767.74,472.256,767.771,471.77z M767.568,475.815
		c-0.016,0.412-0.033,0.825-0.047,1.237C767.535,476.64,767.554,476.227,767.568,475.815z"/>
	<path fill="#F9DA55" d="M905.337,341.778c-33.34,0-63.932,11.761-87.871,31.357c-24.227,15.524-54.523,22.706-85.938,18.026
		c-58.279-8.684-101.023-55.257-104.355-109.149c7.234-112.123-69.27-213.362-179.776-236.556
		c68.843,66.127,89.893,170.405,48.525,259.278c-16.448,51.429,4.082,115.031,57.653,139.567
		C785.25,550.404,744.501,792.74,584.353,801.034c189.529,14.049,364.271-91.01,444.322-256.04
		c9.965-19.186,15.604-40.979,15.604-64.096C1044.281,404.065,982.074,341.778,905.337,341.778z"/>
	<path fill="none" stroke="#6F0F11" stroke-width="11.7951" stroke-miterlimit="10" d="M1044.281,480.9
		c0-76.834-62.207-139.122-138.941-139.122c-33.342,0-63.932,11.761-87.873,31.357c-24.225,15.524-54.52,22.706-85.938,18.026
		c-58.279-8.684-101.021-55.257-104.352-109.149c7.521-116.599-75.51-221.444-193.161-238.971
		c-119.936-17.867-231.909,61.545-255.898,178.944c0.29-1.416-9.192,35.477-12.274,56.167
		c-37.172,249.527,134.975,481.94,384.503,519.113c202.389,30.149,393.51-77.407,478.333-252.271
		C1038.644,525.812,1044.281,504.018,1044.281,480.9z M809.007,380.649c-0.006,0.008-0.012,0.013-0.018,0.018
		C808.996,380.663,809.003,380.657,809.007,380.649z M806.433,383.2c-0.105,0.104-0.207,0.213-0.312,0.317
		C806.226,383.413,806.328,383.306,806.433,383.2z M803.906,385.835c-0.137,0.144-0.271,0.29-0.408,0.438
		C803.632,386.126,803.769,385.98,803.906,385.835z M801.41,388.573c-0.131,0.148-0.266,0.299-0.395,0.449
		C801.144,388.872,801.279,388.723,801.41,388.573z M798.919,391.46c-0.094,0.114-0.191,0.226-0.285,0.339
		C798.728,391.686,798.826,391.575,798.919,391.46z M789.755,403.674c-0.105,0.157-0.211,0.32-0.314,0.482
		C789.544,403.995,789.65,403.833,789.755,403.674z M787.787,406.714c-0.148,0.234-0.293,0.47-0.439,0.706
		C787.492,407.184,787.636,406.949,787.787,406.714z M785.882,409.825c-0.158,0.267-0.318,0.534-0.477,0.805
		C785.564,410.361,785.722,410.093,785.882,409.825z M784.033,413.031c-0.148,0.266-0.299,0.533-0.449,0.801
		C783.734,413.564,783.882,413.296,784.033,413.031z M782.214,416.387c-0.117,0.228-0.236,0.447-0.354,0.672
		C781.978,416.833,782.097,416.613,782.214,416.387z M780.326,420.124c-0.035,0.062-0.064,0.13-0.098,0.193
		C780.259,420.253,780.291,420.19,780.326,420.124z M777.162,427.119c-0.1,0.239-0.193,0.479-0.293,0.722
		C776.966,427.6,777.06,427.358,777.162,427.119z"/>
	<path fill="#FCBB00" d="M158.289,389.899c-83.638,0-152.604-37.664-152.604-84.126c0-46.462,68.968-84.128,152.605-84.128
		C243,221.645,243,389.899,158.289,389.899z"/>
	<circle fill="#FFD85A" cx="369.579" cy="216.764" r="74.789"/>
	<g id="wing">
		<path fill="#F7C657" d="M846.087,298.758c18.713,56.397-22.082,120.648-91.102,143.551
			c-69.021,22.905-140.137-4.209-158.852-60.606C580.127,296.409,809.103,213.631,846.087,298.758z"/>
		<path fill="#F9B946" d="M846.281,299.679c-10.393-23.923-35.951-34.585-66.975-35.658c11.982,5.789,21.297,14.56,26.623,26.818
			c18.711,56.397-22.082,120.649-91.104,143.55c-19.967,6.626-40.105,9.06-59.105,7.813c28.963,11.392,64.477,12.638,99.459,1.028
			C824.201,420.33,864.994,356.078,846.281,299.679z"/>
		
			<path fill="none" stroke="#6F0F11" stroke-width="11.7951" stroke-linecap="round" stroke-linejoin="round" stroke-miterlimit="10" d="
			M847.205,299.487c18.713,56.396-22.082,120.648-91.102,143.552c-69.021,22.902-140.137-4.212-158.85-60.612
			C581.244,297.137,810.216,214.359,847.205,299.487z"/>
	</g>
	<path fill="#F4AF03" d="M187.822,227.842c15.893,49.708-3.432,119.833-58,119.833c-51.322,0-96.582-13.891-124.22-35.203
		c8.547,41.981,72.965,74.613,151.631,74.613C229.894,387.084,240.089,262.742,187.822,227.842z"/>
	
		<path fill="none" stroke="#6F0F11" stroke-width="11.7951" stroke-linecap="round" stroke-linejoin="round" stroke-miterlimit="10" d="
		M155.608,387.084c-84.71,0-152.605-37.665-152.605-84.127c0-46.464,67.895-84.128,152.605-84.128
		C240.319,218.829,240.319,387.084,155.608,387.084z"/>
	<g id="eyes">
		<g>
			<g>
				<path fill="#FFFFFF" d="M427.184,214.797c-3.512,35.07-35.376,60.584-71.162,57c-35.792-3.587-61.946-34.916-58.433-69.986
					c3.515-35.071,35.366-60.586,71.162-56.999C404.532,148.395,430.697,179.727,427.184,214.797z"/>
			</g>
			<path fill="none" stroke="#580703" stroke-width="11.7951" stroke-miterlimit="10" d="M427.184,214.797
				c-3.512,35.07-35.376,60.584-71.162,57c-35.792-3.587-61.946-34.916-58.433-69.986c3.515-35.071,35.366-60.586,71.162-56.999
				C404.532,148.395,430.697,179.727,427.184,214.797z"/>
			<path fill="#E5D8D8" d="M395.167,160.7c9.448,11.399,14.508,26.351,12.938,42.151c-3.124,31.546-31.493,54.494-63.354,51.269
				c-9.89-1-18.945-4.412-26.647-9.573c9.412,11.365,23.183,19.196,39.089,20.809c31.862,3.223,60.231-19.728,63.362-51.275
				C422.714,192.324,412.292,172.171,395.167,160.7z"/>
		</g>
		
			<path fill="none" stroke="#FFFFFF" stroke-width="11.7951" stroke-linecap="round" stroke-linejoin="round" stroke-miterlimit="10" d="
			M102.853,254.495c4.333-1.158,12.646-3.375,25.518-5.098"/>
		
			<path fill="none" stroke="#FFFFFF" stroke-width="11.7951" stroke-linecap="round" stroke-linejoin="round" stroke-miterlimit="10" d="
			M72.351,263.809c2.817-1.104,5.659-2.146,8.521-3.124"/>
	</g>
</g>
</svg>
