<?xml version="1.0" encoding="utf-8"?>
<!-- Generator: Adobe Illustrator 16.0.0, SVG Export Plug-In . SVG Version: 6.00 Build 0)  -->
<!DOCTYPE svg PUBLIC "-//W3C//DTD SVG 1.1//EN" "http://www.w3.org/Graphics/SVG/1.1/DTD/svg11.dtd">
<svg version="1.1" xmlns="http://www.w3.org/2000/svg" xmlns:xlink="http://www.w3.org/1999/xlink" x="0px" y="0px"
	 width="364.746px" height="271.795px" viewBox="0 0 364.746 271.795" enable-background="new 0 0 364.746 271.795"
	 xml:space="preserve">
<g id="Layer_1">
</g>
<g id="eggs">
	<g>
		<path fill="#FFFFFF" d="M229.008,13.949c100.614,7.28,11.307,108.282,86.107,127.659c74.805,19.374,60.517,137.597-37.648,106.896
			c-66.798-20.891-95.069,52.683-149.485,4.604c-36.082-31.879,3.552-90.772-78.01-83.004
			C-31.59,177.875-5.849-35.372,102.669,7.914C193.901,44.307,188.909,11.048,229.008,13.949z"/>
		<circle fill="#F8E46B" cx="182.324" cy="128.551" r="68.181"/>
		<path fill="#F9D832" d="M198.845,61.384c22.578,11.111,38.119,34.336,38.119,61.2c0,37.656-30.525,68.182-68.18,68.182
			c-5.698,0-11.229-0.712-16.521-2.027c9.069,4.464,19.27,6.98,30.062,6.98c37.654,0,68.18-30.526,68.18-68.182
			C250.505,95.581,228.515,68.77,198.845,61.384z"/>
		
			<circle fill="none" stroke="#580703" stroke-width="4.164" stroke-linecap="round" stroke-linejoin="round" stroke-miterlimit="10" cx="182.324" cy="128.551" r="68.181"/>
		
			<path fill="none" stroke="#FFFFFF" stroke-width="4.164" stroke-linecap="round" stroke-linejoin="round" stroke-miterlimit="10" d="
			M144.842,90.182c3.087-4.305,7.923-8.294,12.406-10.15"/>
		
			<path fill="none" stroke="#FFFFFF" stroke-width="4.164" stroke-linecap="round" stroke-linejoin="round" stroke-miterlimit="10" d="
			M134.126,103.65c0.475-1.164,1.971-3.409,3.026-4.562"/>
		<circle fill="#511B1B" cx="149.112" cy="129.74" r="5.581"/>
		<circle fill="#511B1B" cx="206.527" cy="129.74" r="5.58"/>
		<path fill="#511B1B" d="M192.638,142.847c0,8.103-6.567,14.669-14.67,14.669c-8.102,0-14.67-6.566-14.67-14.669
			C163.298,134.746,192.638,134.746,192.638,142.847z"/>
		<g>
			<path fill="#F4F0E1" d="M271.328,30.351c8.879,26.869-5.94,65.371,14.25,86.432C276.806,90.067,291.543,51.605,271.328,30.351z"
				/>
			<path fill="#F4F0E1" d="M42.706,157.267c-14.181,1.353-25.115-3.982-32.938-13.486c7.419,17.874,21.02,29.464,41.18,27.543
				c25.342-2.414,38.979,1.609,46.827,9.257C92.512,164.606,80.892,153.63,42.706,157.267z"/>
			<path fill="#F4F0E1" d="M350.659,164.751c16.538,39.644-10.89,92.675-80.457,70.916c-66.797-20.891-95.07,52.683-149.484,4.604
				c-1.852-1.635-3.493-3.347-4.974-5.111c2.737,6.896,6.76,13.464,13.214,19.167c54.416,48.076,82.688-25.496,149.486-4.603
				C356.698,274.2,381.647,204.037,350.659,164.751z"/>
		</g>
		
			<path fill="none" stroke="#580703" stroke-width="4.164" stroke-linecap="round" stroke-linejoin="round" stroke-miterlimit="10" d="
			M229.058,13.922c100.612,7.279,11.304,108.282,86.108,127.656c74.803,19.377,60.517,137.6-37.649,106.899
			c-66.796-20.893-95.07,52.681-149.485,4.604c-36.082-31.881,3.551-90.777-78.011-83.006C0.476,174.796-9.474,97.958,14.675,46.612
			c1.107-2.355,2.285-4.656,3.536-6.894c0.287-0.514,0.577-1.023,0.872-1.53C35.584,9.8,63.839-7.623,102.719,7.888
			C193.952,44.28,188.96,11.021,229.058,13.922z"/>
	</g>
</g>
</svg>
