<?xml version="1.0" encoding="utf-8"?>
<!-- Generator: Adobe Illustrator 16.0.0, SVG Export Plug-In . SVG Version: 6.00 Build 0)  -->
<!DOCTYPE svg PUBLIC "-//W3C//DTD SVG 1.1//EN" "http://www.w3.org/Graphics/SVG/1.1/DTD/svg11.dtd">
<svg version="1.1" id="light_1_" xmlns="http://www.w3.org/2000/svg" xmlns:xlink="http://www.w3.org/1999/xlink" x="0px" y="0px"
	 width="1359.98px" height="1087px" viewBox="1457.735 1241.751 1359.98 1087"
	 enable-background="new 1457.735 1241.751 1359.98 1087" xml:space="preserve">
<g id="Layer_2_3_">
	
		<circle fill="#DDFEFD" stroke="#6F0F11" stroke-width="9.5588" stroke-linecap="round" stroke-linejoin="round" stroke-miterlimit="10" cx="2142.897" cy="1788.06" r="467.513"/>
</g>
<g id="light">
	<path fill="#E7E4ED" d="M2267.641,2071.694c0,41.479-33.621,75.103-75.104,75.103h-97.658c-41.479,0-75.102-33.626-75.102-75.103
		v-61.605c0-41.48,33.623-75.103,75.102-75.103h97.658c41.482,0,75.105,33.623,75.105,75.103L2267.641,2071.694L2267.641,2071.694z"
		/>
	<path fill="#D1D7DB" d="M2191.417,1934.986h-7.355c16.164,13.775,26.432,34.267,26.432,57.172v61.607
		c0,41.478-33.625,75.102-75.105,75.102h-90.299c13.109,11.172,30.096,17.93,48.674,17.93h97.654
		c41.484,0,75.104-33.626,75.104-75.103v-61.605C2266.52,1968.609,2232.897,1934.986,2191.417,1934.986z"/>
	
		<path fill="none" stroke="#6F0F11" stroke-width="11.194" stroke-linecap="round" stroke-linejoin="round" stroke-miterlimit="10" d="
		M2267.641,2069.451c0,41.479-33.621,75.102-75.104,75.102h-97.656c-41.479,0-75.102-33.624-75.102-75.102v-61.606
		c0-41.479,33.623-75.102,75.102-75.102h97.656c41.482,0,75.105,33.623,75.105,75.102L2267.641,2069.451L2267.641,2069.451z"/>
	<path fill="#FDE87D" d="M2143.518,1250.902c-160.746,0-291.51,130.772-291.51,291.501c0,66.641,57.027,172.406,59.768,177.4
		l67.82,108.886c1.928,3.806,20.156,40.693,20.156,73.708c0,0-12.912,79.287,25.91,85.53c9.641,2.159,225.355,0.759,235.703-0.021
		c42.6,1.621,25.908-85.51,25.908-85.51c0-32.891,18.248-69.922,20.166-73.717l68.121-109.394
		c2.439-4.463,59.475-110.228,59.475-176.879C2435.032,1381.675,2304.266,1250.902,2143.518,1250.902z"/>
	<path fill="#F9D84B" d="M2142.397,1251.994c-10.086,0-20.055,0.517-29.883,1.52c135.463,25.049,238.383,144.046,238.389,286.635
		c0,66.649-57.033,172.415-59.475,176.878l-68.119,109.393c-1.918,3.796-20.168,40.832-20.168,73.718
		c0,0,16.691,87.132-25.908,85.512c-6.475,0.487-93.318,1.22-159.803,1.169c2.154,1.027,4.512,1.779,7.111,2.197
		c9.641,2.156,225.354,0.757,235.705-0.021c42.598,1.619,25.906-85.511,25.906-85.511c0-32.89,18.25-69.922,20.166-73.719
		l68.123-109.394c2.439-4.462,59.475-110.229,59.475-176.877C2433.909,1382.765,2303.147,1251.994,2142.397,1251.994z"/>
	
		<path fill="none" stroke="#6F0F11" stroke-width="11.194" stroke-linecap="round" stroke-linejoin="round" stroke-miterlimit="10" d="
		M2142.073,1249.764c-160.744,0.873-290.793,132.354-289.922,293.08c0.363,66.639,57.963,172.093,60.729,177.074l68.412,108.515
		c1.947,3.793,20.377,40.581,20.557,73.597c0,0-12.482,79.352,26.373,85.388c9.656,2.107,225.357-0.464,235.699-1.302
		c42.607,1.389,25.445-85.65,25.445-85.65c-0.178-32.89,17.867-70.021,19.766-73.828l67.527-109.763
		c2.416-4.475,58.875-110.549,58.514-177.197C2434.293,1378.951,2302.819,1248.89,2142.073,1249.764z"/>
	<g id="Isolation_Mode">
		<path fill="#C4F6FF" d="M2295.942,2021.28c0,21.354-17.311,38.663-38.662,38.663h-231.986c-21.354,0-38.662-17.312-38.662-38.663
			l0,0c0-21.357,17.311-38.664,38.662-38.664h231.984C2278.631,1982.616,2295.942,1999.925,2295.942,2021.28L2295.942,2021.28z"/>
		<path fill="#AEF5FC" d="M2258.395,1981.509h-70.582c13.494,6.036,22.904,19.568,22.904,35.307
			c0,21.354-17.314,38.664-38.668,38.664h-161.404c4.816,2.153,10.148,3.36,15.764,3.36h231.986
			c21.354,0,38.664-17.31,38.664-38.664C2297.059,1998.82,2279.747,1981.509,2258.395,1981.509z"/>
		
			<path fill="none" stroke="#6F0F11" stroke-width="11.194" stroke-linecap="round" stroke-linejoin="round" stroke-miterlimit="10" d="
			M2297.624,2020.148c0,21.354-17.314,38.661-38.664,38.661h-231.984c-21.354,0-38.664-17.311-38.664-38.661l0,0
			c0-21.358,17.311-38.665,38.664-38.665h231.984C2280.311,1981.483,2297.624,1998.794,2297.624,2020.148L2297.624,2020.148z"/>
	</g>
	<g id="highlight">
		
			<path fill="none" stroke="#FFFFFF" stroke-width="41.4617" stroke-linecap="round" stroke-linejoin="round" stroke-miterlimit="10" d="
			M2025.352,1388.188c21.824-19.663,46.527-36.191,73.396-48.883"/>
		
			<path fill="none" stroke="#FFFFFF" stroke-width="41.4617" stroke-linecap="round" stroke-linejoin="round" stroke-miterlimit="10" d="
			M1970.25,1463.396c3.941-5.916,8.086-11.684,12.426-17.296"/>
	</g>
</g>
</svg>
