<?xml version="1.0" encoding="utf-8"?>
<!-- Generator: Adobe Illustrator 16.0.0, SVG Export Plug-In . SVG Version: 6.00 Build 0)  -->
<!DOCTYPE svg PUBLIC "-//W3C//DTD SVG 1.1//EN" "http://www.w3.org/Graphics/SVG/1.1/DTD/svg11.dtd">
<svg version="1.1" id="light" xmlns="http://www.w3.org/2000/svg" xmlns:xlink="http://www.w3.org/1999/xlink" x="0px" y="0px"
	 width="532.29px" height="810.506px" viewBox="0 0 532.29 810.506" enable-background="new 0 0 532.29 810.506"
	 xml:space="preserve">
<path fill="#E7E4ED" d="M376.783,739.486c0,37.015-30.004,67.021-67.021,67.021h-87.148c-37.015,0-67.021-30.007-67.021-67.021
	v-54.976c0-37.017,30.006-67.021,67.021-67.021h87.148c37.018,0,67.021,30.005,67.021,67.021V739.486z"/>
<path fill="#D1D7DB" d="M308.762,617.489h-6.564c14.426,12.293,23.586,30.582,23.586,51.021v54.976
	c0,37.015-30.004,67.021-67.021,67.021h-80.583c11.699,9.97,26.858,16,43.435,16h87.148c37.018,0,67.021-30.007,67.021-67.021
	v-54.976C375.783,647.494,345.779,617.489,308.762,617.489z"/>
<path fill="none" stroke="#6F0F11" stroke-width="12" stroke-linecap="round" stroke-linejoin="round" stroke-miterlimit="10" d="
	M376.783,737.484c0,37.015-30.004,67.021-67.021,67.021h-87.147c-37.015,0-67.021-30.007-67.021-67.021v-54.976
	c0-37.017,30.006-67.021,67.021-67.021h87.147c37.018,0,67.021,30.005,67.021,67.021V737.484z"/>
<path fill="#FDE87D" d="M266.018,7.02c-143.45,0-260.142,116.7-260.142,260.133c0,59.469,50.891,153.853,53.335,158.311
	l60.523,97.165c1.72,3.396,17.988,36.314,17.988,65.776c0,0-11.524,70.755,23.121,76.326c8.604,1.929,201.104,0.679,210.34-0.018
	c38.014,1.446,23.121-76.309,23.121-76.309c0-29.35,16.285-62.397,17.996-65.784l60.791-97.624
	c2.178-3.982,53.076-98.366,53.076-157.844C526.16,123.72,409.467,7.02,266.018,7.02z"/>
<path fill="#F9D84B" d="M265.017,7.994c-9.001,0-17.897,0.461-26.666,1.357c120.885,22.353,212.729,128.545,212.736,255.79
	c0,59.477-50.898,153.861-53.076,157.843l-60.791,97.623c-1.711,3.387-17.998,36.436-17.998,65.785c0,0,14.895,77.754-23.119,76.309
	c-5.779,0.436-83.276,1.088-142.606,1.043c1.922,0.916,4.027,1.588,6.345,1.961c8.604,1.928,201.104,0.678,210.341-0.018
	c38.014,1.445,23.119-76.309,23.119-76.309c0-29.35,16.287-62.398,17.998-65.785l60.791-97.623
	c2.178-3.982,53.076-98.367,53.076-157.843C525.158,124.694,408.467,7.994,265.017,7.994z"/>
<path fill="none" stroke="#6F0F11" stroke-width="12" stroke-linecap="round" stroke-linejoin="round" stroke-miterlimit="10" d="
	M264.729,6.004C121.281,6.783,5.225,124.115,6.004,267.546c0.323,59.468,51.726,153.574,54.194,158.019l61.05,96.836
	c1.738,3.385,18.185,36.215,18.345,65.678c0,0-11.14,70.815,23.536,76.199c8.615,1.881,201.104-0.414,210.336-1.16
	c38.021,1.239,22.707-76.433,22.707-76.433c-0.16-29.35,15.945-62.485,17.639-65.882l60.26-97.953
	c2.156-3.994,52.541-98.653,52.219-158.129C525.502,121.29,408.176,5.225,264.729,6.004z"/>
<g id="Isolation_Mode">
	<path fill="#C4F6FF" d="M402.039,694.497c0,19.056-15.449,34.503-34.504,34.503H160.515c-19.056,0-34.503-15.447-34.503-34.503l0,0
		c0-19.057,15.448-34.504,34.503-34.504h207.021C386.59,659.993,402.039,675.44,402.039,694.497L402.039,694.497z"/>
	<path fill="#AEF5FC" d="M368.531,659.007h-62.986c12.041,5.385,20.438,17.46,20.438,31.505c0,19.056-15.449,34.503-34.504,34.503
		H147.444c4.297,1.922,9.055,2.999,14.066,2.999h207.021c19.055,0,34.504-15.447,34.504-34.503
		C403.035,674.454,387.586,659.007,368.531,659.007z"/>
	<path fill="none" stroke="#6F0F11" stroke-width="12" stroke-linecap="round" stroke-linejoin="round" stroke-miterlimit="10" d="
		M403.539,693.487c0,19.056-15.449,34.503-34.504,34.503H162.015c-19.056,0-34.503-15.447-34.503-34.503l0,0
		c0-19.057,15.448-34.504,34.503-34.504h207.021C388.09,658.983,403.539,674.431,403.539,693.487L403.539,693.487z"/>
</g>
<g id="highlight">
	<path fill="none" stroke="#FFFFFF" stroke-width="37" stroke-linecap="round" stroke-linejoin="round" stroke-miterlimit="10" d="
		M160.567,129.532c19.476-17.546,41.52-32.297,65.499-43.623"/>
	<path fill="none" stroke="#FFFFFF" stroke-width="37" stroke-linecap="round" stroke-linejoin="round" stroke-miterlimit="10" d="
		M111.394,196.646c3.518-5.279,7.218-10.426,11.089-15.434"/>
</g>
</svg>
