<?xml version="1.0" encoding="utf-8"?>
<!-- Generator: Adobe Illustrator 16.0.0, SVG Export Plug-In . SVG Version: 6.00 Build 0)  -->
<!DOCTYPE svg PUBLIC "-//W3C//DTD SVG 1.1//EN" "http://www.w3.org/Graphics/SVG/1.1/DTD/svg11.dtd">
<svg version="1.1" id="Layer_1" xmlns="http://www.w3.org/2000/svg" xmlns:xlink="http://www.w3.org/1999/xlink" x="0px" y="0px"
	 width="1087px" height="1190.021px" viewBox="0 0 1087 1190.021" enable-background="new 0 0 1087 1190.021" xml:space="preserve">
<g id="Layer_2">
	
		<circle fill="#DDFEFD" stroke="#6F0F11" stroke-width="11" stroke-linecap="round" stroke-linejoin="round" stroke-miterlimit="10" cx="549" cy="640.522" r="538"/>
</g>
<g id="light">
	<path fill="#E7E4ED" d="M672.844,881.12c0,44.465-36.045,80.51-80.512,80.51H487.643c-44.465,0-80.511-36.047-80.511-80.51v-66.042
		c0-44.468,36.046-80.511,80.511-80.511h104.69c44.469,0,80.512,36.044,80.512,80.511L672.844,881.12L672.844,881.12z"/>
	<path fill="#D1D7DB" d="M591.131,734.567h-7.886c17.329,14.768,28.333,36.735,28.333,61.289v66.043
		c0,44.465-36.043,80.51-80.51,80.51h-96.803c14.054,11.977,32.264,19.221,52.178,19.221h104.688c44.471,0,80.51-36.047,80.51-80.51
		v-66.042C671.642,770.611,635.598,734.567,591.131,734.567z"/>
	<path fill="none" stroke="#6F0F11" stroke-width="12" stroke-linecap="round" stroke-linejoin="round" stroke-miterlimit="10" d="
		M672.844,878.715c0,44.465-36.045,80.51-80.512,80.51H487.645c-44.465,0-80.511-36.046-80.511-80.51v-66.042
		c0-44.467,36.046-80.51,80.511-80.51h104.688c44.469,0,80.512,36.044,80.512,80.51L672.844,878.715L672.844,878.715z"/>
	<path fill="#FDE87D" d="M539.784,1.226c-172.323,0-312.502,140.189-312.502,312.491c0,71.439,61.134,184.82,64.07,190.175
		l72.705,116.725c2.066,4.08,21.609,43.623,21.609,79.016c0,0-13.843,84.996,27.774,91.688
		c10.336,2.316,241.583,0.814,252.677-0.021c45.666,1.737,27.773-91.667,27.773-91.667c0-35.259,19.562-74.957,21.617-79.025
		l73.026-117.271c2.616-4.784,63.76-118.165,63.76-189.615C852.287,141.415,712.105,1.226,539.784,1.226z"/>
	<path fill="#F9D84B" d="M538.582,2.396c-10.812,0-21.499,0.554-32.033,1.63C651.764,30.878,762.095,158.443,762.102,311.3
		c0,71.448-61.141,184.83-63.759,189.613l-73.026,117.271c-2.056,4.068-21.619,43.771-21.619,79.025
		c0,0,17.894,93.405-27.772,91.669c-6.94,0.522-100.038,1.307-171.31,1.253c2.309,1.101,4.837,1.907,7.622,2.355
		c10.336,2.313,241.582,0.812,252.678-0.021c45.666,1.735,27.771-91.669,27.771-91.669c0-35.257,19.565-74.956,21.62-79.026
		l73.027-117.271c2.616-4.783,63.759-118.165,63.759-189.613C851.084,142.584,710.905,2.396,538.582,2.396z"/>
	<path fill="none" stroke="#6F0F11" stroke-width="12" stroke-linecap="round" stroke-linejoin="round" stroke-miterlimit="10" d="
		M538.235,0.005c-172.32,0.936-311.735,141.884-310.8,314.184c0.388,71.437,62.137,184.485,65.102,189.825l73.338,116.327
		c2.087,4.066,21.845,43.504,22.037,78.897c0,0-13.382,85.065,28.273,91.536c10.349,2.259,241.583-0.498,252.67-1.396
		c45.676,1.488,27.277-91.818,27.277-91.818c-0.19-35.257,19.154-75.061,21.188-79.143L789.71,500.75
		c2.591-4.797,63.116-118.509,62.729-189.956C851.497,138.495,710.555-0.931,538.235,0.005z"/>
	<g id="Isolation_Mode">
		<path fill="#C4F6FF" d="M703.183,827.075c0,22.892-18.559,41.447-41.448,41.447H413.046c-22.892,0-41.447-18.558-41.447-41.447
			l0,0c0-22.895,18.557-41.448,41.447-41.448h248.688C684.625,785.627,703.183,804.183,703.183,827.075L703.183,827.075z"/>
		<path fill="#AEF5FC" d="M662.931,784.44h-75.664c14.466,6.471,24.552,20.977,24.552,37.849c0,22.892-18.56,41.447-41.449,41.447
			H397.343c5.163,2.31,10.878,3.603,16.897,3.603h248.691c22.892,0,41.448-18.556,41.448-41.447
			C704.38,802.998,685.821,784.44,662.931,784.44z"/>
		<path fill="none" stroke="#6F0F11" stroke-width="12" stroke-linecap="round" stroke-linejoin="round" stroke-miterlimit="10" d="
			M704.985,825.862c0,22.891-18.561,41.445-41.448,41.445H414.848c-22.892,0-41.448-18.557-41.448-41.445l0,0
			c0-22.896,18.557-41.449,41.448-41.449h248.689C686.426,784.413,704.985,802.97,704.985,825.862L704.985,825.862z"/>
	</g>
	<g id="highlight">
		
			<path fill="none" stroke="#FFFFFF" stroke-width="44.4472" stroke-linecap="round" stroke-linejoin="round" stroke-miterlimit="10" d="
			M413.108,148.397c23.396-21.078,49.877-38.798,78.683-52.403"/>
		
			<path fill="none" stroke="#FFFFFF" stroke-width="44.4472" stroke-linecap="round" stroke-linejoin="round" stroke-miterlimit="10" d="
			M354.038,229.019c4.226-6.341,8.67-12.524,13.321-18.541"/>
	</g>
</g>
</svg>
