<?xml version="1.0" encoding="UTF-8" standalone="no"?>
<svg width="37px" height="22px" viewBox="0 0 37 22" version="1.1" xmlns="http://www.w3.org/2000/svg" xmlns:xlink="http://www.w3.org/1999/xlink">
    <!-- Generator: Sketch 39.1 (31720) - http://www.bohemiancoding.com/sketch -->
    <title>Page 1</title>
    <desc>Created with Sketch.</desc>
    <defs></defs>
    <g id="Page-1" stroke="none" stroke-width="1" fill="none" fill-rule="evenodd">
        <g id="iPhone-6" transform="translate(-169.000000, -5523.000000)" fill="#FFFFFF">
            <path d="M206,5523.00037 L206,5523.1092 L189.979033,5535.42186 C189.287946,5535.91023 188.588482,5536.1471 187.841405,5536.1471 C187.086257,5536.1471 186.294839,5535.89139 185.514863,5535.40799 C184.609013,5534.78398 171.851703,5525.17911 169,5523.03018 L169,5523 L206,5523 L206,5523.00037 Z M195.700113,5533.67451 L205.999489,5525.40876 L205.999489,5540.98647 L195.700113,5533.67451 Z M169,5541.03615 L169,5525.37511 C169.590039,5525.83667 170.309631,5526.39985 171.099211,5527.0172 C174.216252,5529.45493 177.31194,5531.87419 179.710411,5533.74125 L169,5541.03615 Z M181.156849,5534.86422 C182.757567,5536.10464 183.855193,5536.94584 184.131566,5537.13519 C185.670879,5538.19179 186.868837,5538.33418 187.837829,5538.33418 C189.633081,5538.33418 190.85556,5537.56525 191.423224,5537.10707 L194.182359,5534.89149 L205.88046,5543.57671 L205.874942,5544.00546 L169.126386,5544.00546 L169.11903,5543.57671 L181.156849,5534.86422 Z" id="Page-1"></path>
        </g>
    </g>
</svg>