<?xml version="1.0" encoding="utf-8"?>
<!-- Generator: Adobe Illustrator 16.0.0, SVG Export Plug-In . SVG Version: 6.00 Build 0)  -->
<!DOCTYPE svg PUBLIC "-//W3C//DTD SVG 1.1//EN" "http://www.w3.org/Graphics/SVG/1.1/DTD/svg11.dtd">
<svg version="1.1" id="milk" xmlns="http://www.w3.org/2000/svg" xmlns:xlink="http://www.w3.org/1999/xlink" x="0px" y="0px"
	 width="133px" height="289.944px" viewBox="0 0 133 289.944" enable-background="new 0 0 133 289.944" xml:space="preserve">
<g>
	<g>
		<path fill="#FFEA94" d="M97.769,20.402c0,8.516-6.661,15.42-14.879,15.42H50.16c-8.217,0-14.879-6.904-14.879-15.42v-2.981
			C35.281,8.904,29.138,2,37.355,2h58.652c8.217,0,1.762,6.904,1.762,15.421V20.402z"/>
		<path fill="#F7DA5E" d="M95.409,2h-4.828c2.379,2.154-1.654,8.027-1.654,14.941V20c0,8.739-6.66,15.823-14.878,15.823h8.245
			c8.217,0,14.878-6.904,14.878-15.42v-2.981C97.171,8.904,103.627,2,95.409,2z"/>
		<path fill="none" stroke="#580703" stroke-width="4" stroke-linecap="round" stroke-linejoin="round" stroke-miterlimit="10" d="
			M97.769,20.402c0,8.516-6.661,15.42-14.879,15.42H50.16c-8.217,0-14.879-6.904-14.879-15.42v-2.981
			C35.281,8.904,29.138,2,37.355,2h58.652c8.217,0,1.762,6.904,1.762,15.421V20.402z"/>
	</g>
	<path fill="#D4F4FC" d="M111.674,51.93c-5.855-7.206-9.822-16.007-11.143-25.654H30.426C29.064,36.1,24.959,45.043,18.91,52.314
		c-10.934,9.172-17.89,22.93-17.89,38.317v146.326c0,27.613,22.386,50,50,50h29c27.615,0,50-22.387,50-50V90.631
		C130.02,75.029,122.872,61.099,111.674,51.93z"/>
	<path fill="#D9FCFF" d="M110.54,19.973c0,3.481-2.822,6.303-6.303,6.303H27.548c-3.481,0-6.303-2.822-6.303-6.303l0,0
		c0-3.48,2.822-6.302,6.303-6.302h76.689C107.717,13.671,110.54,16.493,110.54,19.973L110.54,19.973z"/>
	<path fill="#FFFFFF" d="M32.5,165.436c51.5,24,59-79,98.5-46c0,4,0,117.522,0,117.522c0,27.615-22.386,50-50,50H52
		c-27.614,0-50-22.385-50-50v-39.521C2,181.833,1.812,151.936,32.5,165.436z"/>
	<path opacity="0.1" fill="#59C6FC" d="M111.674,51.93c-5.855-7.206-9.822-16.007-11.143-25.654H30.426
		c0,0.005-0.001,0.01-0.002,0.016H90c1.322,9.647,5.288,18.448,11.143,25.654c11.198,9.169,18.348,23.1,18.348,38.702v146.326
		c0,27.408-22.055,49.652-49.383,49.984h9.912c27.615,0,50-22.385,50-50V90.632C130.02,75.03,122.872,61.1,111.674,51.93z"/>
	<path fill="none" stroke="#580703" stroke-width="4" stroke-linecap="round" stroke-linejoin="round" stroke-miterlimit="10" d="
		M112.653,52.917c-5.854-7.206-9.82-16.007-11.143-25.654H31.406c-1.362,9.824-5.467,18.767-11.516,26.038
		C8.956,62.473,2,76.231,2,91.619v146.325c0,27.615,22.386,50,50,50h29c27.613,0,50-22.385,50-50V91.619
		C131,76.017,123.851,62.086,112.653,52.917z"/>
	<path opacity="0.1" fill="#59C6FC" d="M102.415,14.594l-18.482,0.154c4.761,0,7.422,3.201,7.422,6.915
		c0,2.424-0.451,4.352-2.914,5.535h13.975c4.461,0,8.076-2.821,8.076-6.303C110.491,17.416,106.875,14.594,102.415,14.594z"/>
	<path fill="none" stroke="#580703" stroke-width="4" stroke-linecap="round" stroke-linejoin="round" stroke-miterlimit="10" d="
		M110.493,20.899c0,3.481-2.822,6.303-6.303,6.303H27.501c-3.481,0-6.303-2.822-6.303-6.303l0,0c0-3.48,2.822-6.302,6.303-6.302
		h76.689C107.67,14.597,110.493,17.418,110.493,20.899L110.493,20.899z"/>
	
		<ellipse transform="matrix(0.9438 0.3304 -0.3304 0.9438 26.7893 -3.1889)" fill="#FFFFFF" cx="22.775" cy="77.212" rx="9.51" ry="13.344"/>
	
		<ellipse transform="matrix(0.9438 0.3304 -0.3304 0.9438 20.1824 -8.4017)" fill="#FFFFFF" cx="34.806" cy="55.168" rx="4.521" ry="5.276"/>
	<circle fill="#580703" cx="28.458" cy="120.663" r="4.309"/>
	<circle fill="#580703" cx="65.006" cy="120.663" r="4.309"/>
</g>
<path fill="#511B1B" d="M60.806,135.138c0,7.18-5.82,13-13,13s-13-5.82-13-13S60.806,127.958,60.806,135.138z"/>
</svg>
