<?xml version="1.0" encoding="utf-8"?>
<!-- Generator: Adobe Illustrator 16.0.0, SVG Export Plug-In . SVG Version: 6.00 Build 0)  -->
<!DOCTYPE svg PUBLIC "-//W3C//DTD SVG 1.1//EN" "http://www.w3.org/Graphics/SVG/1.1/DTD/svg11.dtd">
<svg version="1.1"
	 id="Layer_1" xmlns:rdf="http://www.w3.org/1999/02/22-rdf-syntax-ns#" xmlns:sodipodi="http://sodipodi.sourceforge.net/DTD/sodipodi-0.dtd" xmlns:dc="http://purl.org/dc/elements/1.1/" xmlns:svg="http://www.w3.org/2000/svg" xmlns:cc="http://creativecommons.org/ns#" xmlns:inkscape="http://www.inkscape.org/namespaces/inkscape"
	 xmlns="http://www.w3.org/2000/svg" xmlns:xlink="http://www.w3.org/1999/xlink" x="0px" y="0px" width="760.32px"
	 height="760.32px" viewBox="579.84 51.84 760.32 760.32" enable-background="new 579.84 51.84 760.32 760.32" xml:space="preserve"
	>
<g transform="translate(0,-952.36218)">
	<path fill="#3A4857" d="M960,1004.202c-209.752,0-380.16,170.408-380.16,380.16s170.408,380.16,380.16,380.16
		s380.16-170.408,380.16-380.16S1169.752,1004.202,960,1004.202z M960,1038.762c191.074,0,345.6,154.526,345.6,345.6
		s-154.525,345.6-345.6,345.6s-345.6-154.525-345.6-345.6S768.926,1038.762,960,1038.762z M872.79,1176.732
		c-9.538,0.343-16.992,8.354-16.649,17.892c0.171,4.745,2.286,9.21,5.85,12.348l193.32,177.39l-193.32,177.12
		c-7.111,6.381-7.702,17.319-1.32,24.43c6.381,7.11,17.318,7.702,24.43,1.32c0.037-0.033,0.073-0.066,0.11-0.101l207.36-190.079
		c7.083-6.397,7.639-17.326,1.241-24.409c-0.393-0.435-0.807-0.849-1.241-1.241l-207.36-190.08
		C881.844,1178.204,877.375,1176.553,872.79,1176.732z"/>
</g>
</svg>
