<?xml version="1.0" encoding="utf-8"?>
<!-- Generator: Adobe Illustrator 16.0.0, SVG Export Plug-In . SVG Version: 6.00 Build 0)  -->
<!DOCTYPE svg PUBLIC "-//W3C//DTD SVG 1.1//EN" "http://www.w3.org/Graphics/SVG/1.1/DTD/svg11.dtd">
<svg version="1.1" id="Layer_1" xmlns="http://www.w3.org/2000/svg" xmlns:xlink="http://www.w3.org/1999/xlink" x="0px" y="0px"
	 width="290.05px" height="172.763px" viewBox="334.973 235.743 290.05 172.763"
	 enable-background="new 334.973 235.743 290.05 172.763" xml:space="preserve">
<g>
	<path fill="#3A4157" d="M480,286.551c-22.097,0-39.409-11.155-39.409-25.407c0-14.241,17.312-25.401,39.409-25.401
		s39.409,11.155,39.409,25.401C519.409,275.396,502.097,286.551,480,286.551z M480,249.82c-15.466,0-25.337,6.715-25.337,11.33
		c0,4.624,9.871,11.334,25.337,11.334s25.337-6.715,25.337-11.334C505.337,256.53,495.466,249.82,480,249.82z"/>
</g>
<g>
	<g>
		<path fill="#3A4157" d="M480,408.506c-72.068,0-145.022-16.814-145.022-48.956c0-3.883,3.151-7.033,7.039-7.033
			s7.039,3.15,7.039,7.033c0,14.57,49.817,34.89,130.95,34.89c3.888,0,7.039,3.15,7.039,7.033S483.888,408.506,480,408.506z"/>
	</g>
	<g>
		<g>
			<path fill="#3A4157" d="M480,408.506c-3.888,0-7.039-3.15-7.039-7.033s3.151-7.033,7.039-7.033
				c81.128,0,130.945-20.319,130.945-34.89c0-3.883,3.151-7.033,7.039-7.033s7.038,3.15,7.038,7.033
				C625.018,391.691,552.068,408.506,480,408.506z"/>
		</g>
	</g>
</g>
<g>
	<g>
		<path fill="#3A4157" d="M480,380.372c-72.068,0-145.022-16.815-145.022-48.962c0-3.882,3.151-7.033,7.039-7.033
			s7.039,3.151,7.039,7.033c0,14.57,49.817,34.895,130.95,34.895c3.888,0,7.039,3.151,7.039,7.033
			C487.044,377.221,483.888,380.372,480,380.372z"/>
	</g>
	<g>
		<g>
			<path fill="#3A4157" d="M480,380.372c-3.888,0-7.039-3.151-7.039-7.034c0-3.882,3.151-7.033,7.039-7.033
				c81.128,0,130.945-20.324,130.945-34.895c0-3.883,3.151-7.033,7.039-7.033s7.038,3.15,7.038,7.033
				C625.018,363.557,552.068,380.372,480,380.372z"/>
		</g>
	</g>
</g>
<g>
	<path fill="none" stroke="#000000" stroke-width="2.8269" stroke-linecap="round" stroke-miterlimit="10" d="M480,298.289"/>
</g>
<g>
	<path fill="#3A4157" d="M480,347.26c-69.351,0-143.062-17.691-143.062-50.475c0-26.337,48.15-48.384,114.489-52.426
		c3.843-0.229,7.218,2.718,7.451,6.595c0.239,3.878-2.713,7.213-6.595,7.452c-66.075,4.027-101.269,24.874-101.269,38.379
		c0,15.202,49.071,36.402,128.989,36.402s128.989-21.205,128.989-36.402c0-13.505-35.193-34.352-101.272-38.379
		c-3.878-0.239-6.835-3.574-6.596-7.452c0.233-3.877,3.613-6.839,7.451-6.595c66.339,4.042,114.489,26.088,114.489,52.426
		C623.062,329.568,549.351,347.26,480,347.26z"/>
</g>
<g>
	<path fill="#3A4157" d="M342.011,366.589c-3.888,0-7.039-3.151-7.039-7.034c0-11.205,7.198-19.985,16.387-19.985
		c3.888,0,7.039,3.15,7.039,7.033s-3.151,7.034-7.039,7.034c-0.533,0.139-2.315,2.194-2.315,5.913
		C349.05,363.438,345.898,366.589,342.011,366.589z"/>
</g>
<g>
	<path fill="#3A4157" d="M342.011,338.459c-3.888,0-7.039-3.166-7.039-7.049c0-11.991,15.829-21.907,23.903-21.907
		c3.887,0,7.038,3.151,7.038,7.034s-3.151,7.033-7.038,7.033c-2.683,0.274-9.612,5.401-9.836,7.86
		C349.044,335.318,345.898,338.459,342.011,338.459z"/>
</g>
<g>
	<path fill="#3A4157" d="M617.984,366.589c-3.888,0-7.039-3.151-7.039-7.034c0-3.719-1.782-5.774-2.35-5.913
		c-3.888,0-7.019-3.151-7.019-7.034c0-3.888,3.166-7.033,7.054-7.033c9.188,0,16.387,8.78,16.387,19.985
		C625.018,363.438,621.867,366.589,617.984,366.589z"/>
</g>
<g>
	<path fill="#3A4157" d="M617.984,338.444c-3.883,0-7.029-3.142-7.039-7.019c-0.233-2.465-7.148-7.582-9.926-7.855
		c-3.883,0-6.988-3.15-6.988-7.033c0-3.888,3.2-7.034,7.083-7.034c8.079,0,23.898,9.916,23.898,21.907
		C625.018,335.293,621.867,338.444,617.984,338.444z"/>
</g>
</svg>
