<?xml version="1.0" encoding="utf-8"?>
<!-- Generator: Adobe Illustrator 16.0.0, SVG Export Plug-In . SVG Version: 6.00 Build 0)  -->
<!DOCTYPE svg PUBLIC "-//W3C//DTD SVG 1.1//EN" "http://www.w3.org/Graphics/SVG/1.1/DTD/svg11.dtd">
<svg version="1.1" xmlns="http://www.w3.org/2000/svg" xmlns:xlink="http://www.w3.org/1999/xlink" x="0px" y="0px" width="300px"
	 height="300px" viewBox="0 0 300 300" enable-background="new 0 0 300 300" xml:space="preserve">
<g id="Layer_3">
	<circle fill="#A7F2F4" cx="150" cy="150" r="150"/>
</g>
<g id="pancakes">
	<g>
		<path fill="#FFD792" d="M264.904,187.367c0-12.402-13.902-22.455-31.053-22.455h-171.3c-17.151,0-31.054,10.053-31.054,22.455
			c0,8.539,9.39,15.73,16.296,19.762c11.844,8.055,53.325,17.283,99.892,17.283c45.402,0,85.21-8.9,98.812-16.537
			C255.23,204.059,264.904,196.512,264.904,187.367z"/>
		<path fill="#F2C686" d="M245.404,166.512c4.98,3.982,8.016,9.264,8.016,15.059c0,9.143-9.674,16.689-18.404,20.508
			c-13.602,7.635-53.41,16.537-98.815,16.537c-37.997,0-72.6-6.145-90.486-12.783c0.72,0.459,1.431,0.896,2.113,1.295
			c11.845,8.057,53.325,17.285,99.892,17.285c45.404,0,85.212-8.902,98.814-16.537c8.732-3.818,18.406-11.365,18.406-20.508
			C264.939,177.908,256.85,169.82,245.404,166.512z"/>
		<path fill="none" stroke="#580703" stroke-width="2.3" stroke-miterlimit="10" d="M264.443,187.221
			c0-12.4-13.902-22.453-31.053-22.453H62.089c-17.149,0-31.054,10.053-31.054,22.453c0,8.539,9.39,15.73,16.297,19.764
			c11.844,8.055,53.325,17.283,99.892,17.283c45.403,0,85.213-8.902,98.811-16.537C254.768,203.914,264.443,196.365,264.443,187.221
			z"/>
		<ellipse fill="#EF9F5E" cx="148.972" cy="175.609" rx="111.032" ry="25.178"/>
		
			<ellipse fill="none" stroke="#580703" stroke-width="2.3" stroke-miterlimit="10" cx="148.942" cy="176.254" rx="111.031" ry="25.176"/>
	</g>
	<g>
		<path fill="#FFD792" d="M266.383,167.721c0-12.404-13.9-22.458-31.051-22.458H64.028c-17.149,0-31.052,10.053-31.052,22.458
			c0,8.537,9.39,15.727,16.296,19.76c11.845,8.055,53.325,17.283,99.891,17.283c45.401,0,85.212-8.902,98.813-16.535
			C256.709,184.412,266.383,176.863,266.383,167.721z"/>
		<path fill="#F2C686" d="M247.68,147.304c4.98,3.983,8.016,9.264,8.016,15.057c0,9.145-9.674,16.691-18.404,20.508
			c-13.602,7.635-53.41,16.537-98.815,16.537c-37.997,0-72.6-6.145-90.486-12.781c0.72,0.457,1.431,0.896,2.113,1.295
			c11.845,8.055,53.325,17.283,99.891,17.283c45.404,0,85.213-8.902,98.814-16.537c8.732-3.816,18.406-11.363,18.406-20.508
			C267.215,158.699,259.125,150.613,247.68,147.304z"/>
		<path fill="none" stroke="#580703" stroke-width="2.3" stroke-miterlimit="10" d="M265.92,167.572
			c0-12.398-13.902-22.455-31.053-22.455h-171.3c-17.151,0-31.054,10.056-31.054,22.455c0,8.541,9.39,15.73,16.296,19.764
			c11.845,8.055,53.325,17.281,99.892,17.281c45.404,0,85.213-8.9,98.812-16.537C256.246,184.266,265.92,176.717,265.92,167.572z"/>
		<path fill="#FCB267" d="M261.482,155.963c0,13.904-49.713,25.178-111.03,25.178c-61.322,0-111.034-11.273-111.034-25.178
			c0-13.907,49.711-25.178,111.034-25.178C211.77,130.785,261.482,142.056,261.482,155.963z"/>
		
			<ellipse fill="none" stroke="#580703" stroke-width="2.3" stroke-miterlimit="10" cx="150.421" cy="156.605" rx="111.032" ry="25.178"/>
	</g>
	<g>
		<path fill="#FFD792" d="M265.561,149.433c0-12.403-13.9-22.457-31.055-22.457H63.205c-17.149,0-31.053,10.054-31.053,22.457
			c0,8.538,9.39,15.729,16.296,19.76c11.845,8.055,53.326,17.285,99.892,17.285c45.404,0,85.213-8.904,98.814-16.537
			C255.887,166.121,265.561,158.576,265.561,149.433z"/>
		<path fill="#F2C686" d="M245.404,128.564c4.98,3.982,8.016,9.264,8.016,15.058c0,9.144-9.674,16.691-18.404,20.507
			c-13.602,7.635-53.41,16.537-98.815,16.537c-37.997,0-72.6-6.145-90.486-12.781c0.72,0.457,1.431,0.896,2.113,1.295
			c11.845,8.055,53.325,17.283,99.892,17.283c45.404,0,85.212-8.902,98.814-16.537c8.732-3.816,18.406-11.363,18.406-20.507
			C264.939,139.959,256.85,131.873,245.404,128.564z"/>
		<path fill="none" stroke="#580703" stroke-width="2.3" stroke-miterlimit="10" d="M265.098,149.287
			c0-12.403-13.9-22.456-31.053-22.456H62.744c-17.151,0-31.053,10.053-31.053,22.456c0,8.538,9.389,15.729,16.295,19.762
			c11.844,8.053,53.325,17.283,99.892,17.283c45.405,0,85.215-8.902,98.811-16.537C255.422,165.977,265.098,158.43,265.098,149.287z
			"/>
		<path fill="#EF9F5E" d="M260.66,137.676c0,13.902-49.713,25.175-111.031,25.175c-61.322,0-111.034-11.273-111.034-25.175
			c0-13.904,49.712-25.179,111.034-25.179C210.947,112.498,260.66,123.772,260.66,137.676z"/>
		
			<ellipse fill="none" stroke="#580703" stroke-width="2.3" stroke-miterlimit="10" cx="149.596" cy="138.319" rx="111.031" ry="25.177"/>
	</g>
	<g>
		<path fill="#FFD792" d="M263.594,120.615c0-12.403-13.902-22.457-31.051-22.457H61.24c-17.149,0-31.053,10.054-31.053,22.457
			c0,8.538,9.391,15.729,16.296,19.761c11.845,8.056,53.325,17.285,99.892,17.285c45.405,0,85.213-8.903,98.815-16.538
			C253.92,137.305,263.594,129.758,263.594,120.615z"/>
		<path fill="#F2C686" d="M242.906,98.812c4.98,3.982,8.016,9.264,8.016,15.058c0,9.144-9.674,16.69-18.404,20.508
			c-13.602,7.635-53.41,16.537-98.815,16.537c-37.997,0-72.6-6.145-90.486-12.782c0.72,0.458,1.431,0.896,2.113,1.295
			c11.845,8.056,53.325,17.284,99.892,17.284c45.404,0,85.212-8.902,98.814-16.537c8.732-3.817,18.406-11.364,18.406-20.508
			C262.441,110.208,254.352,102.121,242.906,98.812z"/>
		<path fill="none" stroke="#580703" stroke-width="2.3" stroke-miterlimit="10" d="M263.133,120.468
			c0-12.402-13.9-22.457-31.053-22.457H60.778c-17.15,0-31.053,10.055-31.053,22.457c0,8.539,9.39,15.73,16.296,19.763
			c11.845,8.056,53.326,17.283,99.892,17.283c45.404,0,85.214-8.901,98.812-16.538C253.459,137.16,263.133,129.612,263.133,120.468z
			"/>
		<ellipse fill="#FCB267" cx="147.663" cy="108.857" rx="111.033" ry="25.178"/>
		
			<ellipse fill="none" stroke="#580703" stroke-width="2.3" stroke-miterlimit="10" cx="147.632" cy="109.5" rx="111.03" ry="25.178"/>
	</g>
	<path fill="#A55C3F" d="M158.049,77.044c-5.667-0.068-11.333-0.069-16.925,0.021c-7.372-0.191-15.181,0.054-23.222,0.8
		c-3.192,0.296-6.313,0.668-9.369,1.097c-13.882,1.588-26,4.309-34.744,8.755c-14.978,6.023-23.778,13.863-22.324,21.59
		c0.886,4.713,5.475,8.772,12.708,11.919c3.25,1.393,5.377,2.098,8.344,3.519c9.644,5.358,19.852,10.973,19.768,20.495l0.448,26.207
		c0.075,4.314,4.484,7.764,9.844,7.703c5.363-0.061,9.648-3.605,9.574-7.918l-0.361-21.037l-0.139-8.12
		c-0.049-2.883,2.429-5.313,5.783-5.933c2.447-0.228,3.635-0.021,5.05,0.499c2.291,0.943,3.899,2.812,4.058,5l0.412,24.129
		c0.045,2.611,2.581,4.699,5.662,4.664c3.083-0.035,5.544-2.178,5.498-4.787l-0.184-10.805l-0.084-4.781
		c-0.045-2.612,2.55-4.759,5.797-4.797c3.245-0.031,5.91,2.053,5.954,4.666l0.113,6.507c0.006,0,0.013,0,0.018,0.004l0.405,23.592
		c0.062,3.664,3.805,6.592,8.358,6.541c4.555-0.051,8.195-3.061,8.133-6.727l-0.371-21.588l-0.078-4.672l-0.197-11.454
		c-0.076-4.313,4.214-7.857,9.574-7.918c4.814-0.055,8.842,2.725,9.672,6.416l0.326,19.016c0.064,3.766,3.808,6.779,8.362,6.73
		c4.554-0.051,8.192-3.145,8.129-6.912l-0.464-26.992c-1.408-12.15,25.861-8.343,31.109-21.445
		C239.263,94.609,209.111,77.641,158.049,77.044z"/>
	<g>
		<path fill="#964A2F" d="M227.551,94.884c2.195,3.638,2.655,7.451,1.139,11.237c-5.248,13.103-32.519,9.295-31.11,21.445
			l0.464,26.992c0.064,3.768-3.574,6.861-8.129,6.912c-1.546,0.016-2.993-0.326-4.239-0.924c0.661,3.266,4.111,5.74,8.239,5.695
			c4.555-0.051,8.193-3.145,8.129-6.912l-0.464-26.992c-1.408-12.15,25.862-8.343,31.11-21.445
			C234.887,105.407,232.964,99.862,227.551,94.884z"/>
	</g>
	<path fill="none" stroke="#580703" stroke-width="2.1829" stroke-miterlimit="10" d="M158.049,76.507
		c-5.667-0.068-11.333-0.069-16.925,0.021c-7.372-0.191-15.181,0.054-23.222,0.8c-3.192,0.296-6.313,0.668-9.369,1.097
		c-13.882,1.588-26,4.309-34.744,8.755c-14.978,6.023-23.778,13.863-22.324,21.59c0.886,4.713,5.475,8.772,12.708,11.919
		c3.25,1.393,5.377,2.098,8.344,3.519c9.644,5.358,19.852,10.973,19.768,20.495l0.448,26.207c0.075,4.314,4.484,7.764,9.844,7.703
		c5.363-0.061,9.648-3.605,9.574-7.918l-0.361-21.037l-0.139-8.12c-0.049-2.883,2.429-5.313,5.783-5.933
		c2.447-0.228,3.635-0.021,5.05,0.499c2.291,0.943,3.899,2.812,4.058,5l0.412,24.129c0.045,2.611,2.581,4.699,5.662,4.664
		c3.083-0.035,5.544-2.178,5.498-4.787l-0.184-10.805l-0.084-4.781c-0.045-2.612,2.55-4.759,5.797-4.797
		c3.245-0.031,5.91,2.053,5.954,4.666l0.113,6.507c0.006,0,0.013,0,0.018,0.004l0.405,23.592c0.062,3.664,3.805,6.592,8.358,6.541
		c4.555-0.051,8.195-3.061,8.133-6.727l-0.371-21.588l-0.078-4.672l-0.197-11.454c-0.076-4.313,4.214-7.857,9.574-7.918
		c4.814-0.055,8.842,2.725,9.672,6.416l0.326,19.016c0.064,3.766,3.808,6.779,8.362,6.73c4.554-0.051,8.192-3.145,8.129-6.912
		l-0.464-26.992c-1.408-12.15,25.861-8.343,31.109-21.445C239.263,94.072,209.111,77.104,158.049,76.507z"/>
	<path fill="none" stroke="#DB9F77" stroke-width="5" stroke-linecap="round" stroke-linejoin="round" stroke-miterlimit="10" d="
		M61.913,105.908c0.462,0.9,1.077,1.734,1.832,2.503"/>
	<path fill="none" stroke="#DB9F77" stroke-width="5" stroke-linecap="round" stroke-linejoin="round" stroke-miterlimit="10" d="
		M72.157,114.755c2.409,1.959,5.727,3.599,9.786,4.896"/>
</g>
<g id="Layer_21">
	<g>
		<g>
			<path fill="#EFC71B" d="M158.574,90.354c-0.777,2.707-5.238,4.279-9.961,3.511l-13.682-2.224
				c-4.724-0.767-7.921-3.583-7.141-6.292l2.349-8.171c0.779-2.706,5.239-4.28,9.962-3.514l13.682,2.226
				c4.722,0.767,7.92,3.584,7.143,6.292L158.574,90.354z"/>
			<path fill="#F8E46B" d="M159.235,88.054c-0.776,2.706-5.237,4.277-9.96,3.51l-13.683-2.224c-4.722-0.766-7.92-3.583-7.142-6.288
				l2.35-8.167c0.778-2.705,5.237-4.277,9.96-3.51l13.683,2.223c4.722,0.768,7.919,3.584,7.142,6.29L159.235,88.054z"/>
		</g>
		<path fill="none" stroke="#580703" stroke-width="2" stroke-miterlimit="10" d="M155.3,73.171l-14.533-2.359
			c-5.018-0.812-9.754,0.856-10.581,3.729l-0.699,2.431c-0.001,0.001-0.001,0.003-0.002,0.004l-2.496,8.673
			c-0.829,2.875,2.567,5.865,7.584,6.681l14.533,2.358c5.02,0.816,9.758-0.854,10.584-3.728l2.497-8.675
			c0.002-0.002,0-0.003,0.003-0.007l0.698-2.426C163.713,76.978,160.317,73.988,155.3,73.171z"/>
	</g>
</g>
</svg>
