<?xml version="1.0" encoding="UTF-8" standalone="no"?>
<svg width="1234px" height="259px" viewBox="0 0 1234 259" version="1.1" xmlns="http://www.w3.org/2000/svg" xmlns:xlink="http://www.w3.org/1999/xlink">
    <!-- Generator: Sketch 39.1 (31720) - http://www.bohemiancoding.com/sketch -->
    <title>pattern</title>
    <desc>Created with Sketch.</desc>
    <defs></defs>
    <g id="Page-1" stroke="none" stroke-width="1" fill="none" fill-rule="evenodd">
        <g id="Desktop" transform="translate(-24.000000, -2316.000000)" stroke="#AEFCFA">
            <g id="portfolio" transform="translate(0.000000, 2071.000000)">
                <g id="pattern" transform="translate(27.000000, 250.000000)">
                    <path d="M1224.51207,23.2560328 C1224.51207,32.2339441 1217.23394,39.5120655 1208.25603,39.5120655 C1199.27812,39.5120655 1192,32.2339441 1192,23.2560328 C1192,14.2781214 1199.27812,7 1208.25603,7 C1217.23394,7 1224.51207,14.2781214 1224.51207,23.2560328 L1224.51207,23.2560328 Z" id="Page-1" stroke-width="12"></path>
                    <path d="M99,12.5 C99,19.4035227 93.4035227,25 86.5,25 C79.5964773,25 74,19.4035227 74,12.5 C74,5.59647727 79.5964773,0 86.5,0 C93.4035227,0 99,5.59647727 99,12.5 L99,12.5 Z" id="Page-1" stroke-width="9"></path>
                    <path d="M207,167 C207,171.970536 202.970536,176 198,176 C193.029464,176 189,171.970536 189,167 C189,162.029464 193.029464,158 198,158 C202.970536,158 207,162.029464 207,167 L207,167 Z" id="Page-1" stroke-width="4"></path>
                    <path d="M132,244.5 C132,248.089832 129.089832,251 125.5,251 C121.910168,251 119,248.089832 119,244.5 C119,240.910168 121.910168,238 125.5,238 C129.089832,238 132,240.910168 132,244.5 L132,244.5 Z" id="Page-1" stroke-width="6"></path>
                    <path d="M1204,158 C1204,162.970536 1199.97054,167 1195,167 C1190.02946,167 1186,162.970536 1186,158 C1186,153.029464 1190.02946,149 1195,149 C1199.97054,149 1204,153.029464 1204,158 L1204,158 Z" id="Page-1" stroke-width="4"></path>
                    <path d="M1086.41455,7 C1086.41455,12.6372932 1081.84457,17.2072764 1076.20728,17.2072764 C1070.56998,17.2072764 1066,12.6372932 1066,7" id="Page-1" stroke-width="6" stroke-linecap="round" stroke-linejoin="round"></path>
                    <path d="M20.4145528,132 C20.4145528,137.637293 15.8445695,142.207276 10.2072764,142.207276 C4.56998322,142.207276 0,137.637293 0,132" id="Page-1" stroke-width="6" stroke-linecap="round" stroke-linejoin="round"></path>
                    <path d="M1069.29998,168.17268 C1069.29998,177.341272 1061.86728,184.773972 1052.69869,184.773972 C1043.5301,184.773972 1036.0974,177.341272 1036.0974,168.17268" id="Page-1" stroke-width="10" stroke-linecap="round" stroke-linejoin="round" transform="translate(1052.698691, 176.473326) rotate(-69.000000) translate(-1052.698691, -176.473326) "></path>
                    <path d="M211.299983,35.1726804 C211.299983,44.3412718 203.867283,51.7739718 194.698691,51.7739718 C185.5301,51.7739718 178.0974,44.3412718 178.0974,35.1726804" id="Page-1" stroke-width="10" stroke-linecap="round" stroke-linejoin="round" transform="translate(194.698691, 43.473326) rotate(27.000000) translate(-194.698691, -43.473326) "></path>
                </g>
            </g>
        </g>
    </g>
</svg>