<?xml version="1.0" encoding="utf-8"?>
<!-- Generator: Adobe Illustrator 16.0.0, SVG Export Plug-In . SVG Version: 6.00 Build 0)  -->
<!DOCTYPE svg PUBLIC "-//W3C//DTD SVG 1.1//EN" "http://www.w3.org/Graphics/SVG/1.1/DTD/svg11.dtd">
<svg version="1.1" id="Layer_1" xmlns="http://www.w3.org/2000/svg" xmlns:xlink="http://www.w3.org/1999/xlink" x="0px" y="0px"
	 width="1190px" height="1087px" viewBox="112.254 36.732 1190 1087" enable-background="new 112.254 36.732 1190 1087"
	 xml:space="preserve">
<g id="Layer_2">
	
		<circle fill="#DDFEFD" stroke="#6F0F11" stroke-width="11" stroke-linecap="round" stroke-linejoin="round" stroke-miterlimit="10" cx="601.686" cy="611.848" r="538"/>
</g>
<g id="pencil">
	<g>
		<path fill="#FFCF7A" d="M1066.984,249.554c-25.484-35.54-37.627-75.528-35.131-119.82L119.407,782.932l138.398,193
			l914.124-655.511C1129.491,309.015,1092.471,285.095,1066.984,249.554z"/>
		<g>
			<path fill="#FFC75E" d="M201.297,905.708l52.448,73.139l914.935-656.094c-32.507-8.684-62.331-25.444-86.112-48.998
				L201.297,905.708z"/>
		</g>
		<path fill="none" stroke="#6F0F11" stroke-width="12" stroke-linecap="round" stroke-linejoin="round" stroke-miterlimit="10" d="
			M1062.972,250.889c-25.682-35.813-36.4-78.492-34.153-123.172l-910.06,652.598L258.618,975.35l910.061-652.598
			C1126.221,311.36,1088.654,286.704,1062.972,250.889z"/>
	</g>
	<path fill="#E0F3F5" d="M321.134,936.674l76.39-54.779c-38.186-15.686-72.499-41.758-98.324-77.77
		c-25.823-36.016-39.511-76.879-42.118-118.08l-76.39,54.779c2.607,41.199,16.293,82.062,42.118,118.078
		C248.636,894.917,282.949,920.985,321.134,936.674z"/>
	<g>
		<path fill="#FFF8EE" d="M1055.931,254.241c28.634,39.93,70.689,63.667,116.195,66.457L1414.508-1.001l-382.822,125.849
			C1020.985,167.949,1028.027,215.329,1055.931,254.241z"/>
		<path fill="#FFF8EE" d="M1032.599,125.125"/>
		<path fill="#FFF0D9" d="M1075.601,277.257c-0.38-0.101-0.752-0.217-1.131-0.32c27.589,25.704,61.046,41.43,96.032,44.927
			l225.671-299.239L1075.601,277.257z"/>
		<g>
			<path fill="#6F0F11" d="M1335.714,59.005c6.181,8.619,14.247,14.233,24.068,14.835l52.408-69.489l-82.392,27.106
				C1327.495,40.759,1329.692,50.608,1335.714,59.005z"/>
		</g>
	</g>
	<g id="Isolation_Mode_1_">
		<path fill="none" stroke="#6F0F11" stroke-width="12" stroke-linecap="round" stroke-linejoin="round" stroke-miterlimit="10" d="
			M1053.59,256.125c28.594,39.874,70.614,63.562,116.098,66.32L1412.167,0.883L1029.44,126.866
			C1018.717,169.933,1025.726,217.266,1053.59,256.125z"/>
	</g>
	<g>
		<path fill="#F48B87" d="M200.882,1019.215l115.251-82.646c-38.187-15.688-72.499-41.758-98.324-77.771
			s-39.511-76.879-42.118-118.076L60.44,823.366C6.292,862.196-6.21,937.448,32.619,991.596
			C71.45,1045.741,146.731,1058.043,200.882,1019.215z"/>
		<g>
			<path fill="#EB7778" d="M128.471,962.852c-31.292,22.438-69.542,27.941-103.836,18.021c2.186,3.896,4.553,7.65,7.221,11.371
				c38.83,54.146,114.064,66.381,168.213,27.551l115.25-82.646c-28.507-11.551-55.132-29.375-77.506-52.707L128.471,962.852z"/>
		</g>
		<path fill="none" stroke="#6F0F11" stroke-width="11" stroke-miterlimit="10" d="M200.007,1017.995l115.251-82.645
			c-38.188-15.686-72.499-41.758-98.325-77.771c-25.825-36.014-39.51-76.879-42.118-118.074L59.563,822.147
			c-54.149,38.83-66.65,114.082-27.822,168.23C70.576,1044.522,145.857,1056.823,200.007,1017.995z"/>
	</g>
	<g>
		<path fill="#DCF1F6" d="M240.703,881.139c-0.275,0.197-1.171-0.492-1.758-0.738c23.136,25.361,51.504,45.051,81.375,56.855
			l76.391-54.777c-29.646-11.969-57.051-30.461-80.277-55.645L240.703,881.139z"/>
	</g>
	<path fill="none" stroke="#6F0F11" stroke-width="12" stroke-linecap="round" stroke-linejoin="round" stroke-miterlimit="10" d="
		M315.331,934.067l78.172-56.057c-38.465-15.203-72.864-40.881-98.521-76.658c-25.655-35.777-38.94-76.596-41-117.904
		l-78.172,56.057c2.062,41.307,15.345,82.127,41,117.902C242.472,893.184,276.868,918.86,315.331,934.067z"/>
</g>
</svg>
