<?xml version="1.0" encoding="utf-8"?>
<!-- Generator: Adobe Illustrator 16.0.0, SVG Export Plug-In . SVG Version: 6.00 Build 0)  -->
<!DOCTYPE svg PUBLIC "-//W3C//DTD SVG 1.1//EN" "http://www.w3.org/Graphics/SVG/1.1/DTD/svg11.dtd">
<svg version="1.1" id="pencil" xmlns="http://www.w3.org/2000/svg" xmlns:xlink="http://www.w3.org/1999/xlink" x="0px" y="0px"
	 width="1709.928px" height="252.667px" viewBox="-0.5 -9.507 1709.928 252.667"
	 enable-background="new -0.5 -9.507 1709.928 252.667" xml:space="preserve">
<g>
	<path fill="#FFCF7A" d="M430.926,115.579c0,43.733-13.436,83.306-41.276,117.845l1122.153,0.902V-3.168H386.94
		C414.78,30.832,430.926,71.844,430.926,115.579z"/>
	<g>
		<path fill="#FFC75E" d="M1516.801,86.832v-90H390.94c21.356,26,35.826,57,41.425,90H1516.801z"/>
	</g>
	<path fill="none" stroke="#6F0F11" stroke-width="12" stroke-linecap="round" stroke-linejoin="round" stroke-miterlimit="10" d="
		M434.965,116.832c0,44.07-16.16,85-44.024,120h1119.862v-240H390.94C418.805,30.832,434.965,72.76,434.965,116.832z"/>
</g>
<path fill="#E0F3F5" d="M1437.461-8.168h-94c21.891,35,34.582,76.183,34.582,120.5c0,44.316-12.691,85.5-34.582,120.5h94
	c21.891-35,34.582-76.184,34.582-120.5C1472.043,68.014,1459.35,26.832,1437.461-8.168z"/>
<g>
	<path fill="#FFF8EE" d="M442.64,118.211c0-49.135-20.345-92.933-55.699-121.719L2.5,116.675l384.44,120.817
		C420.752,208.701,442.64,166.094,442.64,118.211z"/>
	<path fill="#FFF8EE" d="M386.359,236.735"/>
	<path fill="#FFF0D9" d="M440.067,88.045c0.25,0.303,0.486,0.614,0.733,0.918c-7.442-36.966-25.466-69.242-51.86-92.472
		L31.167,108.159L440.067,88.045z"/>
	<g>
		<path fill="#6F0F11" d="M101.5,113.827c0-10.606-3.284-19.869-10.916-26.083L7.5,113.675l82.751,25.984
			C97.547,133.445,101.5,124.16,101.5,113.827z"/>
	</g>
</g>
<g id="Isolation_Mode_1_">
	<path fill="none" stroke="#6F0F11" stroke-width="12" stroke-linecap="round" stroke-linejoin="round" stroke-miterlimit="10" d="
		M445.64,118.044c0-49.067-20.345-92.804-55.699-121.551L5.5,116.509L389.94,237.16C423.752,208.409,445.64,165.861,445.64,118.044z
		"/>
</g>
<g>
	<path fill="#F48B87" d="M1583.284-5.168h-141.82c21.889,35,34.582,76.183,34.582,120.5c0,44.316-12.693,85.5-34.582,120.5h141.82
		c66.633,0,120.645-53.869,120.645-120.5C1703.926,48.7,1649.917-5.168,1583.284-5.168z"/>
	<g>
		<path fill="#EB7778" d="M1609.284,82.832c38.506,0,72.797,17.819,94.885,45.865c0.496-4.443,0.76-8.873,0.76-13.45
			c0-66.632-54.012-120.415-120.645-120.415h-141.82c16.434,26,27.684,56,32.27,88H1609.284z"/>
	</g>
	<path fill="none" stroke="#6F0F11" stroke-width="11" stroke-miterlimit="10" d="M1583.284-3.668h-141.82
		c21.889,35,34.582,76.183,34.582,120.5c0,44.316-12.693,85.5-34.582,120.5h141.82c66.633,0,120.645-53.869,120.645-120.5
		C1703.926,50.2,1649.917-3.668,1583.284-3.668z"/>
</g>
<g>
	<path fill="#DCF1F6" d="M1470.461,83.832c0.338,0,0.664,1.083,0.998,1.625c-4.023-34.092-15.604-66.625-32.998-93.625h-94
		c17.117,27,28.611,58,32.811,92H1470.461z"/>
</g>
<path fill="none" stroke="#6F0F11" stroke-width="12" stroke-linecap="round" stroke-linejoin="round" stroke-miterlimit="10" d="
	M1440.657-2.669h-96.193c22.398,34.771,35.389,75.683,35.389,119.709c0,44.025-12.99,84.938-35.389,119.708h96.193
	c22.396-34.77,35.389-75.683,35.389-119.708C1476.043,73.013,1463.053,32.102,1440.657-2.669z"/>
</svg>
