<?xml version="1.0" encoding="utf-8"?>
<!-- Generator: Adobe Illustrator 16.0.0, SVG Export Plug-In . SVG Version: 6.00 Build 0)  -->
<!DOCTYPE svg PUBLIC "-//W3C//DTD SVG 1.1//EN" "http://www.w3.org/Graphics/SVG/1.1/DTD/svg11.dtd">
<svg version="1.1" xmlns="http://www.w3.org/2000/svg" xmlns:xlink="http://www.w3.org/1999/xlink" x="0px" y="0px"
	 width="1359.984px" height="1087px" viewBox="-1662.652 1241.751 1359.984 1087"
	 enable-background="new -1662.652 1241.751 1359.984 1087" xml:space="preserve">
<g id="pencil-a">
	<g id="Layer_1">
		<g id="Layer_2_1_">
			
				<ellipse fill="#DDFEFD" stroke="#6F0F11" stroke-width="9.2889" stroke-linecap="round" stroke-linejoin="round" stroke-miterlimit="10" cx="-993.688" cy="1791.546" rx="446.141" ry="462.636"/>
		</g>
		<g id="pencil">
			<g>
				<path fill="#FFCF7A" d="M-607.835,1471.995c-21.134-30.562-31.202-64.947-29.132-103.035l-756.654,561.698l114.767,165.963
					l758.044-563.685C-556,1523.128-586.7,1502.558-607.835,1471.995z"/>
				<g>
					<path fill="#FFC75E" d="M-1325.714,2036.233l43.492,62.895l758.719-564.188c-26.956-7.468-51.688-21.88-71.409-42.135
						L-1325.714,2036.233z"/>
				</g>
				
					<path fill="none" stroke="#6F0F11" stroke-width="10.1334" stroke-linecap="round" stroke-linejoin="round" stroke-miterlimit="10" d="
					M-611.163,1473.144c-21.296-30.796-30.184-67.498-28.321-105.917l-754.676,561.181l115.981,167.714l754.674-561.182
					C-558.712,1525.144-589.865,1503.94-611.163,1473.144z"/>
			</g>
			<path fill="#E0F3F5" d="M-1226.338,2062.862l63.348-47.104c-31.666-13.487-60.121-35.909-81.537-66.876
				c-21.415-30.97-32.765-66.11-34.928-101.54l-63.347,47.106c2.162,35.43,13.512,70.566,34.927,101.537
				C-1286.459,2026.954-1258.002,2049.372-1226.338,2062.862z"/>
			<g>
				<path fill="#FFF8EE" d="M-617.002,1476.026c23.746,34.336,58.621,54.748,96.357,57.147l200.997-276.635l-317.458,108.22
					C-645.979,1401.821-640.14,1442.564-617.002,1476.026z"/>
				<path fill="#FFF8EE" d="M-636.35,1364.997"/>
				<path fill="#FFF0D9" d="M-600.688,1495.817c-0.316-0.086-0.624-0.187-0.938-0.275c22.878,22.104,50.622,35.627,79.636,38.634
					l187.14-257.321L-600.688,1495.817z"/>
				<g>
					<path fill="#6F0F11" d="M-384.988,1308.139c5.125,7.411,11.814,12.239,19.959,12.758l43.459-59.755l-68.322,23.308
						C-391.804,1292.449-389.982,1300.918-384.988,1308.139z"/>
				</g>
			</g>
			<g id="Isolation_Mode_1_">
				
					<path fill="none" stroke="#6F0F11" stroke-width="10.1334" stroke-linecap="round" stroke-linejoin="round" stroke-miterlimit="10" d="
					M-618.943,1477.646c23.713,34.289,58.558,54.658,96.277,57.03l201.077-276.517l-317.379,108.335
					C-647.861,1403.528-642.048,1444.23-618.943,1477.646z"/>
			</g>
			<g>
				<path fill="#F48B87" d="M-1326.059,2133.842l95.574-71.069c-31.668-13.49-60.121-35.909-81.537-66.877
					c-21.416-30.969-32.765-66.11-34.928-101.536l-95.571,71.066c-44.903,33.391-55.271,98.103-23.072,144.665
					C-1433.391,2156.651-1370.963,2167.23-1326.059,2133.842z"/>
				<g>
					<path fill="#EB7778" d="M-1386.106,2085.374c-25.948,19.295-57.667,24.026-86.107,15.497c1.814,3.351,3.777,6.579,5.988,9.777
						c32.201,46.562,94.59,57.082,139.493,23.691l95.572-71.068c-23.639-9.933-45.719-25.26-64.272-45.324L-1386.106,2085.374z"/>
				</g>
				<path fill="none" stroke="#6F0F11" stroke-width="9.2889" stroke-miterlimit="10" d="M-1326.784,2132.793l95.573-71.068
					c-31.667-13.488-60.121-35.909-81.538-66.878c-21.415-30.968-32.764-66.108-34.925-101.534l-95.574,71.066
					c-44.902,33.391-55.27,98.102-23.072,144.664C-1434.116,2155.604-1371.688,2166.182-1326.784,2132.793z"/>
			</g>
			<g>
				<path fill="#DCF1F6" d="M-1293.036,2015.108c-0.228,0.169-0.971-0.424-1.458-0.635c19.188,21.808,42.711,38.739,67.481,48.891
					l63.347-47.104c-24.584-10.292-47.31-26.194-66.57-47.85L-1293.036,2015.108z"/>
			</g>
			
				<path fill="none" stroke="#6F0F11" stroke-width="10.1334" stroke-linecap="round" stroke-linejoin="round" stroke-miterlimit="10" d="
				M-1231.15,2060.621l64.824-48.204c-31.896-13.074-60.422-35.154-81.699-65.92c-21.274-30.766-32.29-65.866-34.001-101.388
				l-64.823,48.203c1.711,35.521,12.727,70.623,34,101.387C-1291.569,2025.465-1263.046,2047.545-1231.15,2060.621z"/>
		</g>
	</g>
</g>
<g id="light_1_">
</g>
</svg>
