<?xml version="1.0" encoding="UTF-8" standalone="no"?>
<svg width="194px" height="71px" viewBox="0 0 194 71" version="1.1" xmlns="http://www.w3.org/2000/svg" xmlns:xlink="http://www.w3.org/1999/xlink">
    <!-- Generator: Sketch 39.1 (31720) - http://www.bohemiancoding.com/sketch -->
    <title>Fill 1</title>
    <desc>Created with Sketch.</desc>
    <defs></defs>
    <g id="Page-1" stroke="none" stroke-width="1" fill="none" fill-rule="evenodd">
        <g id="Desktop" transform="translate(-852.000000, -227.000000)" fill="#DDFEFD">
            <g id="first-page" transform="translate(-272.000000, 13.000000)">
                <g id="clouds" transform="translate(0.000000, 181.000000)">
                    <g id="Page-1" transform="translate(985.000000, 33.000000)">
                        <path d="M315.444638,34.954991 L298.884711,34.954991 C301.297188,31.3779302 302.705874,27.0685624 302.705874,22.4294526 C302.705874,10.0419863 292.663306,0 280.276422,0 L212.696773,0 C200.309306,0 190.26732,10.0419863 190.26732,22.4294526 C190.26732,27.0685624 191.676006,31.3779302 194.087901,34.954991 L156.555562,34.954991 C146.85963,34.954991 139,42.8146207 139,52.5105526 L139,52.9370035 C139,62.6329354 146.85963,70.4925652 156.555562,70.4925652 L315.444638,70.4925652 C325.14057,70.4925652 333.0002,62.6329354 333.0002,52.9370035 L333.0002,52.5105526 C333.0002,42.8146207 325.14057,34.954991 315.444638,34.954991" id="Fill-1"></path>
                    </g>
                </g>
            </g>
        </g>
    </g>
</svg>