<?xml version="1.0" encoding="UTF-8" standalone="no"?>
<svg width="227px" height="95px" viewBox="0 0 227 95" version="1.1" xmlns="http://www.w3.org/2000/svg" xmlns:xlink="http://www.w3.org/1999/xlink">
    <!-- Generator: Sketch 39.1 (31720) - http://www.bohemiancoding.com/sketch -->
    <title>Page 1</title>
    <desc>Created with Sketch.</desc>
    <defs>
        <polygon id="path-1" points="113.499963 95 0 95 0 0 113.499963 0 226.999926 0 226.999926 95"></polygon>
    </defs>
    <g id="Page-1" stroke="none" stroke-width="1" fill="none" fill-rule="evenodd">
        <g id="Desktop" transform="translate(-144.000000, -371.000000)">
            <g id="first-page" transform="translate(-272.000000, 13.000000)">
                <g id="clouds" transform="translate(0.000000, 181.000000)">
                    <g id="Page-1" transform="translate(416.000000, 177.000000)">
                        <mask id="mask-2" fill="white">
                            <use xlink:href="#path-1"></use>
                        </mask>
                        <g id="Clip-2"></g>
                        <path d="M206.488855,27.9844961 L172.402004,27.9844961 C173.388128,25.6013953 173.934991,22.9907364 173.934991,20.251938 C173.934991,9.06697674 164.860887,0 153.667134,0 L92.4950562,0 C81.3013029,0 72.227199,9.06697674 72.227199,20.251938 C72.227199,22.9907364 72.7740627,25.6013953 73.7609231,27.9844961 L20.5109977,27.9844961 C9.18310812,27.9844961 -7.37012987e-05,37.1604651 -7.37012987e-05,48.4794574 L-7.37012987e-05,48.729845 C-7.37012987e-05,60.0488372 9.18310812,69.2248062 20.5109977,69.2248062 L56.7823549,69.2248062 C56.2848711,70.9812016 56.0129133,72.8325969 56.0129133,74.748062 C56.0129133,85.9330233 65.0870172,95 76.2807705,95 L134.504796,95 C145.69855,95 154.772654,85.9330233 154.772654,74.748062 C154.772654,72.8325969 154.500696,70.9812016 154.003212,69.2248062 L206.488855,69.2248062 C217.816744,69.2248062 226.999926,60.0488372 226.999926,48.729845 L226.999926,48.4794574 C226.999926,37.1604651 217.816744,27.9844961 206.488855,27.9844961" id="Fill-1" fill="#DDFEFD" mask="url(#mask-2)"></path>
                    </g>
                </g>
            </g>
        </g>
    </g>
</svg>