<?xml version="1.0" encoding="utf-8"?>
<!-- Generator: Adobe Illustrator 16.0.0, SVG Export Plug-In . SVG Version: 6.00 Build 0)  -->
<!DOCTYPE svg PUBLIC "-//W3C//DTD SVG 1.1//EN" "http://www.w3.org/Graphics/SVG/1.1/DTD/svg11.dtd">
<svg version="1.1" id="milk" xmlns="http://www.w3.org/2000/svg" xmlns:xlink="http://www.w3.org/1999/xlink" x="0px" y="0px"
	 width="500px" height="300px" viewBox="189 5.472 500 300" enable-background="new 189 5.472 500 300" xml:space="preserve">
<g>
	<g>
		<path fill="#FFEA94" d="M467.254,28.906c0,8.517-6.662,15.421-14.879,15.421h-32.73c-8.217,0-14.879-6.904-14.879-15.421v-2.98
			c0-8.518-6.143-15.421,2.074-15.421h58.651c8.218,0,1.763,6.903,1.763,15.421V28.906z"/>
		<path fill="#F7DA5E" d="M464.894,10.505h-4.828c2.379,2.153-1.654,8.026-1.654,14.94v3.06c0,8.739-6.659,15.823-14.878,15.823
			h8.245c8.218,0,14.878-6.904,14.878-15.421v-2.98C466.655,17.408,473.111,10.505,464.894,10.505z"/>
		<path fill="none" stroke="#580703" stroke-width="4" stroke-linecap="round" stroke-linejoin="round" stroke-miterlimit="10" d="
			M467.254,28.906c0,8.517-6.662,15.421-14.879,15.421h-32.73c-8.217,0-14.879-6.904-14.879-15.421v-2.98
			c0-8.518-6.143-15.421,2.074-15.421h58.651c8.218,0,1.763,6.903,1.763,15.421V28.906z"/>
	</g>
	<path fill="#D4F4FC" d="M481.158,60.435c-5.855-7.206-9.822-16.007-11.143-25.654H399.91c-1.361,9.824-5.467,18.768-11.516,26.038
		c-10.934,9.172-17.891,22.931-17.891,38.317v146.326c0,27.612,22.387,50,50,50h29c27.615,0,50-22.388,50-50V99.136
		C499.504,83.533,492.356,69.604,481.158,60.435z"/>
	<path fill="#D9FCFF" d="M480.024,28.478c0,3.481-2.822,6.303-6.304,6.303h-76.688c-3.481,0-6.303-2.821-6.303-6.303l0,0
		c0-3.479,2.821-6.302,6.303-6.302h76.688C477.201,22.176,480.024,24.998,480.024,28.478L480.024,28.478z"/>
	<path fill="#FFFFFF" d="M401.984,173.941c51.5,24,59-79,98.5-46c0,4,0,117.522,0,117.522c0,27.615-22.387,50-50,50h-29
		c-27.613,0-50-22.385-50-50v-39.521C371.484,190.338,371.297,160.441,401.984,173.941z"/>
	<path opacity="0.1" fill="#59C6FC" enable-background="new    " d="M481.158,60.435c-5.855-7.206-9.822-16.007-11.143-25.654
		H399.91c0,0.006-0.001,0.011-0.002,0.017h59.576c1.322,9.646,5.288,18.448,11.143,25.653c11.198,9.17,18.349,23.101,18.349,38.702
		v146.326c0,27.408-22.056,49.652-49.384,49.984h9.912c27.615,0,50-22.385,50-50V99.137
		C499.504,83.535,492.356,69.605,481.158,60.435z"/>
	<path fill="none" stroke="#580703" stroke-width="4" stroke-linecap="round" stroke-linejoin="round" stroke-miterlimit="10" d="
		M482.137,61.422c-5.854-7.206-9.819-16.007-11.143-25.654h-70.104c-1.362,9.824-5.467,18.768-11.516,26.038
		c-10.935,9.172-17.891,22.93-17.891,38.318v146.324c0,27.615,22.387,50,50,50h29c27.613,0,50-22.385,50-50V100.124
		C500.484,84.522,493.336,70.591,482.137,61.422z"/>
	<path opacity="0.1" fill="#59C6FC" enable-background="new    " d="M471.899,23.099l-18.481,0.154c4.76,0,7.422,3.201,7.422,6.915
		c0,2.424-0.451,4.352-2.914,5.535H471.9c4.461,0,8.076-2.821,8.076-6.304C479.976,25.921,476.359,23.099,471.899,23.099z"/>
	<path fill="none" stroke="#580703" stroke-width="4" stroke-linecap="round" stroke-linejoin="round" stroke-miterlimit="10" d="
		M479.978,29.404c0,3.481-2.822,6.304-6.304,6.304h-76.688c-3.481,0-6.303-2.822-6.303-6.304l0,0c0-3.479,2.821-6.302,6.303-6.302
		h76.688C477.154,23.102,479.978,25.923,479.978,29.404L479.978,29.404z"/>
	
		<ellipse transform="matrix(0.3304 -0.9439 0.9439 0.3304 181.7684 427.6306)" fill="#FFFFFF" cx="392.258" cy="85.714" rx="13.343" ry="9.51"/>
	
		<ellipse transform="matrix(0.3304 -0.9438 0.9438 0.3304 210.6134 424.2172)" fill="#FFFFFF" cx="404.289" cy="63.671" rx="5.276" ry="4.521"/>
	<circle fill="#580703" cx="397.942" cy="129.168" r="4.309"/>
	<circle fill="#580703" cx="434.49" cy="129.168" r="4.309"/>
</g>
<path fill="#511B1B" d="M430.291,143.643c0,7.18-5.82,13-13,13c-7.181,0-13-5.82-13-13S430.291,136.463,430.291,143.643z"/>
</svg>
