<?xml version="1.0" encoding="utf-8"?>
<!-- Generator: Adobe Illustrator 16.0.0, SVG Export Plug-In . SVG Version: 6.00 Build 0)  -->
<!DOCTYPE svg PUBLIC "-//W3C//DTD SVG 1.1//EN" "http://www.w3.org/Graphics/SVG/1.1/DTD/svg11.dtd">
<svg version="1.1" id="mushhead" xmlns="http://www.w3.org/2000/svg" xmlns:xlink="http://www.w3.org/1999/xlink" x="0px" y="0px"
	 width="526.444px" height="948.439px" viewBox="0 0 526.444 948.439" enable-background="new 0 0 526.444 948.439"
	 xml:space="preserve">
<g id="Isolation_Mode_3_">
	<path fill="#8BE9ED" d="M418.286,751.904c57.277-0.068,103.741,42.926,103.814,95.988l0,0
		c0.067,53.068-46.283,96.139-103.562,96.191l-311.069,0.293c-57.255,0.055-103.741-42.93-103.813-95.992l0,0
		c-0.081-53.072,46.294-96.139,103.56-96.197L418.286,751.904z"/>
	<path fill="#65E5E5" d="M426.674,749.967l-84.497,0.076c55.373,1.936,99.633,44.125,99.704,95.91
		c0.067,53.068-46.283,97.803-103.562,97.855h88.012c57.279-0.053,102.863-43.324,95.771-95.916
		C515.062,795.709,483.951,749.896,426.674,749.967z"/>
	<path fill="none" stroke="#6F0F11" stroke-width="8" stroke-miterlimit="10" d="M418.634,757.817
		c57.277-0.07,103.74,41.614,103.811,93.061l0,0c0.066,51.453-46.285,93.213-103.564,93.266l-311.07,0.296
		C50.555,944.494,4.07,902.82,4,851.374l0,0c-0.08-51.456,46.297-93.215,103.562-93.272L418.634,757.817z"/>
	<path fill="#C4F6FF" d="M508.33,768.904c0,13.311-13.031,24.1-29.106,24.1H46.532c-16.075,0-29.106-10.789-29.106-24.1l0,0
		c0-13.309,13.031-24.1,29.106-24.1h432.691C495.299,744.805,508.33,755.596,508.33,768.904L508.33,768.904z"/>
	<path fill="#A8EDF4" d="M483.128,744.439l-62.369,0.002c11.782,0,21.333,10.791,21.333,24.1c0,13.303-9.542,24.088-21.315,24.098
		h62.352c11.782,0,21.333-10.789,21.333-24.1C504.461,755.23,494.91,744.439,483.128,744.439z"/>
	<path fill="none" stroke="#6F0F11" stroke-width="8" stroke-linecap="round" stroke-linejoin="round" stroke-miterlimit="10" d="
		M505.049,768.904c0,13.311-13.031,24.1-29.106,24.1H43.251c-16.075,0-29.106-10.789-29.106-24.1l0,0
		c0-13.309,13.031-24.1,29.106-24.1h432.691C492.018,744.805,505.049,755.596,505.049,768.904L505.049,768.904z"/>
</g>
<g>
	
		<path fill="#FFE653" stroke="#6F0F11" stroke-width="8" stroke-linecap="round" stroke-linejoin="round" stroke-miterlimit="10" d="
		M309.561,630.777c-1.328-27.582-22.385-49.998-49.997-49.998c-27.229,0-49.359,21.773-49.967,48.857
		c-0.019,0.359-0.029,0.732-0.029,1.141c0,45.814,49.996,84.17,49.996,84.17C265.85,695.697,311.574,672.617,309.561,630.777z"/>
	<path fill="#FF8E39" d="M282.85,631.527c-0.577-12.002-9.741-21.758-21.758-21.758c-11.85,0-21.479,9.477-21.744,21.262
		c-0.008,0.156-0.013,0.318-0.013,0.496c0,19.938,21.757,36.631,21.757,36.631C263.828,659.779,283.727,649.736,282.85,631.527z"/>
</g>
<path fill="#C0F9E1" stroke="#6F0F11" stroke-width="8" stroke-linecap="round" stroke-linejoin="round" stroke-miterlimit="10" d="
	M317.068,596.807c0,12.762-14.888,23.109-33.253,23.109H237.82c-18.365,0-33.253-10.348-33.253-23.109l0,0
	c0-12.764,14.888-23.111,33.253-23.111h45.995C302.181,573.695,317.068,584.043,317.068,596.807L317.068,596.807z"/>
<g id="mushbody">
	<path fill="#FFECCA" d="M434.403,501.527c0,131.01-346.72,131.01-346.72,0c0-131.007,77.615-237.208,173.361-237.208
		C356.788,264.319,434.403,370.52,434.403,501.527z"/>
	<path fill="#FCD8BE" d="M264.691,263.306c-8.873,0-17.59,0.917-26.104,2.676c83.357,17.227,147.254,115.666,147.254,234.534
		c0,58.906-70.098,91.32-147.256,97.254c94.443,7.264,199.464-25.15,199.464-97.254C438.05,369.507,360.435,263.306,264.691,263.306
		z"/>
	<path fill="none" stroke="#6F0F11" stroke-width="8" stroke-linecap="round" stroke-linejoin="round" stroke-miterlimit="10" d="
		M438.05,500.516c0,131.01-346.72,131.01-346.72,0c0-131.008,77.615-237.209,173.361-237.209
		C360.435,263.306,438.05,369.507,438.05,500.516z"/>
</g>
<path display="none" fill="#6F0F11" d="M294.805,489.159c0,17.683-14.333,32.016-32.018,32.016
	c-17.683,0-32.017-14.333-32.017-32.016C230.771,471.476,294.805,471.476,294.805,489.159z"/>
<circle display="none" fill="#6F0F11" cx="194.233" cy="438.533" r="13.127"/>
<path fill="#FFECCA" stroke="#6F0F11" stroke-width="8" stroke-linecap="round" stroke-linejoin="round" stroke-miterlimit="10" d="
	M503.461,229.405c0,112.33-110.416,133.146-246.62,133.146c-136.205,0-246.621-20.816-246.621-133.146
	C10.22,117.074,120.636,4,256.841,4C393.045,4,503.461,117.074,503.461,229.405z"/>
<path fill="#F48B87" d="M371.379,31.905c-4.193,15.916-18.68,27.654-35.912,27.654c-20.514,0-37.142-16.629-37.142-37.143
	c0-5.043,1.01-9.85,2.831-14.234c-14.063-2.517-28.537-3.852-43.315-3.852C121.636,4.331,11.22,117.405,11.22,229.735
	c0,36.084,11.409,62.712,31.391,82.253c3.487-8.719,12.006-14.882,21.97-14.882c13.064,0,23.656,10.593,23.656,23.658
	c0,6.526-2.643,12.436-6.916,16.715c44.789,20.019,107.32,25.402,176.521,25.402c136.204,0,246.62-20.816,246.62-133.146
	C504.461,151.173,450.445,72.258,371.379,31.905z M129.104,199.636c-24.896,0-45.077-20.182-45.077-45.078
	c0-24.894,20.181-45.075,45.077-45.075c24.894,0,45.074,20.182,45.074,45.075C174.179,179.455,153.998,199.636,129.104,199.636z
	 M390.21,235.063c-13.617,0-24.655-11.038-24.655-24.655c0-13.615,11.038-24.654,24.655-24.654
	c13.616,0,24.654,11.039,24.654,24.654C414.864,224.025,403.826,235.063,390.21,235.063z"/>
<g>
	<path fill="#EB7778" d="M370.379,31.205c-0.439,1.666-0.997,3.284-1.653,4.85c53.444,43.335,87.383,105.821,87.383,168.089
		c0,112.33-110.416,133.146-246.621,133.146c-45.038,0-87.247-2.285-123.583-9.396c-1.184,3.377-3.107,6.406-5.584,8.887
		c44.789,20.018,107.32,25.402,176.521,25.402c136.204,0,246.62-20.816,246.62-133.147
		C503.461,150.474,449.445,71.559,370.379,31.205z"/>
</g>
<path fill="none" stroke="#6F0F11" stroke-width="8" stroke-linecap="round" stroke-linejoin="round" stroke-miterlimit="10" d="
	M369.873,31.637c-4.193,15.916-18.68,27.654-35.912,27.654c-20.514,0-37.142-16.629-37.142-37.143c0-5.043,1.01-9.85,2.831-14.234
	c-14.063-2.517-28.537-3.852-43.315-3.852C120.13,4.063,9.714,117.137,9.714,229.467c0,36.084,11.409,62.712,31.391,82.253
	c3.487-8.719,12.006-14.882,21.97-14.882c13.064,0,23.656,10.593,23.656,23.658c0,6.526-2.643,12.436-6.916,16.715
	c44.789,20.019,107.32,25.402,176.521,25.402c136.204,0,246.62-20.816,246.62-133.146
	C502.955,150.906,448.939,71.991,369.873,31.637z M127.599,199.369c-24.896,0-45.077-20.182-45.077-45.078
	c0-24.894,20.181-45.075,45.077-45.075c24.894,0,45.074,20.182,45.074,45.075C172.673,179.187,152.492,199.369,127.599,199.369z
	 M388.704,234.795c-13.617,0-24.655-11.038-24.655-24.655c0-13.615,11.038-24.654,24.655-24.654
	c13.616,0,24.654,11.039,24.654,24.654C413.358,223.757,402.32,234.795,388.704,234.795z"/>
<path fill="none" stroke="#FFFFFF" stroke-width="16" stroke-linecap="round" stroke-miterlimit="10" d="M121.958,75.06
	c-0.736,0.533-1.471,1.07-2.2,1.609 M174.457,44.94c-10.65,4.588-20.804,9.854-30.441,15.713"/>
<circle display="none" fill="#6F0F11" cx="322.566" cy="437.2" r="13.127"/>
<g id="eyes">
	<circle fill="#FCD8BE" cx="191.236" cy="460.629" r="41.5"/>
	<g>
		<g>
			<path fill="#FFFFFF" d="M223.202,459.537c-1.949,19.461-19.631,33.619-39.489,31.629c-19.861-1.99-34.374-19.375-32.425-38.836
				c1.951-19.46,19.625-33.619,39.488-31.629C210.632,422.69,225.15,440.076,223.202,459.537z"/>
		</g>
		<path fill="#E5D8D8" d="M205.435,429.52c5.242,6.324,8.051,14.622,7.18,23.389c-1.733,17.506-17.476,30.239-35.156,28.45
			c-5.488-0.555-10.513-2.448-14.787-5.312c5.224,6.306,12.865,10.651,21.691,11.547c17.681,1.789,33.423-10.947,35.161-28.453
			C220.721,447.066,214.938,435.884,205.435,429.52z"/>
		<path fill="none" stroke="#580703" stroke-width="8" stroke-miterlimit="10" d="M223.202,459.537
			c-1.949,19.461-19.631,33.619-39.489,31.629c-19.861-1.99-34.374-19.375-32.425-38.836c1.951-19.46,19.625-33.619,39.488-31.629
			C210.632,422.69,225.15,440.076,223.202,459.537z"/>
	</g>
	<circle fill="#FCD8BE" cx="320.056" cy="457.907" r="41.5"/>
	<g>
		<g>
			<path fill="#FFFFFF" d="M352.021,453.188c-1.949,19.46-19.631,33.618-39.488,31.629c-19.861-1.991-34.375-19.375-32.426-38.836
				c1.951-19.461,19.626-33.62,39.489-31.629C339.452,416.34,353.97,433.727,352.021,453.188z"/>
		</g>
		<path fill="#E5D8D8" d="M334.255,423.168c5.242,6.326,8.051,14.623,7.18,23.391c-1.733,17.505-17.476,30.238-35.156,28.449
			c-5.488-0.555-10.514-2.447-14.787-5.312c5.224,6.306,12.864,10.651,21.691,11.547c17.68,1.789,33.423-10.947,35.16-28.453
			C349.54,440.716,343.757,429.533,334.255,423.168z"/>
		<path fill="none" stroke="#580703" stroke-width="8" stroke-miterlimit="10" d="M352.021,455.911
			c-1.949,19.46-19.631,33.619-39.488,31.629c-19.861-1.99-34.375-19.375-32.426-38.836c1.951-19.46,19.626-33.62,39.489-31.629
			C339.452,419.064,353.97,436.45,352.021,455.911z"/>
	</g>
</g>
</svg>
