<?xml version="1.0" encoding="utf-8"?>
<!-- Generator: Adobe Illustrator 16.0.0, SVG Export Plug-In . SVG Version: 6.00 Build 0)  -->
<!DOCTYPE svg PUBLIC "-//W3C//DTD SVG 1.1//EN" "http://www.w3.org/Graphics/SVG/1.1/DTD/svg11.dtd">
<svg version="1.1" id="sugar" xmlns="http://www.w3.org/2000/svg" xmlns:xlink="http://www.w3.org/1999/xlink" x="0px" y="0px"
	 width="500px" height="300px" viewBox="0 0 530.277 320.069" enable-background="new 0 0 530.277 320.069"
	 xml:space="preserve">
<g>

		<polygon fill="#EBFCFC" stroke="#580703" stroke-width="4" stroke-linecap="round" stroke-linejoin="round" stroke-miterlimit="10" points="
		229.859,283.812 77.396,264.151 42.506,125.406 194.969,145.066 	"/>

		<polygon fill="#FAFFFF" stroke="#580703" stroke-width="4" stroke-linecap="round" stroke-linejoin="round" stroke-miterlimit="10" points="
		230.317,283.839 355.346,194.397 320.456,55.652 195.428,145.092 	"/>

		<polygon fill="#FFFFFF" stroke="#580703" stroke-width="4" stroke-linecap="round" stroke-linejoin="round" stroke-miterlimit="10" points="
		319.997,55.626 194.969,145.066 42.506,125.406 163.633,41.583 	"/>

		<path fill="#580703" stroke="#580703" stroke-width="1.1207" stroke-linecap="round" stroke-linejoin="round" stroke-miterlimit="10" d="
		M299.025,164.296c4.566,6.115,3.312,14.776-2.806,19.344c-6.116,4.566-14.778,3.311-19.345-2.807S294.458,158.178,299.025,164.296z
		"/>
	<circle fill="#580703" cx="261.071" cy="177.414" r="4.911"/>
	<circle fill="#580703" cx="300.627" cy="149.939" r="4.91"/>

		<polygon fill="#FAFFFF" stroke="#580703" stroke-width="3" stroke-linecap="round" stroke-linejoin="round" stroke-miterlimit="10" points="
		440.586,252.593 496.178,233.198 498.311,178.442 442.718,197.839 	"/>

		<polygon fill="#EBFCFC" stroke="#580703" stroke-width="3" stroke-linecap="round" stroke-linejoin="round" stroke-miterlimit="10" points="
		440.416,252.638 386.5,228.978 388.633,174.224 442.549,197.884 	"/>

		<polygon fill="#FFFFFF" stroke="#580703" stroke-width="3" stroke-linecap="round" stroke-linejoin="round" stroke-miterlimit="10" points="
		388.802,174.175 442.718,197.839 498.311,178.442 446.301,156.58 	"/>

		<path fill="#580703" stroke="#580703" stroke-width="0.525" stroke-linecap="round" stroke-linejoin="round" stroke-miterlimit="10" d="
		M406.577,212.481c-1.677,3.158-0.479,7.076,2.681,8.754c3.156,1.678,7.078,0.48,8.754-2.676
		C419.69,215.401,408.256,209.321,406.577,212.481z"/>
	<path fill="#580703" d="M425.48,217.458c0.297,1.725,1.934,2.877,3.656,2.582c1.724-0.297,2.88-1.934,2.584-3.656
		c-0.297-1.725-1.934-2.881-3.658-2.584C426.341,214.101,425.184,215.733,425.48,217.458z"/>
	<circle fill="#580703" cx="400.47" cy="203.791" r="3.166"/>
	<path fill="#8BE9ED" d="M379.455,73.236h6.23v-6.231c0-1.722,1.396-3.116,3.116-3.116s3.116,1.395,3.116,3.116v6.231h6.23
		c1.722,0,3.117,1.396,3.117,3.116s-1.396,3.116-3.117,3.116h-6.23V85.7c0,1.721-1.396,3.116-3.116,3.116s-3.116-1.395-3.116-3.116
		v-6.231h-6.23c-1.723,0-3.117-1.396-3.117-3.116S377.732,73.236,379.455,73.236z"/>
	<path fill="#8BE9ED" d="M189.827,6.446l3.467-0.8l-0.8-3.466c-0.222-0.958,0.376-1.913,1.334-2.134
		c0.957-0.221,1.912,0.375,2.133,1.333l0.801,3.467l3.467-0.8c0.957-0.221,1.912,0.376,2.133,1.333
		c0.221,0.958-0.375,1.914-1.334,2.134l-3.466,0.8l0.8,3.467c0.221,0.958-0.376,1.913-1.334,2.133
		c-0.957,0.221-1.912-0.375-2.133-1.333l-0.801-3.466l-3.467,0.8c-0.957,0.221-1.912-0.376-2.133-1.333S188.869,6.667,189.827,6.446
		z"/>
	<circle fill="#8BE9ED" cx="418.18" cy="129.237" r="3.831"/>
	<circle fill="#8BE9ED" cx="526.446" cy="206.956" r="3.831"/>
	<path fill="#8BE9ED" d="M2.487,106.224h4.974v-4.973c0-1.374,1.113-2.487,2.486-2.487c1.374,0,2.488,1.113,2.488,2.487v4.973h4.973
		c1.374,0,2.487,1.114,2.487,2.488c0,1.373-1.113,2.487-2.487,2.487h-4.973v4.973c0,1.374-1.114,2.487-2.488,2.487
		c-1.373,0-2.486-1.113-2.486-2.487v-4.973H2.487c-1.374,0-2.487-1.114-2.487-2.487C0,107.337,1.113,106.224,2.487,106.224z"/>
	<circle fill="#8BE9ED" cx="42.506" cy="76.353" r="3.831"/>
	<path fill="#8BE9ED" d="M251.346,302.737l5.709,1.934l1.932-5.709c0.533-1.578,2.246-2.422,3.823-1.889
		c1.575,0.533,2.423,2.246,1.888,3.822l-1.934,5.709l5.71,1.93c1.577,0.535,2.421,2.246,1.888,3.822s-2.245,2.424-3.821,1.889
		l-5.708-1.932l-1.933,5.709c-0.534,1.576-2.245,2.422-3.821,1.887c-1.577-0.533-2.422-2.244-1.889-3.82l1.933-5.709l-5.709-1.932
		c-1.576-0.535-2.423-2.244-1.888-3.82C248.059,303.05,249.77,302.204,251.346,302.737z"/>
	<circle fill="#8BE9ED" cx="390.027" cy="280.04" r="1.539"/>
	<circle fill="#8BE9ED" cx="333.278" cy="283.813" r="3.831"/>
</g>
</svg>
