<?xml version="1.0" encoding="utf-8"?>
<!-- Generator: Adobe Illustrator 16.0.0, SVG Export Plug-In . SVG Version: 6.00 Build 0)  -->
<!DOCTYPE svg PUBLIC "-//W3C//DTD SVG 1.1//EN" "http://www.w3.org/Graphics/SVG/1.1/DTD/svg11.dtd">
<svg version="1.1"
	 id="Layer_1" xmlns:rdf="http://www.w3.org/1999/02/22-rdf-syntax-ns#" xmlns:sodipodi="http://sodipodi.sourceforge.net/DTD/sodipodi-0.dtd" xmlns:dc="http://purl.org/dc/elements/1.1/" xmlns:svg="http://www.w3.org/2000/svg" xmlns:cc="http://creativecommons.org/ns#" xmlns:inkscape="http://www.inkscape.org/namespaces/inkscape"
	 xmlns="http://www.w3.org/2000/svg" xmlns:xlink="http://www.w3.org/1999/xlink" x="0px" y="0px" width="760.32px"
	 height="760.32px" viewBox="0 0 760.32 760.32" enable-background="new 0 0 760.32 760.32" xml:space="preserve">
<g transform="translate(0,-952.36218)">
	<path fill="#3A4857" d="M0,1332.522c0,209.752,170.408,380.16,380.16,380.16s380.16-170.408,380.16-380.16
		s-170.408-380.16-380.16-380.16S0,1122.77,0,1332.522z M725.76,1332.522c0,191.074-154.524,345.6-345.6,345.6
		s-345.6-154.525-345.6-345.6s154.525-345.6,345.6-345.6S725.76,1141.447,725.76,1332.522z M454.949,1129.482l-207.36,190.08
		c-0.434,0.392-0.848,0.806-1.241,1.241c-6.397,7.083-5.842,18.012,1.241,24.408l207.36,190.079c0.037,0.035,0.073,0.068,0.11,0.102
		c7.111,6.382,18.049,5.79,24.43-1.32c6.382-7.111,5.791-18.049-1.32-24.43l-193.319-177.12l193.319-177.39
		c3.564-3.138,5.679-7.603,5.851-12.348c0.343-9.538-7.111-17.549-16.649-17.892
		C462.785,1124.713,458.316,1126.364,454.949,1129.482z"/>
</g>
</svg>
