<?xml version="1.0" encoding="utf-8"?>
<!-- Generator: Adobe Illustrator 16.0.0, SVG Export Plug-In . SVG Version: 6.00 Build 0)  -->
<!DOCTYPE svg PUBLIC "-//W3C//DTD SVG 1.1//EN" "http://www.w3.org/Graphics/SVG/1.1/DTD/svg11.dtd">
<svg version="1.1"
	 id="Layer_1" xmlns:rdf="http://www.w3.org/1999/02/22-rdf-syntax-ns#" xmlns:sodipodi="http://sodipodi.sourceforge.net/DTD/sodipodi-0.dtd" xmlns:dc="http://purl.org/dc/elements/1.1/" xmlns:svg="http://www.w3.org/2000/svg" xmlns:cc="http://creativecommons.org/ns#" xmlns:inkscape="http://www.inkscape.org/namespaces/inkscape"
	 xmlns="http://www.w3.org/2000/svg" xmlns:xlink="http://www.w3.org/1999/xlink" x="0px" y="0px" width="760.32px"
	 height="760.32px" viewBox="0 0 760.32 760.32" enable-background="new 0 0 760.32 760.32" xml:space="preserve">
<g transform="translate(0,-952.36218)">
	<path fill="#3A4857" d="M380.16,952.362C170.408,952.362,0,1122.77,0,1332.522s170.408,380.16,380.16,380.16
		s380.16-170.408,380.16-380.16S589.912,952.362,380.16,952.362z M380.16,986.922c191.074,0,345.6,154.526,345.6,345.6
		s-154.524,345.6-345.6,345.6s-345.6-154.525-345.6-345.6C34.561,1141.447,189.086,986.922,380.16,986.922z M292.95,1124.892
		c-9.538,0.343-16.992,8.354-16.649,17.892c0.172,4.745,2.286,9.21,5.851,12.348l193.319,177.39l-193.319,177.12
		c-7.111,6.381-7.702,17.318-1.32,24.43c6.381,7.11,17.318,7.702,24.43,1.32c0.037-0.033,0.073-0.066,0.11-0.102l207.36-190.079
		c7.083-6.396,7.639-17.325,1.241-24.408c-0.394-0.436-0.808-0.85-1.241-1.241l-207.36-190.08
		C302.004,1126.364,297.535,1124.713,292.95,1124.892z"/>
</g>
</svg>
