<?xml version="1.0" encoding="utf-8"?>
<!-- Generator: Adobe Illustrator 16.0.0, SVG Export Plug-In . SVG Version: 6.00 Build 0)  -->
<!DOCTYPE svg PUBLIC "-//W3C//DTD SVG 1.1//EN" "http://www.w3.org/Graphics/SVG/1.1/DTD/svg11.dtd">
<svg version="1.1" id="Layer_1" xmlns="http://www.w3.org/2000/svg" xmlns:xlink="http://www.w3.org/1999/xlink" x="0px" y="0px"
	 width="500px" height="300px" viewBox="-395.399 4.314 500 300" enable-background="new -395.399 4.314 500 300"
	 xml:space="preserve">
<g id="eggs">
	<g>
		<path fill="#FFFFFF" d="M-95.88,30.268C4.733,37.547-84.573,138.549-9.772,157.927C65.032,177.3,50.743,295.524-47.421,264.823
			c-66.799-20.892-95.069,52.683-149.485,4.604c-36.082-31.879,3.552-90.772-78.01-83.004
			c-81.562,7.771-55.821-205.477,52.697-162.19C-130.987,60.625-135.979,27.366-95.88,30.268z"/>
		<circle fill="#F8E46B" cx="-142.563" cy="144.869" r="68.181"/>
		<path fill="#F9D832" d="M-126.042,77.702c22.576,11.111,38.117,34.336,38.117,61.2c0,37.656-30.523,68.183-68.179,68.183
			c-5.698,0-11.229-0.713-16.521-2.027c9.069,4.464,19.27,6.979,30.062,6.979c37.654,0,68.18-30.526,68.18-68.182
			C-74.384,111.9-96.372,85.088-126.042,77.702z"/>
		
			<circle fill="none" stroke="#580703" stroke-width="4.164" stroke-linecap="round" stroke-linejoin="round" stroke-miterlimit="10" cx="-142.563" cy="144.869" r="68.181"/>
		
			<path fill="none" stroke="#FFFFFF" stroke-width="4.164" stroke-linecap="round" stroke-linejoin="round" stroke-miterlimit="10" d="
			M-180.046,106.5c3.087-4.305,7.923-8.293,12.406-10.149"/>
		
			<path fill="none" stroke="#FFFFFF" stroke-width="4.164" stroke-linecap="round" stroke-linejoin="round" stroke-miterlimit="10" d="
			M-190.762,119.969c0.475-1.164,1.971-3.409,3.026-4.562"/>
		<circle fill="#511B1B" cx="-175.776" cy="146.058" r="5.581"/>
		<circle fill="#511B1B" cx="-118.36" cy="146.059" r="5.58"/>
		<path fill="#511B1B" d="M-132.249,159.165c0,8.104-6.568,14.67-14.671,14.67c-8.102,0-14.67-6.566-14.67-14.67
			C-161.59,151.065-132.249,151.065-132.249,159.165z"/>
		<g>
			<path fill="#F4F0E1" d="M-53.56,46.67c8.879,26.868-5.939,65.371,14.25,86.432C-48.081,106.385-33.345,67.924-53.56,46.67z"/>
			<path fill="#F4F0E1" d="M-282.182,173.585c-14.181,1.354-25.115-3.981-32.938-13.485c7.419,17.874,21.02,29.464,41.18,27.543
				c25.342-2.414,38.979,1.608,46.827,9.257C-232.376,180.925-243.996,169.948-282.182,173.585z"/>
			<path fill="#F4F0E1" d="M25.771,181.07c16.539,39.645-10.891,92.675-80.457,70.916c-66.797-20.891-95.07,52.684-149.484,4.604
				c-1.852-1.635-3.493-3.347-4.974-5.11c2.737,6.896,6.76,13.464,13.214,19.167c54.416,48.076,82.689-25.496,149.486-4.604
				C31.81,290.519,56.759,220.356,25.771,181.07z"/>
		</g>
		
			<path fill="none" stroke="#580703" stroke-width="4.164" stroke-linecap="round" stroke-linejoin="round" stroke-miterlimit="10" d="
			M-95.829,30.24C4.782,37.52-84.526,138.523-9.722,157.897c74.803,19.377,60.516,137.6-37.648,106.899
			c-66.797-20.894-95.07,52.681-149.486,4.604c-36.082-31.881,3.551-90.777-78.011-83.006
			c-49.545,4.721-59.495-72.117-35.346-123.464c1.107-2.354,2.285-4.655,3.536-6.894c0.287-0.514,0.577-1.022,0.872-1.53
			c16.501-28.388,44.756-45.811,83.636-30.299C-130.937,60.599-135.929,27.34-95.829,30.24z"/>
	</g>
</g>
</svg>
