<?xml version="1.0" encoding="utf-8"?>
<!-- Generator: Adobe Illustrator 16.0.0, SVG Export Plug-In . SVG Version: 6.00 Build 0)  -->
<!DOCTYPE svg PUBLIC "-//W3C//DTD SVG 1.1//EN" "http://www.w3.org/Graphics/SVG/1.1/DTD/svg11.dtd">
<svg version="1.1" xmlns="http://www.w3.org/2000/svg" xmlns:xlink="http://www.w3.org/1999/xlink" x="0px" y="0px"
	 width="862.192px" height="862.006px" viewBox="0 0 862.192 862.006" enable-background="new 0 0 862.192 862.006"
	 xml:space="preserve">
<g id="Layer_1">
</g>
<g id="head">
	<path fill="#FFDCC0" d="M855.023,544.303c22.992-229.423-141.887-365.577-359.912-387.424
		C282.773,135.601,98.401,230.639,67.679,447.528C32.72,480.381,10.648,520.014,6.226,564.135
		C-7.63,702.415,156.606,832.1,373.052,853.793c65.75,6.586,128.711,2.393,184.958-10.426
		C715.658,821.774,836.851,725.635,855.023,544.303z"/>
	<path fill="#FFE6CF" d="M71.988,451.12c72.27-231.763,287.327-303.653,511.304-243.526c88.496,23.753,165.455,64.66,222.91,120.043
		C744.373,229.725,628.826,171.36,492.486,157.7c-212.338-21.279-396.713,73.76-427.43,290.646
		c-10.612,9.971-20.012,20.576-28.11,31.73C47.438,469.618,59.147,459.938,71.988,451.12z"/>
	<path fill="#FFD0B0" d="M644.83,193.353c93.914,65.772,148.945,170.269,135.047,308.957
		C761.736,683.358,640.552,779.34,482.917,800.875c-56.246,12.795-119.208,16.969-184.958,10.375
		c-62.17-6.221-119.991-21.391-170.563-43.053c64.687,44.053,151.081,75.426,248.022,85.145
		c65.745,6.586,128.706,2.41,184.956-10.385C718.011,821.42,839.189,725.444,857.33,544.391
		C874.71,370.947,784.353,250.926,644.83,193.353z"/>
	
		<path fill="none" stroke="#580703" stroke-width="10.0332" stroke-linecap="round" stroke-linejoin="round" stroke-miterlimit="10" d="
		M855.031,544.225c23.01-229.644-141.93-365.927-360.066-387.787C282.533,135.153,98.071,230.292,67.324,447.401
		c-34.979,32.883-57.066,72.555-61.49,116.715C-8.037,702.532,156.27,832.336,372.817,854.04
		c65.778,6.584,128.329,1.342,186.255-7.771C716.699,820,836.841,725.729,855.031,544.225z"/>
	<path fill="none" stroke="#580703" stroke-width="10.0332" stroke-miterlimit="10" d="M57.514,546.797 M48.668,526.364
		c0.005,0.039,0.015,0.068,0.017,0.098C48.684,526.432,48.674,526.403,48.668,526.364z M229.391,557.1
		c-0.009,0.01-0.02,0.02-0.032,0.039C229.371,557.12,229.382,557.11,229.391,557.1z M226.246,562.155
		c-0.054,0.1-0.107,0.197-0.164,0.295C226.138,562.352,226.192,562.254,226.246,562.155z M223.49,567.534
		c-0.113,0.246-0.213,0.494-0.321,0.74C223.277,568.028,223.377,567.78,223.49,567.534z M220.666,574.637"/>
	<path fill="#F96E83" d="M394.417,649.161c-26.484,76.738-117.792,114.854-203.926,85.127
		C104.353,704.559,56,618.239,82.484,541.497c26.489-76.748,84.677-18.91,170.819,10.816
		C339.435,582.045,420.905,572.415,394.417,649.161z"/>
	<path fill="#FFFFFF" stroke="#580703" stroke-width="7.5249" stroke-miterlimit="10" d="M218.105,581.928
		c92.637,30.834,150.027,40.338,178.07,56.896c17.288-66.199-60.586-58.621-142.777-86.688
		c-81.407-27.793-137.667-80.502-165.617-20.658C118.693,535.854,159.91,562.557,218.105,581.928z"/>
	
		<path fill="none" stroke="#580703" stroke-width="10.0332" stroke-linecap="round" stroke-linejoin="round" stroke-miterlimit="10" d="
		M394.412,649.348c-26.49,76.746-117.797,114.863-203.93,85.125C104.346,704.75,55.99,618.43,82.479,541.688
		c26.489-76.754,84.676-18.91,170.809,10.816C339.42,582.231,420.901,572.6,394.412,649.348z"/>
</g>
<g id="eyes">
	<g id="Isolation_Mode">
		<path fill="#F2E6E5" d="M130.982,346.438c8.732,10.332,13.414,23.885,11.966,38.207c-2.893,28.596-29.122,49.401-58.582,46.472
			c-9.145-0.907-17.52-3.998-24.64-8.676c8.703,10.303,21.433,17.396,36.147,18.866c29.458,2.92,55.69-17.887,58.583-46.479
			C156.449,375.102,146.815,356.833,130.982,346.438z"/>
		<path fill="#FFD0B0" d="M451.539,560.842c-35.674,15.471-80.383-8.377-99.856-53.271
			C332.214,462.667,487.224,545.368,451.539,560.842z"/>
	</g>
	<path fill="#FFD0B0" d="M69.927,461.11c19.545,17.998,50.502,12.937,69.15-11.278C157.714,425.605,50.376,443.124,69.927,461.11z"
		/>
	<g>
		<g>
			<path fill="#FFFFFF" d="M530.669,462.79c-5.057,50.484-50.922,87.211-102.436,82.053c-51.522-5.164-89.176-50.264-84.12-100.748
				c5.066-50.485,50.91-87.215,102.438-82.052C498.066,367.204,535.728,412.305,530.669,462.79z"/>
		</g>
		<path fill="none" stroke="#580703" stroke-width="10.0332" stroke-miterlimit="10" d="M530.669,462.79
			c-5.057,50.484-50.922,87.211-102.436,82.053c-51.522-5.164-89.176-50.264-84.12-100.748
			c5.066-50.485,50.91-87.215,102.438-82.052C498.066,367.204,535.728,412.305,530.669,462.79z"/>
		<path fill="#F2E6E5" d="M484.578,384.916c13.6,16.41,20.891,37.933,18.631,60.677c-4.502,45.41-45.34,78.449-91.205,73.804
			c-14.236-1.439-27.268-6.35-38.359-13.781c13.551,16.359,33.372,27.637,56.275,29.957c45.865,4.635,86.703-28.402,91.205-73.812
			C524.23,430.439,509.23,401.428,484.578,384.916z"/>
	</g>
	<g>
		<path fill="#FFFFFF" d="M164.246,395.685c-3.41,34.019-34.312,58.771-69.022,55.293c-34.714-3.479-60.088-33.87-56.679-67.886
			c3.41-34.019,34.308-58.771,69.022-55.292C142.276,331.279,167.656,361.67,164.246,395.685z"/>
		
			<ellipse transform="matrix(0.995 0.0997 -0.0997 0.995 39.3272 -8.1688)" fill="none" stroke="#580703" stroke-width="10.0332" stroke-miterlimit="10" cx="101.393" cy="389.387" rx="63.168" ry="61.9"/>
	</g>
	
		<line fill="none" stroke="#580703" stroke-width="10.0332" stroke-linecap="round" stroke-linejoin="round" stroke-miterlimit="10" x1="307.719" y1="208.224" x2="315.092" y2="221.655"/>
	
		<line fill="none" stroke="#580703" stroke-width="10.0332" stroke-linecap="round" stroke-linejoin="round" stroke-miterlimit="10" x1="244.818" y1="174.72" x2="252.191" y2="188.15"/>
	
		<line fill="none" stroke="#580703" stroke-width="10.0332" stroke-linecap="round" stroke-linejoin="round" stroke-miterlimit="10" x1="242.16" y1="223.142" x2="249.533" y2="236.572"/>
	<g id="Isolation_Mode_1_">
		<path fill="#F2E6E5" d="M131.768,344.86c8.737,10.675,13.419,24.678,11.971,39.476c-2.894,29.544-29.13,51.033-58.595,48.015
			c-9.144-0.94-17.516-4.135-24.642-8.967c8.705,10.643,21.438,17.981,36.155,19.491c29.463,3.018,55.696-18.479,58.589-48.023
			C157.243,374.476,147.606,355.604,131.768,344.86z"/>
	</g>
	<circle fill="#8C5750" cx="89.335" cy="375.282" r="24.774"/>
	<circle fill="#FFFFFF" cx="80.557" cy="353.644" r="8.779"/>
	<path fill="#8C5750" d="M474.996,438.823c0,24.24-19.66,43.9-43.9,43.9c-24.245,0-43.899-19.66-43.899-43.9
		c0-24.243,19.655-43.9,43.899-43.9C455.335,394.923,474.996,414.58,474.996,438.823z"/>
	<circle fill="#FFFFFF" cx="416.085" cy="400.674" r="16.299"/>
</g>
<g id="crown">
	<path fill="#F8E46B" d="M752.603,162.935c-24.24,14.31-31.188,18.697-46.012,27.618c-17.754,7.16-33.348-2.572-37.428-13.406
		c-11.455-38.899-28.9-115.861-35.949-144.117c-7.051-28.252-14.879-40.415-44.086-11.192
		c-21.385,20.165-95.119,83.541-116.816,102.267c-12.014,9.879-20.111,13.215-28.994,4.27c-8.876-8.943-22.721-24.449-35.635-38.347
		c-12.918-13.898-15.824-9.832-22.799,6.486c-11.317,28.333-27.994,60.888-30.522,65.78l-0.079-0.02
		c-0.02,0.079-0.02,0.162-0.038,0.24c-0.152,0.302-0.246,0.475-0.246,0.475s0.108,0.032,0.167,0.049
		c-6.192,31.334,80.203,80.919,194.246,111.252c114.957,30.569,214.445,29.984,222.205-1.306c0,0,4.002-71.599,5.361-95.928
		C777.308,152.728,776.818,148.623,752.603,162.935z"/>
	<path fill="#F4CB64" d="M751.833,163.508c-1.312,0.773-2.547,1.504-3.762,2.224c-1.709,30.665-4.484,80.207-4.484,80.207
		c-7.748,31.29-107.244,31.876-222.197,1.305c-71.389-18.985-131.941-45.519-165.734-70.393
		c14.804,30.817,92.953,71.672,191.992,98.01c114.951,30.572,214.445,29.984,222.201-1.303c0,0,4.006-71.603,5.363-95.931
		C776.541,153.301,776.054,149.196,751.833,163.508z"/>
	
		<path fill="none" stroke="#580703" stroke-width="10.0332" stroke-linecap="round" stroke-linejoin="round" stroke-miterlimit="10" d="
		M354.166,163.038c-6.192,31.334,80.203,80.919,194.246,111.252c114.957,30.569,214.445,29.984,222.205-1.306
		c0,0,4.002-71.599,5.361-95.928c1.33-24.328,0.84-28.433-23.375-14.121c-24.24,14.31-31.188,18.697-46.012,27.618
		c-17.754,7.16-33.348-2.572-37.428-13.406c-11.455-38.899-28.9-115.861-35.949-144.117c-7.051-28.252-14.879-40.415-44.086-11.192
		c-21.385,20.165-95.119,83.541-116.816,102.267c-12.014,9.879-20.111,13.215-28.994,4.27c-8.876-8.943-22.721-24.449-35.635-38.347
		c-12.918-13.898-15.824-9.832-22.799,6.486c-11.317,28.333-30.601,65.76-30.601,65.76"/>
</g>
</svg>
