<?xml version="1.0" encoding="utf-8"?>
<!-- Generator: Adobe Illustrator 16.0.0, SVG Export Plug-In . SVG Version: 6.00 Build 0)  -->
<!DOCTYPE svg PUBLIC "-//W3C//DTD SVG 1.1//EN" "http://www.w3.org/Graphics/SVG/1.1/DTD/svg11.dtd">
<svg version="1.1" xmlns="http://www.w3.org/2000/svg" xmlns:xlink="http://www.w3.org/1999/xlink" x="0px" y="0px"
	 width="603.13px" height="499.856px" viewBox="-115.835 -26.768 603.13 499.856"
	 enable-background="new -115.835 -26.768 603.13 499.856" xml:space="preserve">
<g id="Layer_2">
	<circle fill="#FFF6BE" cx="184.588" cy="274.089" r="199"/>
</g>
<g id="Layer_1">
	<g id="Layer_1_1_">
	</g>
	<g id="left_arm">
		<path fill="#8BE9ED" d="M5.603,154.435c0.148-0.142,0.307-0.266,0.46-0.4c0.282-0.288,0.556-0.58,0.849-0.863
			c26.645-25.718,69.096-24.966,94.815,1.679c19.462,20.165,24.319,48.061,13.77,72.093c-0.405,1.307-0.998,2.563-1.772,3.74
			c-0.011,0.022-0.02,0.045-0.032,0.067c0.005-0.015,0.009-0.024,0.014-0.037c-0.589,0.892-1.273,1.734-2.072,2.507
			c-5.855,5.649-15.144,5.522-20.75-0.283c-4.727-4.896-5.305-12.265-1.863-17.842c5.143-13.387,2.471-29.125-8.143-40.124
			c-14.438-14.958-38.155-15.537-53.313-1.438c-0.496,0.675-1.043,1.327-1.667,1.931c-5.854,5.65-15.143,5.523-20.748-0.283
			C-0.455,169.375-0.252,160.087,5.603,154.435z"/>
		<path fill="#65DBDB" d="M26.59,173.426c15.158-14.099,38.875-13.521,53.313,1.438c10.613,10.999,13.286,26.735,8.143,40.121
			c-3.442,5.58-2.865,12.945,1.862,17.845c5.606,5.805,14.895,5.933,20.751,0.28c0.799-0.771,1.483-1.614,2.072-2.506
			c-0.005,0.015-0.008,0.025-0.014,0.037c0.013-0.022,0.021-0.045,0.032-0.067c0.154-0.232,0.293-0.47,0.432-0.709
			c-5.598,2.825-12.575,1.854-17.126-2.859c-4.727-4.896-5.305-12.262-1.862-17.842c5.143-13.385,2.471-29.123-8.143-40.122
			c-14.438-14.958-38.155-15.536-53.313-1.438c-0.496,0.674-1.043,1.327-1.667,1.93"/>
		<path fill="none" stroke="#580703" stroke-width="2" stroke-miterlimit="10" d="M5.527,154.371c0.148-0.142,0.308-0.266,0.46-0.4
			c0.283-0.289,0.556-0.58,0.85-0.864c26.645-25.716,69.096-24.966,94.814,1.68c19.461,20.165,24.318,48.061,13.769,72.093
			c-0.404,1.307-0.997,2.564-1.772,3.738c-0.01,0.023-0.02,0.047-0.032,0.07c0.006-0.015,0.008-0.023,0.014-0.039
			c-0.588,0.891-1.272,1.735-2.073,2.508c-5.854,5.65-15.144,5.523-20.75-0.281c-4.727-4.898-5.305-12.266-1.862-17.844
			c5.142-13.387,2.472-29.125-8.142-40.123c-14.438-14.958-38.155-15.538-53.314-1.439c-0.496,0.676-1.043,1.329-1.667,1.931
			c-5.854,5.651-15.143,5.524-20.748-0.283C-0.531,169.31-0.327,160.022,5.527,154.371z"/>
	</g>
	<g id="legs">
		<path fill="#8BE9ED" d="M187.656,412.527c0.195,0.354,0.41,0.692,0.617,1.043c0.09,0.182,0.167,0.369,0.268,0.549
			c3.955,7.111,12.875,9.699,19.927,5.779c7.057-3.923,9.572-12.865,5.616-19.979c-0.423-0.758-0.911-1.455-1.435-2.106
			c-9.724-18.277-3.057-41.046,15.113-51.146c3.663-2.035,7.516-3.379,11.42-4.119c-0.418,0.035-0.834,0.047-1.257,0.045
			c0.771,0.004,1.533-0.055,2.285-0.17c4.347-0.67,8.345-3.272,10.631-7.42c3.923-7.102,1.341-16.033-5.76-19.951
			c-3.656-2.016-7.793-2.301-11.483-1.143c-6.757,1.391-13.464,3.848-19.912,7.432C181.318,339.334,169.666,380.16,187.656,412.527z
			"/>
		<g>
			<path fill="#6CE0E5" d="M212.183,398.342c-7.539-14.172-5.219-31.039,4.672-42.613c-11.889,9.294-17.547,25.173-13.158,40.48
				c0.375,0.748,0.707,1.531,0.963,2.361c2.389,7.78-1.936,16.004-9.652,18.371c-1.599,0.489-3.216,0.674-4.799,0.614
				c4.5,4.826,11.812,6.195,17.793,2.871c7.057-3.922,9.572-12.864,5.616-19.979C213.194,399.691,212.706,398.994,212.183,398.342z"
				/>
		</g>
		<path fill="none" stroke="#580703" stroke-width="2" stroke-miterlimit="10" d="M186.677,412.82
			c0.195,0.354,0.409,0.692,0.617,1.041c0.089,0.184,0.167,0.369,0.267,0.549c3.956,7.113,12.875,9.699,19.928,5.779
			c7.056-3.923,9.57-12.865,5.615-19.979c-0.422-0.758-0.912-1.455-1.434-2.107c-9.725-18.274-3.057-41.043,15.11-51.145
			c3.456-1.922,7.086-3.219,10.762-3.98l1.521-0.209l0.61-0.133l-0.34,0.056c4.306-0.693,8.26-3.285,10.528-7.398
			c3.921-7.1,1.341-16.031-5.764-19.949c-3.651-2.018-7.789-2.301-11.479-1.143c-6.759,1.391-13.466,3.846-19.912,7.432
			C180.339,339.625,168.686,380.451,186.677,412.82z M239.081,342.73l-1.492,0.237c0.203-0.043,0.408-0.09,0.615-0.129
			L239.081,342.73z"/>
		<path fill="#8BE9ED" d="M94.446,401.072c0.178,0.364,0.375,0.711,0.565,1.069c0.081,0.188,0.148,0.377,0.24,0.562
			c3.605,7.295,12.387,10.312,19.623,6.74c7.238-3.574,10.188-12.384,6.582-19.683c-0.385-0.776-0.839-1.496-1.33-2.174
			c-8.823-18.729-1.057-41.145,17.582-50.35c3.759-1.855,7.672-3.013,11.606-3.562c-0.418,0.017-0.835,0.006-1.255-0.016
			c0.768,0.041,1.532,0.02,2.291-0.062c4.373-0.457,8.493-2.862,10.979-6.893c4.261-6.902,2.116-15.949-4.785-20.207
			c-3.552-2.19-7.67-2.676-11.414-1.699c-6.816,1.062-13.635,3.188-20.25,6.453C91.676,327.656,78.051,367.867,94.446,401.072z"/>
		<g>
			<path fill="#6CE0E5" d="M120.146,387.309c-7.54-14.172-5.219-31.039,4.672-42.612c-11.889,9.293-17.547,25.172-13.159,40.479
				c0.375,0.748,0.708,1.531,0.963,2.361c2.389,7.781-1.936,16.004-9.653,18.371c-1.599,0.49-3.215,0.674-4.798,0.615
				c4.5,4.825,11.812,6.194,17.793,2.87c7.056-3.922,9.573-12.864,5.616-19.979C121.157,388.658,120.668,387.961,120.146,387.309z"
				/>
		</g>
		<path fill="none" stroke="#580703" stroke-width="2" stroke-miterlimit="10" d="M94.456,401.316
			c0.178,0.364,0.374,0.713,0.565,1.069c0.081,0.188,0.148,0.377,0.24,0.562c3.605,7.295,12.388,10.312,19.624,6.74
			c7.238-3.574,10.186-12.386,6.581-19.683c-0.385-0.777-0.841-1.498-1.33-2.174c-8.822-18.729-1.057-41.145,17.581-50.352
			c3.547-1.75,7.233-2.869,10.943-3.451l1.527-0.136l0.618-0.104l-0.342,0.039c4.333-0.484,8.409-2.879,10.877-6.877
			c4.26-6.902,2.116-15.949-4.787-20.207c-3.55-2.191-7.668-2.676-11.413-1.699c-6.815,1.062-13.634,3.187-20.25,6.453
			C91.685,327.9,78.06,368.111,94.456,401.316z M150.206,333.859l-1.503,0.164c0.206-0.033,0.413-0.07,0.621-0.101L150.206,333.859z
			"/>
	</g>
	<g id="cape">
		<path fill="#FF868C" d="M264.446,143.292c0,0,67.154,55.195,121.143,35.211c-4.719,87.751-109.156,108.753-109.156,108.753
			s-22.496-161.912-12.1-150.602"/>
		<path fill="#F96E83" d="M263.021,142.527c1.545,29.497,27.961,142.348,27.961,142.348s17.481-5.229,37.733-17.574
			c-0.144-2.032-0.317-4.079-0.545-6.147C323.103,214.819,298.401,170.37,263.021,142.527z"/>
		<path fill="none" stroke="#580703" stroke-width="2" stroke-linecap="round" stroke-linejoin="round" stroke-miterlimit="10" d="
			M265.446,143.217c0,0,67.154,55.195,121.143,35.211c-4.719,87.751-109.156,108.753-109.156,108.753s-22.496-161.913-12.1-150.602"
			/>
	</g>
	<g id="Layer_16">
		<path fill="#8BE9ED" d="M312.446,253.108c0,78.831-58.16,127.001-136.989,127.001S17.498,337.758,17.498,258.929
			c0-78.831,69.02-123.733,157.958-164.285C254.286,94.644,312.446,174.281,312.446,253.108z"/>
		<path fill="#6CE0E5" d="M225.088,105.518c38.431,29.911,62.701,81.159,62.701,132.079c0,78.829-58.158,127.001-136.989,127.001
			c-31.152,0-62.345-6.621-88.688-19.485c30.14,23.039,72.114,34.998,114.005,34.998c78.831,0,136.989-48.17,136.989-127
			C313.106,191.757,277.874,129.923,225.088,105.518z"/>
		<path fill="none" stroke="#580703" stroke-width="2.3" stroke-miterlimit="10" d="M313.415,253.108
			c0,78.831-58.158,127.001-136.989,127.001c-78.829,0-157.958-42.353-157.958-121.183c0-78.83,69.02-123.732,157.958-164.284
			C255.256,94.644,313.415,174.281,313.415,253.108z"/>
		
			<circle fill="#FFFFFF" stroke="#580703" stroke-width="1.5" stroke-linecap="round" stroke-linejoin="round" stroke-miterlimit="10" cx="142.491" cy="185.218" r="2.123"/>
		
			<circle fill="#FFFFFF" stroke="#580703" stroke-width="1.5" stroke-linecap="round" stroke-linejoin="round" stroke-miterlimit="10" cx="125.188" cy="216.021" r="2.271"/>
		<g>
			<path fill="#6CE0E5" d="M143.771,277.981c1.329-4.278,3.04-8.282,5.045-11.961c-11.588,0.172-25.73-1.953-40.454-6.522
				c-14.669-4.554-27.488-10.781-36.931-17.455c-0.432,4.151-1.287,8.408-2.611,12.674c-3.115,10.035-8.315,18.599-14.556,24.863
				c-1.066,3.438,17.526,12.354,41.561,19.812c24.035,7.459,44.76,10.486,45.827,7.052
				C140.114,297.808,140.687,287.92,143.771,277.981z"/>
			<g>
				<path fill="none" stroke="#580703" stroke-width="1.5" stroke-linecap="round" stroke-linejoin="round" d="M147.013,269.59
					c0.57-1.221,1.172-2.411,1.803-3.567c-1.302,0.02-2.635,0.01-3.999-0.029"/>
				
					<path fill="none" stroke="#580703" stroke-width="1.5" stroke-linecap="round" stroke-linejoin="round" stroke-dasharray="8.2372,8.2372" d="
					M136.6,265.438c-8.754-0.91-18.365-2.875-28.237-5.939c-11.389-3.535-21.663-8.08-30.107-13.059"/>
				<path fill="none" stroke="#580703" stroke-width="1.5" stroke-linecap="round" stroke-linejoin="round" d="M74.747,244.278
					c-1.146-0.737-2.252-1.483-3.315-2.235c-0.136,1.312-0.315,2.633-0.537,3.963"/>
				
					<path fill="none" stroke="#580703" stroke-width="1.5" stroke-linecap="round" stroke-linejoin="round" stroke-dasharray="8.0943,8.0943" d="
					M69.072,253.89c-0.082,0.274-0.166,0.553-0.251,0.827c-3.115,10.035-8.315,18.599-14.556,24.863
					c-1.066,3.438,17.526,12.354,41.561,19.812c24.035,7.459,44.76,10.486,45.827,7.052c-1.538-8.638-0.965-18.523,2.119-28.462
					c0.496-1.598,1.045-3.155,1.644-4.674"/>
			</g>
		</g>
	</g>
	<g id="right_arm">
		<path fill="#8BE9ED" d="M341.333,111.006c-0.129-0.385-0.279-0.755-0.42-1.135c-0.057-0.196-0.1-0.393-0.164-0.588
			c-2.623-7.705-10.936-11.844-18.576-9.247c-7.643,2.597-11.717,10.947-9.096,18.652c0.281,0.821,0.637,1.595,1.033,2.33
			c6.303,19.72-4.326,40.93-24.008,47.622c-3.97,1.349-8,1.982-11.974,2.012c0.416,0.04,0.83,0.105,1.244,0.181
			c-0.756-0.14-1.519-0.22-2.279-0.239c-4.395-0.118-8.795,1.729-11.786,5.4c-5.125,6.285-4.181,15.534,2.104,20.658
			c3.233,2.637,7.254,3.655,11.094,3.177c6.896-0.161,13.937-1.379,20.92-3.755C334.489,184.155,353.25,146.068,341.333,111.006z"/>
		<path fill="#65DBDB" d="M342.375,110.73c-0.129-0.385-0.276-0.755-0.42-1.135c-0.058-0.196-0.099-0.393-0.164-0.588
			c-2.11-6.206-7.916-10.091-14.088-10.014c2.688,1.743,4.842,4.369,5.959,7.649c0.063,0.195,0.106,0.392,0.164,0.588
			c0.141,0.38,0.291,0.75,0.42,1.135c11.918,35.062-6.845,73.149-41.906,85.068c-6.983,2.376-14.022,3.594-20.92,3.755
			c-0.567,0.071-1.142,0.098-1.715,0.103c2.989,1.954,6.485,2.682,9.846,2.263c6.896-0.161,13.935-1.379,20.918-3.754
			C335.532,183.878,354.293,145.792,342.375,110.73z"/>
		<path fill="none" stroke="#580703" stroke-width="2" stroke-miterlimit="10" d="M342.349,110.894
			c-0.13-0.385-0.279-0.755-0.421-1.135c-0.057-0.196-0.1-0.393-0.163-0.588c-2.623-7.705-10.937-11.844-18.576-9.247
			c-7.644,2.597-11.717,10.947-9.097,18.652c0.279,0.821,0.638,1.595,1.033,2.33c6.301,19.72-4.326,40.93-24.008,47.622
			c-3.744,1.272-7.546,1.901-11.3,1.994l-1.532-0.066l-0.625,0.021l0.344,0.008c-4.356-0.086-8.713,1.755-11.683,5.396
			c-5.125,6.286-4.18,15.535,2.105,20.659c3.234,2.637,7.254,3.655,11.094,3.177c6.896-0.161,13.937-1.379,20.92-3.755
			C335.504,184.042,354.267,145.956,342.349,110.894z M278.263,170.489l1.512,0.034c-0.209,0.005-0.42,0.015-0.629,0.017
			L278.263,170.489z"/>
	</g>
	<g id="head">
		<path fill="#FFDCC0" d="M274.013,108.5c4.581-45.733-28.283-72.874-71.746-77.229c-42.327-4.242-79.079,14.703-85.203,57.937
			c-6.969,6.55-11.369,14.45-12.25,23.244c-2.762,27.565,29.977,53.417,73.123,57.74c13.106,1.313,25.658,0.478,36.869-2.078
			C246.231,163.811,270.39,144.646,274.013,108.5z"/>
		<path fill="#FFE6CF" d="M117.923,89.925c14.406-46.199,57.275-60.53,101.924-48.544c17.641,4.735,32.979,12.889,44.434,23.929
			c-12.324-19.518-35.357-31.152-62.535-33.875c-42.328-4.242-79.081,14.703-85.204,57.937c-2.115,1.988-3.989,4.102-5.604,6.325
			C113.029,93.612,115.363,91.683,117.923,89.925z"/>
		<path fill="#FFD0B0" d="M232.112,38.542c18.721,13.111,29.691,33.941,26.92,61.586c-3.615,36.09-27.771,55.223-59.195,59.516
			c-11.212,2.551-23.762,3.383-36.869,2.069c-12.393-1.241-23.919-4.264-34-8.583c12.895,8.781,30.117,15.036,49.44,16.973
			c13.106,1.313,25.657,0.481,36.868-2.07c31.424-4.292,55.58-23.424,59.195-59.515C277.937,73.943,259.924,50.019,232.112,38.542z"
			/>
		<path fill="none" stroke="#580703" stroke-width="2" stroke-linecap="round" stroke-linejoin="round" stroke-miterlimit="10" d="
			M274.015,108.484c4.586-45.776-28.293-72.943-71.775-77.3c-42.346-4.243-79.117,14.722-85.246,58
			c-6.973,6.555-11.375,14.463-12.257,23.266c-2.765,27.592,29.988,53.466,73.154,57.792c13.113,1.313,25.582,0.268,37.128-1.549
			C246.438,163.458,270.388,144.665,274.015,108.484z"/>
		<path fill="none" stroke="#580703" stroke-width="2" stroke-miterlimit="10" d="M113.274,104.924
			c0.001,0.007,0.003,0.014,0.003,0.02C113.277,104.938,113.275,104.931,113.274,104.924z M149.299,111.05
			c-0.002,0.002-0.004,0.005-0.006,0.009C149.295,111.055,149.297,111.053,149.299,111.05z M148.672,112.059
			c-0.011,0.02-0.021,0.039-0.033,0.059C148.651,112.098,148.662,112.078,148.672,112.059z M148.123,113.131
			c-0.022,0.048-0.042,0.098-0.064,0.147C148.081,113.229,148.101,113.18,148.123,113.131z"/>
		<path fill="#F96E83" d="M182.195,129.402c-5.28,15.297-23.48,22.896-40.65,16.97c-17.17-5.926-26.809-23.133-21.53-38.431
			c5.28-15.299,16.879-3.77,34.051,2.156C171.235,116.023,187.476,114.103,182.195,129.402z"/>
		<path fill="#FFFFFF" stroke="#580703" stroke-width="1.5" stroke-miterlimit="10" d="M147.05,116
			c18.466,6.146,29.906,8.041,35.496,11.341c3.447-13.196-12.077-11.685-28.461-17.28c-16.228-5.541-27.442-16.047-33.014-4.118
			C127.233,106.815,135.449,112.138,147.05,116z"/>
		<path fill="none" stroke="#580703" stroke-width="2" stroke-linecap="round" stroke-linejoin="round" stroke-miterlimit="10" d="
			M182.194,129.44c-5.28,15.298-23.481,22.896-40.651,16.969c-17.17-5.925-26.81-23.132-21.529-38.431
			c5.28-15.299,16.879-3.77,34.049,2.156C171.232,116.061,187.474,114.141,182.194,129.44z"/>
	</g>
	<g id="eyes">
		<g id="Isolation_Mode">
			<path fill="#F2E6E5" d="M129.683,69.058c1.741,2.06,2.674,4.761,2.385,7.616c-0.577,5.7-5.805,9.847-11.678,9.264
				c-1.823-0.181-3.492-0.797-4.912-1.73c1.735,2.054,4.272,3.468,7.206,3.76c5.872,0.582,11.101-3.565,11.678-9.265
				C134.759,74.771,132.839,71.13,129.683,69.058z"/>
			<path fill="#FFD0B0" d="M193.583,111.797c-7.112,3.084-16.024-1.67-19.906-10.62C169.796,92.227,200.696,108.712,193.583,111.797
				z"/>
		</g>
		<path fill="#FFD0B0" d="M117.512,91.916c3.896,3.587,10.067,2.579,13.784-2.248C135.011,84.839,113.615,88.331,117.512,91.916z"/>
		<g>
			<g>
				
					<ellipse transform="matrix(0.0997 -0.995 0.995 0.0997 81.8048 271.1813)" fill="#FFFFFF" cx="190.76" cy="90.385" rx="18.31" ry="18.687"/>
			</g>
			
				<ellipse transform="matrix(0.0997 -0.995 0.995 0.0997 81.8048 271.1813)" fill="none" stroke="#580703" stroke-width="2" stroke-miterlimit="10" cx="190.76" cy="90.385" rx="18.31" ry="18.687"/>
			<path fill="#F2E6E5" d="M200.168,76.728c2.711,3.271,4.163,7.562,3.713,12.095c-0.896,9.052-9.037,15.637-18.18,14.712
				c-2.837-0.287-5.436-1.266-7.646-2.747c2.701,3.261,6.652,5.508,11.218,5.971c9.142,0.925,17.283-5.661,18.181-14.713
				C208.073,85.802,205.083,80.02,200.168,76.728z"/>
		</g>
		<g>
			
				<ellipse transform="matrix(0.0997 -0.995 0.995 0.0997 34.2092 193.0469)" fill="#FFFFFF" cx="123.781" cy="77.62" rx="12.339" ry="12.591"/>
			
				<ellipse transform="matrix(0.0997 -0.995 0.995 0.0997 34.2086 193.0437)" fill="none" stroke="#580703" stroke-width="2" stroke-miterlimit="10" cx="123.781" cy="77.618" rx="12.339" ry="12.592"/>
		</g>
		
			<line fill="none" stroke="#580703" stroke-width="2" stroke-linecap="round" stroke-linejoin="round" stroke-miterlimit="10" x1="257.022" y1="78.29" x2="254.042" y2="78.96"/>
		
			<line fill="none" stroke="#580703" stroke-width="2" stroke-linecap="round" stroke-linejoin="round" stroke-miterlimit="10" x1="265.03" y1="87.298" x2="262.049" y2="87.968"/>
		
			<line fill="none" stroke="#580703" stroke-width="2" stroke-linecap="round" stroke-linejoin="round" stroke-miterlimit="10" x1="273.034" y1="74.29" x2="270.056" y2="74.96"/>
		
			<line fill="none" stroke="#580703" stroke-width="2" stroke-linecap="round" stroke-linejoin="round" stroke-miterlimit="10" x1="278.051" y1="94.306" x2="275.073" y2="94.976"/>
		
			<line fill="none" stroke="#580703" stroke-width="2" stroke-linecap="round" stroke-linejoin="round" stroke-miterlimit="10" x1="164.206" y1="29.853" x2="165.675" y2="32.53"/>
		
			<line fill="none" stroke="#580703" stroke-width="2" stroke-linecap="round" stroke-linejoin="round" stroke-miterlimit="10" x1="268.043" y1="63.309" x2="265.065" y2="63.979"/>
		
			<line fill="none" stroke="#580703" stroke-width="2" stroke-linecap="round" stroke-linejoin="round" stroke-miterlimit="10" x1="164.913" y1="41.506" x2="166.383" y2="44.184"/>
		
			<line fill="none" stroke="#580703" stroke-width="2" stroke-linecap="round" stroke-linejoin="round" stroke-miterlimit="10" x1="152.375" y1="34.828" x2="153.844" y2="37.505"/>
		
			<line fill="none" stroke="#580703" stroke-width="2" stroke-linecap="round" stroke-linejoin="round" stroke-miterlimit="10" x1="151.845" y1="44.48" x2="153.314" y2="47.157"/>
		<g id="Isolation_Mode_1_">
			<path fill="#F2E6E5" d="M129.839,68.743c1.742,2.128,2.675,4.919,2.386,7.869c-0.577,5.889-5.807,10.173-11.68,9.571
				c-1.823-0.187-3.492-0.824-4.912-1.788c1.735,2.122,4.273,3.584,7.207,3.885c5.873,0.602,11.103-3.683,11.679-9.572
				C134.917,74.647,132.997,70.885,129.839,68.743z"/>
		</g>
		<circle fill="#8C5750" cx="122.006" cy="75.433" r="5.563"/>
		<circle fill="#FFFFFF" cx="119.497" cy="71.137" r="1.75"/>
		<circle fill="#8C5750" cx="189.507" cy="87.474" r="8.751"/>
		<circle fill="#FFFFFF" cx="186.515" cy="79.869" r="3.25"/>
	</g>
	<g id="crown">
		<path fill="#F8E46B" d="M253.597,32.479c-4.832,2.853-6.218,3.727-9.173,5.505c-3.539,1.427-6.647-0.513-7.461-2.672
			c-2.282-7.754-5.762-23.096-7.166-28.728c-1.405-5.632-2.967-8.056-8.789-2.231c-4.263,4.02-18.961,16.653-23.284,20.386
			c-2.396,1.969-4.01,2.634-5.781,0.851c-1.769-1.783-4.529-4.874-7.103-7.644c-2.576-2.771-3.154-1.96-4.546,1.293
			c-2.256,5.648-5.58,12.137-6.083,13.112l-0.016-0.004c-0.004,0.016-0.004,0.032-0.007,0.048c-0.031,0.06-0.049,0.095-0.049,0.095
			s0.021,0.006,0.033,0.01c-1.235,6.246,15.987,16.13,38.722,22.177c22.914,6.094,42.746,5.977,44.293-0.26
			c0,0,0.799-14.272,1.067-19.122C258.521,30.444,258.422,29.625,253.597,32.479z"/>
		<path fill="#F4CB64" d="M253.442,32.593c-0.262,0.154-0.508,0.3-0.75,0.443c-0.34,6.113-0.894,15.988-0.894,15.988
			c-1.545,6.237-21.379,6.354-44.293,0.26c-14.231-3.785-26.301-9.074-33.037-14.032c2.951,6.143,18.528,14.287,38.271,19.537
			c22.915,6.094,42.747,5.977,44.294-0.26c0,0,0.799-14.273,1.068-19.123C258.368,30.558,258.271,29.74,253.442,32.593z"/>
		<path fill="none" stroke="#580703" stroke-width="2" stroke-linecap="round" stroke-linejoin="round" stroke-miterlimit="10" d="
			M174.172,32.499c-1.235,6.246,15.987,16.13,38.722,22.177c22.914,6.094,42.746,5.977,44.293-0.26c0,0,0.799-14.272,1.067-19.122
			c0.267-4.85,0.168-5.668-4.657-2.815c-4.832,2.853-6.218,3.727-9.173,5.505c-3.539,1.427-6.647-0.513-7.461-2.672
			c-2.282-7.754-5.762-23.096-7.166-28.728c-1.405-5.632-2.967-8.056-8.789-2.231c-4.263,4.02-18.961,16.653-23.284,20.386
			c-2.396,1.969-4.01,2.634-5.781,0.851c-1.769-1.783-4.529-4.874-7.103-7.644c-2.576-2.771-3.154-1.96-4.546,1.293
			c-2.256,5.648-6.099,13.108-6.099,13.108"/>
		<path fill="#FFFFFF" d="M215.858,19.533c-0.791,0.77-2.06,0.752-2.828-0.04l0,0c-0.771-0.792-0.752-2.058,0.039-2.828l5.02-4.879
			c0.791-0.77,2.059-0.752,2.828,0.04l0,0c0.771,0.792,0.752,2.058-0.039,2.828L215.858,19.533z"/>
		<path fill="#FFFFFF" d="M210.042,24.295c-0.684,0.629-1.747,0.587-2.378-0.097l0,0c-0.629-0.683-0.588-1.748,0.096-2.377
			l1.072-0.989c0.685-0.629,1.748-0.586,2.378,0.097l0,0c0.63,0.683,0.587,1.747-0.096,2.377L210.042,24.295z"/>
	</g>
	<path fill="#F8E46B" d="M-52.674,55.108c1.677-0.246,8.98,13.021,8.98,13.021s15.348-1.011,15.818-0.015
		c0.469,0.995-9.61,12.563-9.61,12.563s5.786,14.115,4.903,15.038c-0.883,0.924-14.918-5.255-14.918-5.255
		s-11.325,10.013-12.788,9.308c-1.463-0.703,0.389-15.812,0.389-15.812s-12.833-7.775-12.805-9.284
		c0.026-1.509,15.159-4.517,15.159-4.517S-54.35,55.354-52.674,55.108z"/>
	<path fill="#F8E46B" d="M385.836,41.016c0.702,0.147,1.671,6.496,1.671,6.496s6.257,1.84,6.299,2.305
		c0.041,0.465-5.662,3.597-5.662,3.597s0.242,6.464-0.246,6.703c-0.485,0.239-5.169-4.271-5.169-4.271s-5.972,2.331-6.451,1.836
		s2.465-6.237,2.465-6.237s-3.972-4.971-3.74-5.567c0.231-0.597,6.694,0.417,6.694,0.417S385.132,40.868,385.836,41.016z"/>
	<path fill="#F8E46B" d="M-92.79,325.194c1.058,0.562-0.34,11.164-0.34,11.164s9.152,5.847,9.002,6.609
		c-0.149,0.763-10.722,3.126-10.722,3.126s-2.614,10.448-3.503,10.604c-0.888,0.154-6.286-9.231-6.286-9.231
		s-10.63,0.956-11.168-0.056c-0.537-1.013,6.837-8.83,6.837-8.83s-4.046-9.792-3.399-10.639c0.647-0.847,10.512,3.772,10.512,3.772
		S-93.846,324.633-92.79,325.194z"/>
	<path fill="#F8E46B" d="M347.932-26.74c0.925,0.492-0.298,9.771-0.298,9.771s8.01,5.117,7.879,5.785
		c-0.131,0.667-9.384,2.735-9.384,2.735s-2.288,9.145-3.065,9.281c-0.777,0.136-5.502-8.079-5.502-8.079s-9.304,0.837-9.775-0.049
		c-0.47-0.887,5.984-7.729,5.984-7.729s-3.541-8.569-2.975-9.311c0.565-0.741,9.199,3.302,9.199,3.302S347.007-27.231,347.932-26.74
		z"/>
	<path fill="#F8E46B" d="M477.097,386.73c0.898,0.189,2.139,8.312,2.139,8.312s8.006,2.354,8.06,2.949
		c0.053,0.595-7.245,4.604-7.245,4.604s0.31,8.27-0.314,8.575c-0.621,0.306-6.614-5.466-6.614-5.466s-7.641,2.983-8.255,2.351
		c-0.613-0.632,3.154-7.982,3.154-7.982s-5.082-6.359-4.786-7.122c0.297-0.764,8.566,0.535,8.566,0.535
		S476.196,386.543,477.097,386.73z"/>
</g>
</svg>
