<?xml version="1.0" encoding="UTF-8" standalone="no"?>
<svg width="1234px" height="564px" viewBox="0 0 1234 564" version="1.1" xmlns="http://www.w3.org/2000/svg" xmlns:xlink="http://www.w3.org/1999/xlink">
    <!-- Generator: Sketch 39.1 (31720) - http://www.bohemiancoding.com/sketch -->
    <title>Group</title>
    <desc>Created with Sketch.</desc>
    <defs></defs>
    <g id="Page-1" stroke="none" stroke-width="1" fill="none" fill-rule="evenodd" stroke-opacity="0.366479846">
        <g id="Desktop" transform="translate(-24.000000, -1456.000000)" stroke="#8BE9ED">
            <g id="mission" transform="translate(27.000000, 1461.000000)">
                <g id="Group">
                    <path d="M1224.51207,23.2560328 C1224.51207,32.2339441 1217.23394,39.5120655 1208.25603,39.5120655 C1199.27812,39.5120655 1192,32.2339441 1192,23.2560328 C1192,14.2781214 1199.27812,7 1208.25603,7 C1217.23394,7 1224.51207,14.2781214 1224.51207,23.2560328 L1224.51207,23.2560328 Z" id="Page-1" stroke-width="12"></path>
                    <path d="M99,12.5 C99,19.4035227 93.4035227,25 86.5,25 C79.5964773,25 74,19.4035227 74,12.5 C74,5.59647727 79.5964773,0 86.5,0 C93.4035227,0 99,5.59647727 99,12.5 L99,12.5 Z" id="Page-1" stroke-width="9"></path>
                    <path d="M126,505 C126,509.970536 121.970536,514 117,514 C112.029464,514 108,509.970536 108,505 C108,500.029464 112.029464,496 117,496 C121.970536,496 126,500.029464 126,505 L126,505 Z" id="Page-1" stroke-width="4"></path>
                    <path d="M132,244.5 C132,248.089832 129.089832,251 125.5,251 C121.910168,251 119,248.089832 119,244.5 C119,240.910168 121.910168,238 125.5,238 C129.089832,238 132,240.910168 132,244.5 L132,244.5 Z" id="Page-1" stroke-width="6"></path>
                    <path d="M1195,167 C1190.02946,167 1186,162.970536 1186,158 C1186,153.029464 1190.02946,149 1195,149 C1199.97054,149 1204,153.029464 1204,158 C1204,162.970536 1199.97054,167 1195,167 Z" id="Page-1" stroke-width="4"></path>
                    <path d="M1122,557 C1117.02946,557 1113,552.970536 1113,548 C1113,543.029464 1117.02946,539 1122,539 C1126.97054,539 1131,543.029464 1131,548 C1131,552.970536 1126.97054,557 1122,557 Z" id="Page-1" stroke-width="4"></path>
                    <path d="M1086.41455,7 C1086.41455,12.6372932 1081.84457,17.2072764 1076.20728,17.2072764 C1070.56998,17.2072764 1066,12.6372932 1066,7" id="Page-1" stroke-width="6" stroke-linecap="round" stroke-linejoin="round"></path>
                    <path d="M1196.41455,416 C1196.41455,421.637293 1191.84457,426.207276 1186.20728,426.207276 C1180.56998,426.207276 1176,421.637293 1176,416" id="Page-1" stroke-width="6" stroke-linecap="round" stroke-linejoin="round"></path>
                    <path d="M20.4145528,132 C20.4145528,137.637293 15.8445695,142.207276 10.2072764,142.207276 C4.56998322,142.207276 0,137.637293 0,132" id="Page-1" stroke-width="6" stroke-linecap="round" stroke-linejoin="round"></path>
                    <path d="M1116.29998,255.17268 C1116.29998,264.341272 1108.86728,271.773972 1099.69869,271.773972 C1090.5301,271.773972 1083.0974,264.341272 1083.0974,255.17268" id="Page-1" stroke-width="10" stroke-linecap="round" stroke-linejoin="round" transform="translate(1099.698691, 263.473326) rotate(-69.000000) translate(-1099.698691, -263.473326) "></path>
                    <path d="M45.1615647,359.632112 C45.1615647,368.800704 37.7288647,376.233404 28.5602733,376.233404 C19.3916818,376.233404 11.9589818,368.800704 11.9589818,359.632112" id="Page-1" stroke-width="10" stroke-linecap="round" stroke-linejoin="round" transform="translate(28.560273, 367.932758) rotate(27.000000) translate(-28.560273, -367.932758) "></path>
                </g>
            </g>
        </g>
    </g>
</svg>