<?xml version="1.0" encoding="UTF-8" standalone="no"?>
<svg width="1202px" height="616px" viewBox="0 0 1202 616" version="1.1" xmlns="http://www.w3.org/2000/svg" xmlns:xlink="http://www.w3.org/1999/xlink">
    <!-- Generator: Sketch 39.1 (31720) - http://www.bohemiancoding.com/sketch -->
    <title>pattern</title>
    <desc>Created with Sketch.</desc>
    <defs></defs>
    <g id="Page-1" stroke="none" stroke-width="1" fill="none" fill-rule="evenodd">
        <g id="Desktop" transform="translate(-21.000000, -4080.000000)" stroke="#303852">
            <g id="last-page" transform="translate(-118.000000, 3950.000000)">
                <g id="pattern" transform="translate(142.000000, 135.000000)">
                    <path d="M1192.51207,230.256033 C1192.51207,239.233944 1185.23394,246.512066 1176.25603,246.512066 C1167.27812,246.512066 1160,239.233944 1160,230.256033 C1160,221.278121 1167.27812,214 1176.25603,214 C1185.23394,214 1192.51207,221.278121 1192.51207,230.256033 L1192.51207,230.256033 Z" id="Page-1" stroke-width="12"></path>
                    <path d="M1171,592.5 C1171,599.955805 1164.9558,606 1157.5,606 C1150.0442,606 1144,599.955805 1144,592.5 C1144,585.044195 1150.0442,579 1157.5,579 C1164.9558,579 1171,585.044195 1171,592.5 L1171,592.5 Z" id="Page-1" stroke-width="9"></path>
                    <path d="M85,12.5 C85,19.4035227 79.4035227,25 72.5,25 C65.5964773,25 60,19.4035227 60,12.5 C60,5.59647727 65.5964773,0 72.5,0 C79.4035227,0 85,5.59647727 85,12.5 L85,12.5 Z" id="Page-1" stroke-width="9"></path>
                    <path d="M153,307 C148.029464,307 144,302.970536 144,298 C144,293.029464 148.029464,289 153,289 C157.970536,289 162,293.029464 162,298 C162,302.970536 157.970536,307 153,307 Z" id="Page-1" stroke-width="8"></path>
                    <path d="M20.4145528,306 C20.4145528,311.637293 15.8445695,316.207276 10.2072764,316.207276 C4.56998322,316.207276 0,311.637293 0,306" id="Page-1" stroke-width="6" stroke-linecap="round" stroke-linejoin="round"></path>
                    <path d="M917.299983,388.17268 C917.299983,397.341272 909.867283,404.773972 900.698691,404.773972 C891.5301,404.773972 884.0974,397.341272 884.0974,388.17268" id="Page-1" stroke-width="10" stroke-linecap="round" stroke-linejoin="round" transform="translate(900.698691, 396.473326) rotate(-69.000000) translate(-900.698691, -396.473326) "></path>
                    <path d="M318.161565,205.632112 C318.161565,214.800704 310.728865,222.233404 301.560273,222.233404 C292.391682,222.233404 284.958982,214.800704 284.958982,205.632112" id="Page-1" stroke-width="10" stroke-linecap="round" stroke-linejoin="round" transform="translate(301.560273, 213.932758) rotate(27.000000) translate(-301.560273, -213.932758) "></path>
                    <path d="M346.91021,399.560357 C346.91021,408.367083 339.770863,415.50643 330.964136,415.50643 C322.15741,415.50643 315.018063,408.367083 315.018063,399.560357" id="Page-1" stroke-width="10" stroke-linecap="round" stroke-linejoin="round" transform="translate(330.964136, 407.533393) rotate(-53.000000) translate(-330.964136, -407.533393) "></path>
                    <path d="M1129.13132,400.62209 C1129.13132,409.428816 1121.99197,416.568163 1113.18524,416.568163 C1104.37852,416.568163 1097.23917,409.428816 1097.23917,400.62209" id="Page-1" stroke-width="9" stroke-linecap="round" stroke-linejoin="round" transform="translate(1113.185245, 408.595126) rotate(42.000000) translate(-1113.185245, -408.595126) "></path>
                    <path d="M797.897118,580.840869 C792.926582,580.840869 788.897118,576.811405 788.897118,571.840869 C788.897118,566.870332 792.926582,562.840869 797.897118,562.840869 C802.867654,562.840869 806.897118,566.870332 806.897118,571.840869 C806.897118,576.811405 802.867654,580.840869 797.897118,580.840869 Z" id="Page-1" stroke-width="8" transform="translate(797.897118, 571.840869) rotate(10.000000) translate(-797.897118, -571.840869) "></path>
                    <path d="M999.528985,561.247621 C999.528985,561.247621 1004.26414,551.932816 1011.966,561.247621 C1019.66787,570.562425 1024.52899,561.247621 1024.52899,561.247621" id="Page-1" stroke-width="8" stroke-linecap="round" stroke-linejoin="round" transform="translate(1012.028985, 561.247621) rotate(10.000000) translate(-1012.028985, -561.247621) "></path>
                    <path d="M857,223.80171 C857,223.80171 862.492778,212.996537 871.42694,223.80171 C880.361102,234.606883 886,223.80171 886,223.80171" id="Page-1" stroke-width="8" stroke-linecap="round" stroke-linejoin="round"></path>
                    <path d="M987,32.139913 C987,32.139913 991.735153,22.8251087 999.437017,32.139913 C1007.13888,41.4547173 1012,32.139913 1012,32.139913" id="Page-1" stroke-width="8" stroke-linecap="round" stroke-linejoin="round"></path>
                    <path d="M159,118.139913 C159,118.139913 163.735153,108.825109 171.437017,118.139913 C179.138881,127.454717 184,118.139913 184,118.139913" id="Page-1" stroke-width="8" stroke-linecap="round" stroke-linejoin="round"></path>
                    <path d="M1061,177 C1056.02946,177 1052,172.970536 1052,168 C1052,163.029464 1056.02946,159 1061,159 C1065.97054,159 1070,163.029464 1070,168 C1070,172.970536 1065.97054,177 1061,177 Z" id="Page-1" stroke-width="6"></path>
                    <path d="M297.131318,563.62209 C297.131318,572.428816 289.991971,579.568163 281.185245,579.568163 C272.378518,579.568163 265.239171,572.428816 265.239171,563.62209" id="Page-1" stroke-width="9" stroke-linecap="round" stroke-linejoin="round" transform="translate(281.185245, 571.595126) rotate(42.000000) translate(-281.185245, -571.595126) "></path>
                    <path d="M94.2663844,493.527031 C94.2663844,493.527031 99.7591623,482.721858 108.693324,493.527031 C117.627486,504.332204 123.266384,493.527031 123.266384,493.527031" id="Page-1" stroke-width="8" stroke-linecap="round" stroke-linejoin="round" transform="translate(108.766384, 493.527031) rotate(44.000000) translate(-108.766384, -493.527031) "></path>
                </g>
            </g>
        </g>
    </g>
</svg>