<?xml version="1.0" encoding="UTF-8" standalone="no"?>
<svg width="449px" height="299px" viewBox="0 0 449 299" version="1.1" xmlns="http://www.w3.org/2000/svg" xmlns:xlink="http://www.w3.org/1999/xlink">
    <!-- Generator: Sketch 39.1 (31720) - http://www.bohemiancoding.com/sketch -->
    <title>stars</title>
    <desc>Created with Sketch.</desc>
    <defs></defs>
    <g id="Page-1" stroke="none" stroke-width="1" fill="none" fill-rule="evenodd">
        <g id="Desktop" transform="translate(-416.000000, -168.000000)" fill="#FFF085">
            <g id="first-page" transform="translate(-272.000000, 13.000000)">
                <g id="stars" transform="translate(688.000000, 155.000000)">
                    <polyline id="Star" points="70.3616178 34.4029742 62.7548152 43.0332102 58.5584734 32.3217614 48 27.7541518 56.8904522 20.453174 57.9717594 9 67.6627028 15.1991963 78.8894608 12.6883551 75.9883409 23.820647 81.8455518 33.7220358 70.3616178 34.4029742"></polyline>
                    <polyline id="Star-Copy" points="437.895672 294.625118 432 294.893522 434.457418 289.527696 432.380287 284.003521 438.242874 284.682532 442.854809 281 444.02067 286.785478 448.948132 290.033723 443.806087 292.930334 442.239491 298.620392 437.895672 294.625118"></polyline>
                    <polyline id="Star-Copy-2" points="12.847197 211.160475 5.43705375 214.711874 5.66744199 206.497887 -4.61852778e-14 200.547865 7.88315983 198.228716 11.7906313 191 16.4323038 197.780674 24.5146959 199.263104 19.5002475 205.772941 20.5879691 213.917848 12.847197 211.160475"></polyline>
                    <polyline id="Star-Copy-3" points="382.595612 54.4327848 377 53.100406 380.743792 48.7334708 380.281821 43 385.591919 45.211101 390.902016 43 390.440045 48.7334708 394.183837 53.100406 388.588225 54.4327848 385.591919 59.3428002 382.595612 54.4327848"></polyline>
                    <polyline id="Star-Copy-3" points="361.12352 16.5977306 353 14.6634281 358.435111 8.3236591 357.764437 -1.07841589e-13 365.473457 3.21000166 373.182477 -1.10134124e-13 372.511803 8.3236591 377.946914 14.6634281 369.823394 16.5977306 365.473457 23.725925 361.12352 16.5977306"></polyline>
                </g>
            </g>
        </g>
    </g>
</svg>