<?xml version="1.0" encoding="UTF-8" standalone="no"?>
<svg width="44px" height="31px" viewBox="0 0 44 31" version="1.1" xmlns="http://www.w3.org/2000/svg" xmlns:xlink="http://www.w3.org/1999/xlink">
    <!-- Generator: Sketch 39.1 (31720) - http://www.bohemiancoding.com/sketch -->
    <title>Page 1</title>
    <desc>Created with Sketch.</desc>
    <defs></defs>
    <g id="Page-1" stroke="none" stroke-width="1" fill="none" fill-rule="evenodd">
        <g id="iPhone-6" transform="translate(-166.000000, -2136.000000)">
            <g id="Page-1" transform="translate(167.000000, 2137.000000)">
                <path d="M39.2753365,15.4729746 C36.88776,16.8752966 36.2034071,17.3048898 34.7432894,18.178822 C32.9946071,18.8807203 31.4588894,17.927161 31.0566776,16.8654661 C29.9286071,13.054178 28.2100659,5.51319492 27.5158306,2.74492373 C26.8215953,-0.0233474576 26.0502776,-1.21480508 23.1735247,1.64833051 C21.0671012,3.62426271 13.80456,9.83370339 11.6675012,11.6685678 C10.4840894,12.6363814 9.68658353,12.9632458 8.81199529,12.0868559 C7.93790118,11.2104661 6.57364235,9.69116102 5.30227765,8.32963559 C4.02943059,6.96761864 3.74333647,7.36624576 3.05601882,8.96517797 C1.94128941,11.7413136 0.298842353,14.930822 0.0498070588,15.4100593 L0.0423952941,15.4080932 C0.0404188235,15.4159576 0.0404188235,15.423822 0.0384423529,15.4316864 C0.0236188235,15.461178 0.0142305882,15.4783814 0.0142305882,15.4783814 C0.0142305882,15.4783814 0.0246070588,15.4813305 0.0310305882,15.4832966 C-0.579698824,18.5533644 7.92999529,23.4116017 19.1632659,26.3833644 C30.4859718,29.3787203 40.2853129,29.3212119 41.0497129,26.2555678 C41.0497129,26.2555678 41.4440188,19.2405169 41.5774306,16.8566186 C41.7088659,14.4727203 41.6604424,14.0706525 39.2753365,15.4729746" id="Fill-1" fill="#F9E46B"></path>
                <path d="M39.1995882,15.5291559 C39.0701294,15.6048508 38.9485765,15.6766136 38.829,15.7469017 C38.6605059,18.7515966 38.3872588,23.6059017 38.3872588,23.6059017 C37.6243412,26.6715458 27.8245059,26.7290542 16.5013059,23.7336983 C9.47001176,21.8732746 3.50601176,19.2735966 0.177635294,16.8366136 C1.63577647,19.8560542 9.33264706,23.8590373 19.0875176,26.4395458 C30.4102235,29.4349017 40.2100588,29.3773932 40.9739647,26.3117492 C40.9739647,26.3117492 41.3687647,19.2962068 41.5021765,16.9123085 C41.6331176,14.5289017 41.5851882,14.1268339 39.1995882,15.5291559" id="Fill-3" fill="#F4CB64"></path>
                <path d="M19.1631176,26.3836102 C30.4858235,29.3789661 40.2851647,29.3214576 41.0495647,26.2558136 C41.0495647,26.2558136 41.4438706,19.2402712 41.5777765,16.8563729 C41.7087176,14.4729661 41.6602941,14.0704068 39.2751882,15.4727288 C36.8876118,16.8750508 36.2037529,17.3051356 34.7431412,18.1790678 C32.9944588,18.8804746 31.4587412,17.9269153 31.0570235,16.8657119 C29.9284588,13.0544237 28.2104118,5.51344068 27.5161765,2.74467797 C26.8214471,-0.0231016949 26.0506235,-1.21505085 23.1733765,1.64857627 C21.0669529,3.62401695 13.8044118,9.83345763 11.6678471,11.668322 C10.4839412,12.6361356 9.68692941,12.9634915 8.81184706,12.0866102 C7.93775294,11.2107119 6.57398824,9.69140678 5.30212941,8.32938983 C4.02928235,6.96786441 3.74368235,7.366 3.05587059,8.9649322 C1.94114118,11.7410678 0.0422470588,15.408339 0.0422470588,15.408339 C-0.579352941,18.5531186 7.93034118,23.4113559 19.1631176,26.3836102 Z" id="Stroke-5" stroke="#580603" stroke-width="1.5" stroke-linecap="round" stroke-linejoin="round"></path>
                <path d="M20.6286706,9.10978475 C20.2373294,9.48825932 19.6112824,9.47941186 19.2313059,9.09012373 C18.8508353,8.70083559 18.8592353,8.07856441 19.2505765,7.70008983 L21.7305529,5.30144576 C22.1214,4.92297119 22.7479412,4.93181864 23.1284118,5.32110678 C23.5088824,5.71039492 23.4999882,6.33315763 23.1086471,6.7116322 L20.6286706,9.10978475 Z" id="Fill-7" fill="#FFFFFF"></path>
                <path d="M17.7549318,11.4505271 C17.4174494,11.7596966 16.8917082,11.7390525 16.5804141,11.4028492 C16.26912,11.0671373 16.2898729,10.5436627 16.6268612,10.2340017 L17.1575435,9.74788305 C17.4945318,9.43871356 18.0207671,9.45984915 18.3320612,9.79556102 C18.6433553,10.1312729 18.6221082,10.6542559 18.2846259,10.9644085 L17.7549318,11.4505271 Z" id="Fill-9" fill="#FFFFFF"></path>
            </g>
        </g>
    </g>
</svg>